<svg width="375" height="596" viewBox="0 0 375 596" fill="none" xmlns="http://www.w3.org/2000/svg">
<g opacity="0.24" clip-path="url(#clip0_202_2452)">
<g clip-path="url(#clip1_202_2452)">
<path fill-rule="evenodd" clip-rule="evenodd" d="M20.8392 562.657C20.8392 558.052 17.1089 554.322 12.5035 554.322C5.5974 554.322 0 548.724 0 541.818H4.16783C4.16783 546.424 7.89804 550.154 12.5035 550.154C19.4096 550.154 25.007 555.751 25.007 562.657C25.007 567.263 28.7372 570.993 33.3427 570.993C40.2488 570.993 45.8461 576.59 45.8461 583.496C45.8461 588.102 49.5764 591.832 54.1818 591.832V596C47.2757 596 41.6783 590.403 41.6783 583.496C41.6783 578.891 37.9481 575.161 33.3427 575.161C26.4366 575.161 20.8392 569.563 20.8392 562.657ZM73.904 558.594L91.5881 576.278L88.6414 579.224L70.9573 561.54L73.904 558.594Z" fill="#DEE7ED"/>
</g>
<g clip-path="url(#clip2_202_2452)">
<path fill-rule="evenodd" clip-rule="evenodd" d="M129.203 562.657C129.203 558.052 125.472 554.322 120.867 554.322C113.961 554.322 108.364 548.724 108.364 541.818H112.531C112.531 546.424 116.262 550.154 120.867 550.154C127.773 550.154 133.371 555.751 133.371 562.657C133.371 567.263 137.101 570.993 141.706 570.993C148.612 570.993 154.21 576.59 154.21 583.496C154.21 588.102 157.94 591.832 162.545 591.832V596C155.639 596 150.042 590.403 150.042 583.496C150.042 578.891 146.312 575.161 141.706 575.161C134.8 575.161 129.203 569.563 129.203 562.657ZM182.268 558.594L199.952 576.278L197.005 579.224L179.321 561.54L182.268 558.594Z" fill="#DEE7ED"/>
</g>
<g clip-path="url(#clip3_202_2452)">
<path fill-rule="evenodd" clip-rule="evenodd" d="M237.566 562.657C237.566 558.052 233.836 554.322 229.231 554.322C222.325 554.322 216.727 548.724 216.727 541.818H220.895C220.895 546.424 224.625 550.154 229.231 550.154C236.137 550.154 241.734 555.751 241.734 562.657C241.734 567.263 245.464 570.993 250.07 570.993C256.976 570.993 262.573 576.59 262.573 583.496C262.573 588.102 266.304 591.832 270.909 591.832V596C264.003 596 258.406 590.403 258.406 583.496C258.406 578.891 254.675 575.161 250.07 575.161C243.164 575.161 237.566 569.563 237.566 562.657ZM290.631 558.594L308.315 576.278L305.369 579.224L287.685 561.54L290.631 558.594Z" fill="#DEE7ED"/>
</g>
<g clip-path="url(#clip4_202_2452)">
<path fill-rule="evenodd" clip-rule="evenodd" d="M345.93 562.657C345.93 558.052 342.2 554.322 337.594 554.322C330.688 554.322 325.091 548.724 325.091 541.818H329.259C329.259 546.424 332.989 550.154 337.594 550.154C344.5 550.154 350.098 555.751 350.098 562.657C350.098 567.263 353.828 570.993 358.433 570.993C365.34 570.993 370.937 576.59 370.937 583.496C370.937 588.102 374.667 591.832 379.273 591.832V596C372.367 596 366.769 590.403 366.769 583.496C366.769 578.891 363.039 575.161 358.433 575.161C351.527 575.161 345.93 569.563 345.93 562.657ZM398.995 558.594L416.679 576.278L413.732 579.224L396.048 561.54L398.995 558.594Z" fill="#DEE7ED"/>
</g>
<g clip-path="url(#clip5_202_2452)">
<path fill-rule="evenodd" clip-rule="evenodd" d="M20.8392 508.476C20.8392 503.87 17.1089 500.14 12.5035 500.14C5.5974 500.14 0 494.542 0 487.636H4.16783C4.16783 492.242 7.89804 495.972 12.5035 495.972C19.4096 495.972 25.007 501.569 25.007 508.476C25.007 513.081 28.7372 516.811 33.3427 516.811C40.2488 516.811 45.8461 522.409 45.8461 529.315C45.8461 533.92 49.5764 537.65 54.1818 537.65V541.818C47.2757 541.818 41.6783 536.221 41.6783 529.315C41.6783 524.709 37.9481 520.979 33.3427 520.979C26.4366 520.979 20.8392 515.382 20.8392 508.476ZM73.904 504.412L91.5881 522.096L88.6414 525.043L70.9573 507.359L73.904 504.412Z" fill="#DEE7ED"/>
</g>
<g clip-path="url(#clip6_202_2452)">
<path fill-rule="evenodd" clip-rule="evenodd" d="M129.203 508.476C129.203 503.87 125.472 500.14 120.867 500.14C113.961 500.14 108.364 494.542 108.364 487.636H112.531C112.531 492.242 116.262 495.972 120.867 495.972C127.773 495.972 133.371 501.569 133.371 508.476C133.371 513.081 137.101 516.811 141.706 516.811C148.612 516.811 154.21 522.409 154.21 529.315C154.21 533.92 157.94 537.65 162.545 537.65V541.818C155.639 541.818 150.042 536.221 150.042 529.315C150.042 524.709 146.312 520.979 141.706 520.979C134.8 520.979 129.203 515.382 129.203 508.476ZM182.268 504.412L199.952 522.096L197.005 525.043L179.321 507.359L182.268 504.412Z" fill="#DEE7ED"/>
</g>
<g clip-path="url(#clip7_202_2452)">
<path fill-rule="evenodd" clip-rule="evenodd" d="M237.566 508.476C237.566 503.87 233.836 500.14 229.231 500.14C222.325 500.14 216.727 494.542 216.727 487.636H220.895C220.895 492.242 224.625 495.972 229.231 495.972C236.137 495.972 241.734 501.569 241.734 508.476C241.734 513.081 245.464 516.811 250.07 516.811C256.976 516.811 262.573 522.409 262.573 529.315C262.573 533.92 266.304 537.65 270.909 537.65V541.818C264.003 541.818 258.406 536.221 258.406 529.315C258.406 524.709 254.675 520.979 250.07 520.979C243.164 520.979 237.566 515.382 237.566 508.476ZM290.631 504.412L308.315 522.096L305.369 525.043L287.685 507.359L290.631 504.412Z" fill="#DEE7ED"/>
</g>
<g clip-path="url(#clip8_202_2452)">
<path fill-rule="evenodd" clip-rule="evenodd" d="M345.93 508.476C345.93 503.87 342.2 500.14 337.594 500.14C330.688 500.14 325.091 494.542 325.091 487.636H329.259C329.259 492.242 332.989 495.972 337.594 495.972C344.5 495.972 350.098 501.569 350.098 508.476C350.098 513.081 353.828 516.811 358.433 516.811C365.34 516.811 370.937 522.409 370.937 529.315C370.937 533.92 374.667 537.65 379.273 537.65V541.818C372.367 541.818 366.769 536.221 366.769 529.315C366.769 524.709 363.039 520.979 358.433 520.979C351.527 520.979 345.93 515.382 345.93 508.476ZM398.995 504.412L416.679 522.096L413.732 525.043L396.048 507.359L398.995 504.412Z" fill="#DEE7ED"/>
</g>
<g clip-path="url(#clip9_202_2452)">
<path fill-rule="evenodd" clip-rule="evenodd" d="M20.8392 454.294C20.8392 449.688 17.1089 445.958 12.5035 445.958C5.5974 445.958 0 440.361 0 433.455H4.16783C4.16783 438.06 7.89804 441.79 12.5035 441.79C19.4096 441.79 25.007 447.388 25.007 454.294C25.007 458.899 28.7372 462.629 33.3427 462.629C40.2488 462.629 45.8461 468.227 45.8461 475.133C45.8461 479.738 49.5764 483.469 54.1818 483.469V487.636C47.2757 487.636 41.6783 482.039 41.6783 475.133C41.6783 470.527 37.9481 466.797 33.3427 466.797C26.4366 466.797 20.8392 461.2 20.8392 454.294ZM73.904 450.23L91.5881 467.914L88.6414 470.861L70.9573 453.177L73.904 450.23Z" fill="#DEE7ED"/>
</g>
<g clip-path="url(#clip10_202_2452)">
<path fill-rule="evenodd" clip-rule="evenodd" d="M129.203 454.294C129.203 449.688 125.472 445.958 120.867 445.958C113.961 445.958 108.364 440.361 108.364 433.455H112.531C112.531 438.06 116.262 441.79 120.867 441.79C127.773 441.79 133.371 447.388 133.371 454.294C133.371 458.899 137.101 462.629 141.706 462.629C148.612 462.629 154.21 468.227 154.21 475.133C154.21 479.738 157.94 483.469 162.545 483.469V487.636C155.639 487.636 150.042 482.039 150.042 475.133C150.042 470.527 146.312 466.797 141.706 466.797C134.8 466.797 129.203 461.2 129.203 454.294ZM182.268 450.23L199.952 467.914L197.005 470.861L179.321 453.177L182.268 450.23Z" fill="#DEE7ED"/>
</g>
<g clip-path="url(#clip11_202_2452)">
<path fill-rule="evenodd" clip-rule="evenodd" d="M237.566 454.294C237.566 449.688 233.836 445.958 229.231 445.958C222.325 445.958 216.727 440.361 216.727 433.455H220.895C220.895 438.06 224.625 441.79 229.231 441.79C236.137 441.79 241.734 447.388 241.734 454.294C241.734 458.899 245.464 462.629 250.07 462.629C256.976 462.629 262.573 468.227 262.573 475.133C262.573 479.738 266.304 483.469 270.909 483.469V487.636C264.003 487.636 258.406 482.039 258.406 475.133C258.406 470.527 254.675 466.797 250.07 466.797C243.164 466.797 237.566 461.2 237.566 454.294ZM290.631 450.23L308.315 467.914L305.369 470.861L287.685 453.177L290.631 450.23Z" fill="#DEE7ED"/>
</g>
<g clip-path="url(#clip12_202_2452)">
<path fill-rule="evenodd" clip-rule="evenodd" d="M345.93 454.294C345.93 449.688 342.2 445.958 337.594 445.958C330.688 445.958 325.091 440.361 325.091 433.455H329.259C329.259 438.06 332.989 441.79 337.594 441.79C344.5 441.79 350.098 447.388 350.098 454.294C350.098 458.899 353.828 462.629 358.433 462.629C365.34 462.629 370.937 468.227 370.937 475.133C370.937 479.738 374.667 483.469 379.273 483.469V487.636C372.367 487.636 366.769 482.039 366.769 475.133C366.769 470.527 363.039 466.797 358.433 466.797C351.527 466.797 345.93 461.2 345.93 454.294ZM398.995 450.23L416.679 467.914L413.732 470.861L396.048 453.177L398.995 450.23Z" fill="#DEE7ED"/>
</g>
<g clip-path="url(#clip13_202_2452)">
<path fill-rule="evenodd" clip-rule="evenodd" d="M20.8392 400.112C20.8392 395.506 17.1089 391.776 12.5035 391.776C5.5974 391.776 0 386.179 0 379.273H4.16783C4.16783 383.878 7.89804 387.608 12.5035 387.608C19.4096 387.608 25.007 393.206 25.007 400.112C25.007 404.717 28.7372 408.448 33.3427 408.448C40.2488 408.448 45.8461 414.045 45.8461 420.951C45.8461 425.556 49.5764 429.287 54.1818 429.287V433.455C47.2757 433.455 41.6783 427.857 41.6783 420.951C41.6783 416.346 37.9481 412.615 33.3427 412.615C26.4366 412.615 20.8392 407.018 20.8392 400.112ZM73.904 396.048L91.5881 413.732L88.6414 416.679L70.9573 398.995L73.904 396.048Z" fill="#DEE7ED"/>
</g>
<g clip-path="url(#clip14_202_2452)">
<path fill-rule="evenodd" clip-rule="evenodd" d="M129.203 400.112C129.203 395.506 125.472 391.776 120.867 391.776C113.961 391.776 108.364 386.179 108.364 379.273H112.531C112.531 383.878 116.262 387.608 120.867 387.608C127.773 387.608 133.371 393.206 133.371 400.112C133.371 404.717 137.101 408.448 141.706 408.448C148.612 408.448 154.21 414.045 154.21 420.951C154.21 425.556 157.94 429.287 162.545 429.287V433.455C155.639 433.455 150.042 427.857 150.042 420.951C150.042 416.346 146.312 412.615 141.706 412.615C134.8 412.615 129.203 407.018 129.203 400.112ZM182.268 396.048L199.952 413.732L197.005 416.679L179.321 398.995L182.268 396.048Z" fill="#DEE7ED"/>
</g>
<g clip-path="url(#clip15_202_2452)">
<path fill-rule="evenodd" clip-rule="evenodd" d="M237.566 400.112C237.566 395.506 233.836 391.776 229.231 391.776C222.325 391.776 216.727 386.179 216.727 379.273H220.895C220.895 383.878 224.625 387.608 229.231 387.608C236.137 387.608 241.734 393.206 241.734 400.112C241.734 404.717 245.464 408.448 250.07 408.448C256.976 408.448 262.573 414.045 262.573 420.951C262.573 425.556 266.304 429.287 270.909 429.287V433.455C264.003 433.455 258.406 427.857 258.406 420.951C258.406 416.346 254.675 412.615 250.07 412.615C243.164 412.615 237.566 407.018 237.566 400.112ZM290.631 396.048L308.315 413.732L305.369 416.679L287.685 398.995L290.631 396.048Z" fill="#DEE7ED"/>
</g>
<g clip-path="url(#clip16_202_2452)">
<path fill-rule="evenodd" clip-rule="evenodd" d="M345.93 400.112C345.93 395.506 342.2 391.776 337.594 391.776C330.688 391.776 325.091 386.179 325.091 379.273H329.259C329.259 383.878 332.989 387.608 337.594 387.608C344.5 387.608 350.098 393.206 350.098 400.112C350.098 404.717 353.828 408.448 358.433 408.448C365.34 408.448 370.937 414.045 370.937 420.951C370.937 425.556 374.667 429.287 379.273 429.287V433.455C372.367 433.455 366.769 427.857 366.769 420.951C366.769 416.346 363.039 412.615 358.433 412.615C351.527 412.615 345.93 407.018 345.93 400.112ZM398.995 396.048L416.679 413.732L413.732 416.679L396.048 398.995L398.995 396.048Z" fill="#DEE7ED"/>
</g>
<g clip-path="url(#clip17_202_2452)">
<path fill-rule="evenodd" clip-rule="evenodd" d="M20.8392 345.93C20.8392 341.325 17.1089 337.594 12.5035 337.594C5.5974 337.594 0 331.997 0 325.091H4.16783C4.16783 329.696 7.89804 333.427 12.5035 333.427C19.4096 333.427 25.007 339.024 25.007 345.93C25.007 350.536 28.7372 354.266 33.3427 354.266C40.2488 354.266 45.8461 359.863 45.8461 366.769C45.8461 371.375 49.5764 375.105 54.1818 375.105V379.273C47.2757 379.273 41.6783 373.675 41.6783 366.769C41.6783 362.164 37.9481 358.434 33.3427 358.434C26.4366 358.434 20.8392 352.836 20.8392 345.93ZM73.904 341.866L91.5881 359.551L88.6414 362.497L70.9573 344.813L73.904 341.866Z" fill="#DEE7ED"/>
</g>
<g clip-path="url(#clip18_202_2452)">
<path fill-rule="evenodd" clip-rule="evenodd" d="M129.203 345.93C129.203 341.325 125.472 337.594 120.867 337.594C113.961 337.594 108.364 331.997 108.364 325.091H112.531C112.531 329.696 116.262 333.427 120.867 333.427C127.773 333.427 133.371 339.024 133.371 345.93C133.371 350.536 137.101 354.266 141.706 354.266C148.612 354.266 154.21 359.863 154.21 366.769C154.21 371.375 157.94 375.105 162.545 375.105V379.273C155.639 379.273 150.042 373.675 150.042 366.769C150.042 362.164 146.312 358.434 141.706 358.434C134.8 358.434 129.203 352.836 129.203 345.93ZM182.268 341.866L199.952 359.551L197.005 362.497L179.321 344.813L182.268 341.866Z" fill="#DEE7ED"/>
</g>
<g clip-path="url(#clip19_202_2452)">
<path fill-rule="evenodd" clip-rule="evenodd" d="M237.566 345.93C237.566 341.325 233.836 337.594 229.231 337.594C222.325 337.594 216.727 331.997 216.727 325.091H220.895C220.895 329.696 224.625 333.427 229.231 333.427C236.137 333.427 241.734 339.024 241.734 345.93C241.734 350.536 245.464 354.266 250.07 354.266C256.976 354.266 262.573 359.863 262.573 366.769C262.573 371.375 266.304 375.105 270.909 375.105V379.273C264.003 379.273 258.406 373.675 258.406 366.769C258.406 362.164 254.675 358.434 250.07 358.434C243.164 358.434 237.566 352.836 237.566 345.93ZM290.631 341.866L308.315 359.551L305.369 362.497L287.685 344.813L290.631 341.866Z" fill="#DEE7ED"/>
</g>
<g clip-path="url(#clip20_202_2452)">
<path fill-rule="evenodd" clip-rule="evenodd" d="M345.93 345.93C345.93 341.325 342.2 337.594 337.594 337.594C330.688 337.594 325.091 331.997 325.091 325.091H329.259C329.259 329.696 332.989 333.427 337.594 333.427C344.5 333.427 350.098 339.024 350.098 345.93C350.098 350.536 353.828 354.266 358.433 354.266C365.34 354.266 370.937 359.863 370.937 366.769C370.937 371.375 374.667 375.105 379.273 375.105V379.273C372.367 379.273 366.769 373.675 366.769 366.769C366.769 362.164 363.039 358.434 358.433 358.434C351.527 358.434 345.93 352.836 345.93 345.93ZM398.995 341.866L416.679 359.551L413.732 362.497L396.048 344.813L398.995 341.866Z" fill="#DEE7ED"/>
</g>
<g clip-path="url(#clip21_202_2452)">
<path fill-rule="evenodd" clip-rule="evenodd" d="M20.8392 291.748C20.8392 287.143 17.1089 283.413 12.5035 283.413C5.5974 283.413 0 277.815 0 270.909H4.16783C4.16783 275.515 7.89804 279.245 12.5035 279.245C19.4096 279.245 25.007 284.842 25.007 291.748C25.007 296.354 28.7372 300.084 33.3427 300.084C40.2488 300.084 45.8461 305.681 45.8461 312.587C45.8461 317.193 49.5764 320.923 54.1818 320.923V325.091C47.2757 325.091 41.6783 319.493 41.6783 312.587C41.6783 307.982 37.9481 304.252 33.3427 304.252C26.4366 304.252 20.8392 298.654 20.8392 291.748ZM73.904 287.685L91.5881 305.369L88.6414 308.315L70.9573 290.631L73.904 287.685Z" fill="#DEE7ED"/>
</g>
<g clip-path="url(#clip22_202_2452)">
<path fill-rule="evenodd" clip-rule="evenodd" d="M129.203 291.748C129.203 287.143 125.472 283.413 120.867 283.413C113.961 283.413 108.364 277.815 108.364 270.909H112.531C112.531 275.515 116.262 279.245 120.867 279.245C127.773 279.245 133.371 284.842 133.371 291.748C133.371 296.354 137.101 300.084 141.706 300.084C148.612 300.084 154.21 305.681 154.21 312.587C154.21 317.193 157.94 320.923 162.545 320.923V325.091C155.639 325.091 150.042 319.493 150.042 312.587C150.042 307.982 146.312 304.252 141.706 304.252C134.8 304.252 129.203 298.654 129.203 291.748ZM182.268 287.685L199.952 305.369L197.005 308.315L179.321 290.631L182.268 287.685Z" fill="#DEE7ED"/>
</g>
<g clip-path="url(#clip23_202_2452)">
<path fill-rule="evenodd" clip-rule="evenodd" d="M237.566 291.748C237.566 287.143 233.836 283.413 229.231 283.413C222.325 283.413 216.727 277.815 216.727 270.909H220.895C220.895 275.515 224.625 279.245 229.231 279.245C236.137 279.245 241.734 284.842 241.734 291.748C241.734 296.354 245.464 300.084 250.07 300.084C256.976 300.084 262.573 305.681 262.573 312.587C262.573 317.193 266.304 320.923 270.909 320.923V325.091C264.003 325.091 258.406 319.493 258.406 312.587C258.406 307.982 254.675 304.252 250.07 304.252C243.164 304.252 237.566 298.654 237.566 291.748ZM290.631 287.685L308.315 305.369L305.369 308.315L287.685 290.631L290.631 287.685Z" fill="#DEE7ED"/>
</g>
<g clip-path="url(#clip24_202_2452)">
<path fill-rule="evenodd" clip-rule="evenodd" d="M345.93 291.748C345.93 287.143 342.2 283.413 337.594 283.413C330.688 283.413 325.091 277.815 325.091 270.909H329.259C329.259 275.515 332.989 279.245 337.594 279.245C344.5 279.245 350.098 284.842 350.098 291.748C350.098 296.354 353.828 300.084 358.433 300.084C365.34 300.084 370.937 305.681 370.937 312.587C370.937 317.193 374.667 320.923 379.273 320.923V325.091C372.367 325.091 366.769 319.493 366.769 312.587C366.769 307.982 363.039 304.252 358.433 304.252C351.527 304.252 345.93 298.654 345.93 291.748ZM398.995 287.685L416.679 305.369L413.732 308.315L396.048 290.631L398.995 287.685Z" fill="#DEE7ED"/>
</g>
<g clip-path="url(#clip25_202_2452)">
<path fill-rule="evenodd" clip-rule="evenodd" d="M20.8392 237.566C20.8392 232.961 17.1089 229.231 12.5035 229.231C5.5974 229.231 0 223.633 0 216.727H4.16783C4.16783 221.333 7.89804 225.063 12.5035 225.063C19.4096 225.063 25.007 230.66 25.007 237.566C25.007 242.172 28.7372 245.902 33.3427 245.902C40.2488 245.902 45.8461 251.5 45.8461 258.406C45.8461 263.011 49.5764 266.741 54.1818 266.741V270.909C47.2757 270.909 41.6783 265.312 41.6783 258.406C41.6783 253.8 37.9481 250.07 33.3427 250.07C26.4366 250.07 20.8392 244.473 20.8392 237.566ZM73.904 233.503L91.5881 251.187L88.6414 254.134L70.9573 236.449L73.904 233.503Z" fill="#DEE7ED"/>
</g>
<g clip-path="url(#clip26_202_2452)">
<path fill-rule="evenodd" clip-rule="evenodd" d="M129.203 237.566C129.203 232.961 125.472 229.231 120.867 229.231C113.961 229.231 108.364 223.633 108.364 216.727H112.531C112.531 221.333 116.262 225.063 120.867 225.063C127.773 225.063 133.371 230.66 133.371 237.566C133.371 242.172 137.101 245.902 141.706 245.902C148.612 245.902 154.21 251.5 154.21 258.406C154.21 263.011 157.94 266.741 162.545 266.741V270.909C155.639 270.909 150.042 265.312 150.042 258.406C150.042 253.8 146.312 250.07 141.706 250.07C134.8 250.07 129.203 244.473 129.203 237.566ZM182.268 233.503L199.952 251.187L197.005 254.134L179.321 236.449L182.268 233.503Z" fill="#DEE7ED"/>
</g>
<g clip-path="url(#clip27_202_2452)">
<path fill-rule="evenodd" clip-rule="evenodd" d="M237.566 237.566C237.566 232.961 233.836 229.231 229.231 229.231C222.325 229.231 216.727 223.633 216.727 216.727H220.895C220.895 221.333 224.625 225.063 229.231 225.063C236.137 225.063 241.734 230.66 241.734 237.566C241.734 242.172 245.464 245.902 250.07 245.902C256.976 245.902 262.573 251.5 262.573 258.406C262.573 263.011 266.304 266.741 270.909 266.741V270.909C264.003 270.909 258.406 265.312 258.406 258.406C258.406 253.8 254.675 250.07 250.07 250.07C243.164 250.07 237.566 244.473 237.566 237.566ZM290.631 233.503L308.315 251.187L305.369 254.134L287.685 236.449L290.631 233.503Z" fill="#DEE7ED"/>
</g>
<g clip-path="url(#clip28_202_2452)">
<path fill-rule="evenodd" clip-rule="evenodd" d="M345.93 237.566C345.93 232.961 342.2 229.231 337.594 229.231C330.688 229.231 325.091 223.633 325.091 216.727H329.259C329.259 221.333 332.989 225.063 337.594 225.063C344.5 225.063 350.098 230.66 350.098 237.566C350.098 242.172 353.828 245.902 358.433 245.902C365.34 245.902 370.937 251.5 370.937 258.406C370.937 263.011 374.667 266.741 379.273 266.741V270.909C372.367 270.909 366.769 265.312 366.769 258.406C366.769 253.8 363.039 250.07 358.433 250.07C351.527 250.07 345.93 244.473 345.93 237.566ZM398.995 233.503L416.679 251.187L413.732 254.134L396.048 236.449L398.995 233.503Z" fill="#DEE7ED"/>
</g>
<g clip-path="url(#clip29_202_2452)">
<path fill-rule="evenodd" clip-rule="evenodd" d="M20.8392 183.385C20.8392 178.779 17.1089 175.049 12.5035 175.049C5.5974 175.049 0 169.452 0 162.545H4.16783C4.16783 167.151 7.89804 170.881 12.5035 170.881C19.4096 170.881 25.007 176.478 25.007 183.385C25.007 187.99 28.7372 191.72 33.3427 191.72C40.2488 191.72 45.8461 197.318 45.8461 204.224C45.8461 208.829 49.5764 212.559 54.1818 212.559V216.727C47.2757 216.727 41.6783 211.13 41.6783 204.224C41.6783 199.618 37.9481 195.888 33.3427 195.888C26.4366 195.888 20.8392 190.291 20.8392 183.385ZM73.904 179.321L91.5881 197.005L88.6414 199.952L70.9573 182.268L73.904 179.321Z" fill="#DEE7ED"/>
</g>
<g clip-path="url(#clip30_202_2452)">
<path fill-rule="evenodd" clip-rule="evenodd" d="M129.203 183.385C129.203 178.779 125.472 175.049 120.867 175.049C113.961 175.049 108.364 169.452 108.364 162.545H112.531C112.531 167.151 116.262 170.881 120.867 170.881C127.773 170.881 133.371 176.478 133.371 183.385C133.371 187.99 137.101 191.72 141.706 191.72C148.612 191.72 154.21 197.318 154.21 204.224C154.21 208.829 157.94 212.559 162.545 212.559V216.727C155.639 216.727 150.042 211.13 150.042 204.224C150.042 199.618 146.312 195.888 141.706 195.888C134.8 195.888 129.203 190.291 129.203 183.385ZM182.268 179.321L199.952 197.005L197.005 199.952L179.321 182.268L182.268 179.321Z" fill="#DEE7ED"/>
</g>
<g clip-path="url(#clip31_202_2452)">
<path fill-rule="evenodd" clip-rule="evenodd" d="M237.566 183.385C237.566 178.779 233.836 175.049 229.231 175.049C222.325 175.049 216.727 169.452 216.727 162.545H220.895C220.895 167.151 224.625 170.881 229.231 170.881C236.137 170.881 241.734 176.478 241.734 183.385C241.734 187.99 245.464 191.72 250.07 191.72C256.976 191.72 262.573 197.318 262.573 204.224C262.573 208.829 266.304 212.559 270.909 212.559V216.727C264.003 216.727 258.406 211.13 258.406 204.224C258.406 199.618 254.675 195.888 250.07 195.888C243.164 195.888 237.566 190.291 237.566 183.385ZM290.631 179.321L308.315 197.005L305.369 199.952L287.685 182.268L290.631 179.321Z" fill="#DEE7ED"/>
</g>
<g clip-path="url(#clip32_202_2452)">
<path fill-rule="evenodd" clip-rule="evenodd" d="M345.93 183.385C345.93 178.779 342.2 175.049 337.594 175.049C330.688 175.049 325.091 169.452 325.091 162.545H329.259C329.259 167.151 332.989 170.881 337.594 170.881C344.5 170.881 350.098 176.478 350.098 183.385C350.098 187.99 353.828 191.72 358.433 191.72C365.34 191.72 370.937 197.318 370.937 204.224C370.937 208.829 374.667 212.559 379.273 212.559V216.727C372.367 216.727 366.769 211.13 366.769 204.224C366.769 199.618 363.039 195.888 358.433 195.888C351.527 195.888 345.93 190.291 345.93 183.385ZM398.995 179.321L416.679 197.005L413.732 199.952L396.048 182.268L398.995 179.321Z" fill="#DEE7ED"/>
</g>
<g clip-path="url(#clip33_202_2452)">
<path fill-rule="evenodd" clip-rule="evenodd" d="M20.8392 129.203C20.8392 124.597 17.1089 120.867 12.5035 120.867C5.5974 120.867 0 115.27 0 108.364H4.16783C4.16783 112.969 7.89804 116.699 12.5035 116.699C19.4096 116.699 25.007 122.297 25.007 129.203C25.007 133.808 28.7372 137.538 33.3427 137.538C40.2488 137.538 45.8461 143.136 45.8461 150.042C45.8461 154.647 49.5764 158.378 54.1818 158.378V162.545C47.2757 162.545 41.6783 156.948 41.6783 150.042C41.6783 145.437 37.9481 141.706 33.3427 141.706C26.4366 141.706 20.8392 136.109 20.8392 129.203ZM73.904 125.139L91.5881 142.823L88.6414 145.77L70.9573 128.086L73.904 125.139Z" fill="#DEE7ED"/>
</g>
<g clip-path="url(#clip34_202_2452)">
<path fill-rule="evenodd" clip-rule="evenodd" d="M129.203 129.203C129.203 124.597 125.472 120.867 120.867 120.867C113.961 120.867 108.364 115.27 108.364 108.364H112.531C112.531 112.969 116.262 116.699 120.867 116.699C127.773 116.699 133.371 122.297 133.371 129.203C133.371 133.808 137.101 137.538 141.706 137.538C148.612 137.538 154.21 143.136 154.21 150.042C154.21 154.647 157.94 158.378 162.545 158.378V162.545C155.639 162.545 150.042 156.948 150.042 150.042C150.042 145.437 146.312 141.706 141.706 141.706C134.8 141.706 129.203 136.109 129.203 129.203ZM182.268 125.139L199.952 142.823L197.005 145.77L179.321 128.086L182.268 125.139Z" fill="#DEE7ED"/>
</g>
<g clip-path="url(#clip35_202_2452)">
<path fill-rule="evenodd" clip-rule="evenodd" d="M237.566 129.203C237.566 124.597 233.836 120.867 229.231 120.867C222.325 120.867 216.727 115.27 216.727 108.364H220.895C220.895 112.969 224.625 116.699 229.231 116.699C236.137 116.699 241.734 122.297 241.734 129.203C241.734 133.808 245.464 137.538 250.07 137.538C256.976 137.538 262.573 143.136 262.573 150.042C262.573 154.647 266.304 158.378 270.909 158.378V162.545C264.003 162.545 258.406 156.948 258.406 150.042C258.406 145.437 254.675 141.706 250.07 141.706C243.164 141.706 237.566 136.109 237.566 129.203ZM290.631 125.139L308.315 142.823L305.369 145.77L287.685 128.086L290.631 125.139Z" fill="#DEE7ED"/>
</g>
<g clip-path="url(#clip36_202_2452)">
<path fill-rule="evenodd" clip-rule="evenodd" d="M345.93 129.203C345.93 124.597 342.2 120.867 337.594 120.867C330.688 120.867 325.091 115.27 325.091 108.364H329.259C329.259 112.969 332.989 116.699 337.594 116.699C344.5 116.699 350.098 122.297 350.098 129.203C350.098 133.808 353.828 137.538 358.433 137.538C365.34 137.538 370.937 143.136 370.937 150.042C370.937 154.647 374.667 158.378 379.273 158.378V162.545C372.367 162.545 366.769 156.948 366.769 150.042C366.769 145.437 363.039 141.706 358.433 141.706C351.527 141.706 345.93 136.109 345.93 129.203ZM398.995 125.139L416.679 142.823L413.732 145.77L396.048 128.086L398.995 125.139Z" fill="#DEE7ED"/>
</g>
<g clip-path="url(#clip37_202_2452)">
<path fill-rule="evenodd" clip-rule="evenodd" d="M20.8392 75.0209C20.8392 70.4155 17.1089 66.6853 12.5035 66.6853C5.5974 66.6853 0 61.0879 0 54.1818H4.16783C4.16783 58.7872 7.89804 62.5174 12.5035 62.5174C19.4096 62.5174 25.007 68.1148 25.007 75.0209C25.007 79.6264 28.7372 83.3566 33.3427 83.3566C40.2488 83.3566 45.8461 88.954 45.8461 95.8601C45.8461 100.466 49.5764 104.196 54.1818 104.196V108.364C47.2757 108.364 41.6783 102.766 41.6783 95.8601C41.6783 91.2546 37.9481 87.5244 33.3427 87.5244C26.4366 87.5244 20.8392 81.927 20.8392 75.0209ZM73.904 70.9573L91.5881 88.6414L88.6414 91.5881L70.9573 73.9039L73.904 70.9573Z" fill="#DEE7ED"/>
</g>
<g clip-path="url(#clip38_202_2452)">
<path fill-rule="evenodd" clip-rule="evenodd" d="M129.203 75.0209C129.203 70.4155 125.472 66.6853 120.867 66.6853C113.961 66.6853 108.364 61.0879 108.364 54.1818H112.531C112.531 58.7872 116.262 62.5174 120.867 62.5174C127.773 62.5174 133.371 68.1148 133.371 75.0209C133.371 79.6264 137.101 83.3566 141.706 83.3566C148.612 83.3566 154.21 88.954 154.21 95.8601C154.21 100.466 157.94 104.196 162.545 104.196V108.364C155.639 108.364 150.042 102.766 150.042 95.8601C150.042 91.2546 146.312 87.5244 141.706 87.5244C134.8 87.5244 129.203 81.927 129.203 75.0209ZM182.268 70.9573L199.952 88.6414L197.005 91.5881L179.321 73.9039L182.268 70.9573Z" fill="#DEE7ED"/>
</g>
<g clip-path="url(#clip39_202_2452)">
<path fill-rule="evenodd" clip-rule="evenodd" d="M237.566 75.0209C237.566 70.4155 233.836 66.6853 229.231 66.6853C222.325 66.6853 216.727 61.0879 216.727 54.1818H220.895C220.895 58.7872 224.625 62.5174 229.231 62.5174C236.137 62.5174 241.734 68.1148 241.734 75.0209C241.734 79.6264 245.464 83.3566 250.07 83.3566C256.976 83.3566 262.573 88.954 262.573 95.8601C262.573 100.466 266.304 104.196 270.909 104.196V108.364C264.003 108.364 258.406 102.766 258.406 95.8601C258.406 91.2546 254.675 87.5244 250.07 87.5244C243.164 87.5244 237.566 81.927 237.566 75.0209ZM290.631 70.9573L308.315 88.6414L305.369 91.5881L287.685 73.9039L290.631 70.9573Z" fill="#DEE7ED"/>
</g>
<g clip-path="url(#clip40_202_2452)">
<path fill-rule="evenodd" clip-rule="evenodd" d="M345.93 75.0209C345.93 70.4155 342.2 66.6853 337.594 66.6853C330.688 66.6853 325.091 61.0879 325.091 54.1818H329.259C329.259 58.7872 332.989 62.5174 337.594 62.5174C344.5 62.5174 350.098 68.1148 350.098 75.0209C350.098 79.6264 353.828 83.3566 358.433 83.3566C365.34 83.3566 370.937 88.954 370.937 95.8601C370.937 100.466 374.667 104.196 379.273 104.196V108.364C372.367 108.364 366.769 102.766 366.769 95.8601C366.769 91.2546 363.039 87.5244 358.433 87.5244C351.527 87.5244 345.93 81.927 345.93 75.0209ZM398.995 70.9573L416.679 88.6414L413.732 91.5881L396.048 73.9039L398.995 70.9573Z" fill="#DEE7ED"/>
</g>
<g clip-path="url(#clip41_202_2452)">
<path fill-rule="evenodd" clip-rule="evenodd" d="M20.8392 20.8392C20.8392 16.2337 17.1089 12.5035 12.5035 12.5035C5.5974 12.5035 0 6.9061 0 0H4.16783C4.16783 4.60545 7.89804 8.33566 12.5035 8.33566C19.4096 8.33566 25.007 13.9331 25.007 20.8392C25.007 25.4446 28.7372 29.1748 33.3427 29.1748C40.2488 29.1748 45.8461 34.7722 45.8461 41.6783C45.8461 46.2838 49.5764 50.014 54.1818 50.014V54.1818C47.2757 54.1818 41.6783 48.5844 41.6783 41.6783C41.6783 37.0729 37.9481 33.3427 33.3427 33.3427C26.4366 33.3427 20.8392 27.7453 20.8392 20.8392ZM73.904 16.7755L91.5881 34.4596L88.6414 37.4063L70.9573 19.7222L73.904 16.7755Z" fill="#DEE7ED"/>
</g>
<g clip-path="url(#clip42_202_2452)">
<path fill-rule="evenodd" clip-rule="evenodd" d="M129.203 20.8392C129.203 16.2337 125.472 12.5035 120.867 12.5035C113.961 12.5035 108.364 6.9061 108.364 0H112.531C112.531 4.60545 116.262 8.33566 120.867 8.33566C127.773 8.33566 133.371 13.9331 133.371 20.8392C133.371 25.4446 137.101 29.1748 141.706 29.1748C148.612 29.1748 154.21 34.7722 154.21 41.6783C154.21 46.2838 157.94 50.014 162.545 50.014V54.1818C155.639 54.1818 150.042 48.5844 150.042 41.6783C150.042 37.0729 146.312 33.3427 141.706 33.3427C134.8 33.3427 129.203 27.7453 129.203 20.8392ZM182.268 16.7755L199.952 34.4596L197.005 37.4063L179.321 19.7222L182.268 16.7755Z" fill="#DEE7ED"/>
</g>
<g clip-path="url(#clip43_202_2452)">
<path fill-rule="evenodd" clip-rule="evenodd" d="M237.566 20.8392C237.566 16.2337 233.836 12.5035 229.231 12.5035C222.325 12.5035 216.727 6.9061 216.727 0H220.895C220.895 4.60545 224.625 8.33566 229.231 8.33566C236.137 8.33566 241.734 13.9331 241.734 20.8392C241.734 25.4446 245.464 29.1748 250.07 29.1748C256.976 29.1748 262.573 34.7722 262.573 41.6783C262.573 46.2838 266.304 50.014 270.909 50.014V54.1818C264.003 54.1818 258.406 48.5844 258.406 41.6783C258.406 37.0729 254.675 33.3427 250.07 33.3427C243.164 33.3427 237.566 27.7453 237.566 20.8392ZM290.631 16.7755L308.315 34.4596L305.369 37.4063L287.685 19.7222L290.631 16.7755Z" fill="#DEE7ED"/>
</g>
<g clip-path="url(#clip44_202_2452)">
<path fill-rule="evenodd" clip-rule="evenodd" d="M345.93 20.8392C345.93 16.2337 342.2 12.5035 337.594 12.5035C330.688 12.5035 325.091 6.9061 325.091 0H329.259C329.259 4.60545 332.989 8.33566 337.594 8.33566C344.5 8.33566 350.098 13.9331 350.098 20.8392C350.098 25.4446 353.828 29.1748 358.433 29.1748C365.34 29.1748 370.937 34.7722 370.937 41.6783C370.937 46.2838 374.667 50.014 379.273 50.014V54.1818C372.367 54.1818 366.769 48.5844 366.769 41.6783C366.769 37.0729 363.039 33.3427 358.433 33.3427C351.527 33.3427 345.93 27.7453 345.93 20.8392ZM398.995 16.7755L416.679 34.4596L413.732 37.4063L396.048 19.7222L398.995 16.7755Z" fill="#DEE7ED"/>
</g>
</g>
<defs>
<clipPath id="clip0_202_2452">
<rect width="375" height="596" fill="white"/>
</clipPath>
<clipPath id="clip1_202_2452">
<rect width="108.364" height="54.1818" fill="white" transform="translate(0 541.818)"/>
</clipPath>
<clipPath id="clip2_202_2452">
<rect width="108.364" height="54.1818" fill="white" transform="translate(108.364 541.818)"/>
</clipPath>
<clipPath id="clip3_202_2452">
<rect width="108.364" height="54.1818" fill="white" transform="translate(216.727 541.818)"/>
</clipPath>
<clipPath id="clip4_202_2452">
<rect width="108.364" height="54.1818" fill="white" transform="translate(325.091 541.818)"/>
</clipPath>
<clipPath id="clip5_202_2452">
<rect width="108.364" height="54.1818" fill="white" transform="translate(0 487.636)"/>
</clipPath>
<clipPath id="clip6_202_2452">
<rect width="108.364" height="54.1818" fill="white" transform="translate(108.364 487.636)"/>
</clipPath>
<clipPath id="clip7_202_2452">
<rect width="108.364" height="54.1818" fill="white" transform="translate(216.727 487.636)"/>
</clipPath>
<clipPath id="clip8_202_2452">
<rect width="108.364" height="54.1818" fill="white" transform="translate(325.091 487.636)"/>
</clipPath>
<clipPath id="clip9_202_2452">
<rect width="108.364" height="54.1818" fill="white" transform="translate(0 433.455)"/>
</clipPath>
<clipPath id="clip10_202_2452">
<rect width="108.364" height="54.1818" fill="white" transform="translate(108.364 433.455)"/>
</clipPath>
<clipPath id="clip11_202_2452">
<rect width="108.364" height="54.1818" fill="white" transform="translate(216.727 433.455)"/>
</clipPath>
<clipPath id="clip12_202_2452">
<rect width="108.364" height="54.1818" fill="white" transform="translate(325.091 433.455)"/>
</clipPath>
<clipPath id="clip13_202_2452">
<rect width="108.364" height="54.1818" fill="white" transform="translate(0 379.273)"/>
</clipPath>
<clipPath id="clip14_202_2452">
<rect width="108.364" height="54.1818" fill="white" transform="translate(108.364 379.273)"/>
</clipPath>
<clipPath id="clip15_202_2452">
<rect width="108.364" height="54.1818" fill="white" transform="translate(216.727 379.273)"/>
</clipPath>
<clipPath id="clip16_202_2452">
<rect width="108.364" height="54.1818" fill="white" transform="translate(325.091 379.273)"/>
</clipPath>
<clipPath id="clip17_202_2452">
<rect width="108.364" height="54.1818" fill="white" transform="translate(0 325.091)"/>
</clipPath>
<clipPath id="clip18_202_2452">
<rect width="108.364" height="54.1818" fill="white" transform="translate(108.364 325.091)"/>
</clipPath>
<clipPath id="clip19_202_2452">
<rect width="108.364" height="54.1818" fill="white" transform="translate(216.727 325.091)"/>
</clipPath>
<clipPath id="clip20_202_2452">
<rect width="108.364" height="54.1818" fill="white" transform="translate(325.091 325.091)"/>
</clipPath>
<clipPath id="clip21_202_2452">
<rect width="108.364" height="54.1818" fill="white" transform="translate(0 270.909)"/>
</clipPath>
<clipPath id="clip22_202_2452">
<rect width="108.364" height="54.1818" fill="white" transform="translate(108.364 270.909)"/>
</clipPath>
<clipPath id="clip23_202_2452">
<rect width="108.364" height="54.1818" fill="white" transform="translate(216.727 270.909)"/>
</clipPath>
<clipPath id="clip24_202_2452">
<rect width="108.364" height="54.1818" fill="white" transform="translate(325.091 270.909)"/>
</clipPath>
<clipPath id="clip25_202_2452">
<rect width="108.364" height="54.1818" fill="white" transform="translate(0 216.727)"/>
</clipPath>
<clipPath id="clip26_202_2452">
<rect width="108.364" height="54.1818" fill="white" transform="translate(108.364 216.727)"/>
</clipPath>
<clipPath id="clip27_202_2452">
<rect width="108.364" height="54.1818" fill="white" transform="translate(216.727 216.727)"/>
</clipPath>
<clipPath id="clip28_202_2452">
<rect width="108.364" height="54.1818" fill="white" transform="translate(325.091 216.727)"/>
</clipPath>
<clipPath id="clip29_202_2452">
<rect width="108.364" height="54.1818" fill="white" transform="translate(0 162.545)"/>
</clipPath>
<clipPath id="clip30_202_2452">
<rect width="108.364" height="54.1818" fill="white" transform="translate(108.364 162.545)"/>
</clipPath>
<clipPath id="clip31_202_2452">
<rect width="108.364" height="54.1818" fill="white" transform="translate(216.727 162.545)"/>
</clipPath>
<clipPath id="clip32_202_2452">
<rect width="108.364" height="54.1818" fill="white" transform="translate(325.091 162.545)"/>
</clipPath>
<clipPath id="clip33_202_2452">
<rect width="108.364" height="54.1818" fill="white" transform="translate(0 108.364)"/>
</clipPath>
<clipPath id="clip34_202_2452">
<rect width="108.364" height="54.1818" fill="white" transform="translate(108.364 108.364)"/>
</clipPath>
<clipPath id="clip35_202_2452">
<rect width="108.364" height="54.1818" fill="white" transform="translate(216.727 108.364)"/>
</clipPath>
<clipPath id="clip36_202_2452">
<rect width="108.364" height="54.1818" fill="white" transform="translate(325.091 108.364)"/>
</clipPath>
<clipPath id="clip37_202_2452">
<rect width="108.364" height="54.1818" fill="white" transform="translate(0 54.1818)"/>
</clipPath>
<clipPath id="clip38_202_2452">
<rect width="108.364" height="54.1818" fill="white" transform="translate(108.364 54.1818)"/>
</clipPath>
<clipPath id="clip39_202_2452">
<rect width="108.364" height="54.1818" fill="white" transform="translate(216.727 54.1818)"/>
</clipPath>
<clipPath id="clip40_202_2452">
<rect width="108.364" height="54.1818" fill="white" transform="translate(325.091 54.1818)"/>
</clipPath>
<clipPath id="clip41_202_2452">
<rect width="108.364" height="54.1818" fill="white"/>
</clipPath>
<clipPath id="clip42_202_2452">
<rect width="108.364" height="54.1818" fill="white" transform="translate(108.364)"/>
</clipPath>
<clipPath id="clip43_202_2452">
<rect width="108.364" height="54.1818" fill="white" transform="translate(216.727)"/>
</clipPath>
<clipPath id="clip44_202_2452">
<rect width="108.364" height="54.1818" fill="white" transform="translate(325.091)"/>
</clipPath>
</defs>
</svg>
