<svg width="36" height="36" viewBox="0 0 36 36" fill="none" xmlns="http://www.w3.org/2000/svg">
<g clip-path="url(#clip0_223_6671)">
<rect width="36" height="36" fill="#FFF1CD"/>
<g clip-path="url(#clip1_223_6671)">
<path d="M18 39.4457H0V31.5617C0 31.5617 3.9238 30.9146 6.624 29.79L8.64688 28.595C9.47162 27.9776 10.1669 27.3744 11.286 27.036C12.8466 26.5642 14.976 27.036 14.976 27.036L18 27.036V39.4457Z" fill="#5F6265"/>
<path d="M11.286 27.036C12.8466 26.5642 14.976 27.036 14.976 27.036L18 27.036V39.4457H0V31.5617C0 31.5617 3.9238 30.9146 6.624 29.79M11.286 27.036C9.40987 27.6033 8.72473 28.9151 6.624 29.79M11.286 27.036L6.624 29.79" stroke="#5F6265" stroke-width="0.9" stroke-linecap="round" stroke-linejoin="round"/>
<path d="M12.4199 27.8928V20.592L15.0839 23.8212L14.1061 29.952L12.4199 27.8928Z" fill="#FFB703" stroke="#FFB703" stroke-width="0.9" stroke-linecap="round" stroke-linejoin="round"/>
<path d="M13.896 29.124C14.226 29.7445 15.282 30.24 18 30.6V24.0852C15.12 24.0852 14.226 23.3725 13.896 22.752V29.124Z" fill="#F4D06F" stroke="#F4D06F" stroke-width="0.9" stroke-linecap="round" stroke-linejoin="round"/>
<path d="M17.1719 40.284C12.3839 38.142 11.0313 28.944 11.4633 26.244C11.4633 26.244 12.2939 29.7 17.5319 30.852H21.5639V40.284H17.1719Z" fill="white"/>
<path d="M11.4633 26.244C11.0313 28.944 12.3839 38.142 17.1719 40.284H21.5639V30.852H16.5419M11.4633 26.244L7.79389 28.098L7.12644 29.5071L2.28589 30.852M11.4633 26.244C11.4633 26.244 12.2939 29.7 17.5319 30.852" stroke="#1D1D1D" stroke-width="0.9" stroke-linecap="round" stroke-linejoin="round"/>
<path d="M11.7017 30.69C11.7017 30.69 13.4461 33.768 14.7781 33.768C15.0121 31.626 15.9121 30.852 15.9121 30.852C15.9121 30.852 16.9381 30.852 17.5321 30.852H16.5421V35.928" stroke="#1D1D1D" stroke-width="0.9" stroke-linecap="round" stroke-linejoin="round"/>
<path d="M8.0101 28.098L5.2561 33.912L9.9901 34.614L5.7781 35.928L6.8401 40.284" stroke="#1D1D1D" stroke-width="0.9" stroke-linecap="round" stroke-linejoin="round"/>
<path d="M12.7539 30.6494L15.9889 32.2519V32.148C15.9889 31.9094 16.1824 31.716 16.4209 31.716H18.486C18.7246 31.716 18.918 31.9094 18.918 32.148V34.56C18.918 34.7986 18.7246 34.992 18.486 34.992H16.4209C16.1824 34.992 15.9889 34.7986 15.9889 34.56V34.1918L12.6844 35.2012C12.3133 35.3146 11.9094 35.1939 11.7314 34.8491C11.5052 34.411 11.25 33.7233 11.25 32.85C11.25 32.0453 11.4667 31.3981 11.6777 30.9587C11.871 30.5562 12.3538 30.4512 12.7539 30.6494Z" fill="#FFB703"/>
<path d="M15.9889 32.2519L12.7539 30.6494C12.3538 30.4512 11.871 30.5562 11.6777 30.9587C11.4667 31.3981 11.25 32.0453 11.25 32.85C11.25 33.7233 11.5052 34.411 11.7314 34.8491C11.9094 35.1939 12.3133 35.3146 12.6844 35.2012L15.9889 34.1918M15.9889 32.2519V32.148C15.9889 31.9094 16.1824 31.716 16.4209 31.716H18.486C18.7246 31.716 18.918 31.9094 18.918 32.148V34.56C18.918 34.7986 18.7246 34.992 18.486 34.992H16.4209C16.1824 34.992 15.9889 34.7986 15.9889 34.56V34.1918M15.9889 32.2519V33.2218M15.9889 34.1918V33.2218M15.9889 33.2218H14.0928" stroke="#1D1D1D" stroke-width="0.9" stroke-linecap="round" stroke-linejoin="round"/>
</g>
<g clip-path="url(#clip2_223_6671)">
<path d="M18 39.4457H36V31.5617C36 31.5617 32.0762 30.9146 29.376 29.79L27.3531 28.595C26.5284 27.9776 25.8331 27.3744 24.714 27.036C23.1534 26.5642 21.024 27.036 21.024 27.036L18 27.036V39.4457Z" fill="#5F6265"/>
<path d="M24.714 27.036C23.1534 26.5642 21.024 27.036 21.024 27.036L18 27.036V39.4457H36V31.5617C36 31.5617 32.0762 30.9146 29.376 29.79M24.714 27.036C26.5901 27.6033 27.2753 28.9151 29.376 29.79M24.714 27.036L29.376 29.79" stroke="#5F6265" stroke-width="0.9" stroke-linecap="round" stroke-linejoin="round"/>
<path d="M23.5801 27.8928V20.592L20.9161 23.8212L21.8939 29.952L23.5801 27.8928Z" fill="#FFB703" stroke="#FFB703" stroke-width="0.9" stroke-linecap="round" stroke-linejoin="round"/>
<path d="M22.104 29.124C21.774 29.7445 20.718 30.24 18 30.6V24.0852C20.88 24.0852 21.774 23.3725 22.104 22.752V29.124Z" fill="#F4D06F" stroke="#F4D06F" stroke-width="0.9" stroke-linecap="round" stroke-linejoin="round"/>
<path d="M18.8281 40.284C23.6161 38.142 24.9687 28.944 24.5367 26.244C24.5367 26.244 23.7061 29.7 18.4681 30.852H14.4361V40.284H18.8281Z" fill="white"/>
<path d="M24.5367 26.244C24.9687 28.944 23.6161 38.142 18.8281 40.284H14.4361V30.852H19.4581M24.5367 26.244L28.2061 28.098L28.8736 29.5071L33.7141 30.852M24.5367 26.244C24.5367 26.244 23.7061 29.7 18.4681 30.852" stroke="#1D1D1D" stroke-width="0.9" stroke-linecap="round" stroke-linejoin="round"/>
<path d="M24.2983 30.69C24.2983 30.69 22.5539 33.768 21.2219 33.768C20.9879 31.626 20.0879 30.852 20.0879 30.852C20.0879 30.852 19.0619 30.852 18.4679 30.852H19.4579V35.928" stroke="#1D1D1D" stroke-width="0.9" stroke-linecap="round" stroke-linejoin="round"/>
<path d="M27.9899 28.098L30.7439 33.912L26.0099 34.614L30.2219 35.928L29.1599 40.284" stroke="#1D1D1D" stroke-width="0.9" stroke-linecap="round" stroke-linejoin="round"/>
<path d="M23.2461 30.6494L20.0111 32.2519V32.148C20.0111 31.9094 19.8176 31.716 19.5791 31.716H17.514C17.2754 31.716 17.082 31.9094 17.082 32.148V34.56C17.082 34.7986 17.2754 34.992 17.514 34.992H19.5791C19.8176 34.992 20.0111 34.7986 20.0111 34.56V34.1918L23.3156 35.2012C23.6867 35.3146 24.0906 35.1939 24.2686 34.8491C24.4948 34.411 24.75 33.7233 24.75 32.85C24.75 32.0453 24.5333 31.3981 24.3223 30.9587C24.129 30.5562 23.6462 30.4512 23.2461 30.6494Z" fill="#FFB703"/>
<path d="M20.0111 32.2519L23.2461 30.6494C23.6462 30.4512 24.129 30.5562 24.3223 30.9587C24.5333 31.3981 24.75 32.0453 24.75 32.85C24.75 33.7233 24.4948 34.411 24.2686 34.8491C24.0906 35.1939 23.6867 35.3146 23.3156 35.2012L20.0111 34.1918M20.0111 32.2519V32.148C20.0111 31.9094 19.8176 31.716 19.5791 31.716H17.514C17.2754 31.716 17.082 31.9094 17.082 32.148V34.56C17.082 34.7986 17.2754 34.992 17.514 34.992H19.5791C19.8176 34.992 20.0111 34.7986 20.0111 34.56V34.1918M20.0111 32.2519V33.2218M20.0111 34.1918V33.2218M20.0111 33.2218H21.9072" stroke="#1D1D1D" stroke-width="0.9" stroke-linecap="round" stroke-linejoin="round"/>
</g>
<g clip-path="url(#clip3_223_6671)">
<path d="M26.0712 9.504C27.6237 14.4868 26.4839 26.424 19.1358 26.424C14.1441 26.424 11.6888 25.3164 10.6274 24.606C10.1245 24.2695 9.77331 23.7675 9.50567 23.2248C9.2147 22.6347 8.82762 21.7513 8.5131 20.6875H6.80389C5.55131 20.6875 4.53589 19.6721 4.53589 18.4195V18.1213C4.53589 16.8687 5.55131 15.8533 6.80389 15.8533H8.02681C8.52953 11.773 11.7506 9.504 19.1358 9.504H26.0712Z" fill="#FFE29A"/>
<path d="M7.94109 17.0561C7.94109 18.3762 8.18226 19.629 8.49589 20.7H6.80389C5.55131 20.7 4.53589 19.6846 4.53589 18.432V18.108C4.53589 16.8554 5.55131 15.84 6.80389 15.84H8.0117C7.96421 16.2291 7.94109 16.6346 7.94109 17.0561Z" fill="#FFB703"/>
<path d="M18.0181 26.442C12.0421 26.442 9.09372 24.1016 8.29312 20.7386H6.95785C5.5806 20.7386 4.46411 19.6221 4.46411 18.2449V18.2449C4.46411 16.8676 5.5806 15.7511 6.95786 15.7511H8.02502M7.96787 18.2364H6.46374" stroke="#1D1D1D" stroke-width="0.9" stroke-linecap="round" stroke-linejoin="round"/>
</g>
<g clip-path="url(#clip4_223_6671)">
<path d="M9.92879 9.504C8.37626 14.4868 9.5161 26.424 16.8642 26.424C21.8559 26.424 24.3112 25.3164 25.3726 24.606C25.8755 24.2695 26.2267 23.7675 26.4943 23.2248C26.7853 22.6347 27.1724 21.7513 27.4869 20.6875H29.1961C30.4487 20.6875 31.4641 19.6721 31.4641 18.4195V18.1213C31.4641 16.8687 30.4487 15.8533 29.1961 15.8533H27.9732C27.4705 11.773 24.2494 9.504 16.8642 9.504H9.92879Z" fill="#FFE29A"/>
<path d="M28.0589 17.0561C28.0589 18.3762 27.8177 19.629 27.5041 20.7H29.1961C30.4487 20.7 31.4641 19.6846 31.4641 18.432V18.108C31.4641 16.8554 30.4487 15.84 29.1961 15.84H27.9883C28.0358 16.2291 28.0589 16.6346 28.0589 17.0561Z" fill="#FFB703"/>
<path d="M17.9819 26.442C23.9579 26.442 26.9063 24.1016 27.7069 20.7386H29.0421C30.4194 20.7386 31.5359 19.6221 31.5359 18.2449V18.2449C31.5359 16.8676 30.4194 15.7511 29.0421 15.7511H27.975M28.0321 18.2364H29.5363" stroke="#1D1D1D" stroke-width="0.9" stroke-linecap="round" stroke-linejoin="round"/>
</g>
<g clip-path="url(#clip5_223_6671)">
<path fill-rule="evenodd" clip-rule="evenodd" d="M15.876 16.02C15.876 15.5428 16.2628 15.156 16.74 15.156C17.2172 15.156 17.604 15.5428 17.604 16.02C17.604 16.4972 17.2172 16.884 16.74 16.884C16.2628 16.884 15.876 16.4972 15.876 16.02Z" fill="#1D1D1D"/>
</g>
<g clip-path="url(#clip6_223_6671)">
<path fill-rule="evenodd" clip-rule="evenodd" d="M20.124 16.02C20.124 15.5428 19.7372 15.156 19.26 15.156C18.7828 15.156 18.396 15.5428 18.396 16.02C18.396 16.4972 18.7828 16.884 19.26 16.884C19.7372 16.884 20.124 16.4972 20.124 16.02Z" fill="#1D1D1D"/>
</g>
<g clip-path="url(#clip7_223_6671)">
<g clip-path="url(#clip8_223_6671)">
<path d="M18.0001 20.4172C17.3337 20.4172 16.7077 20.253 16.1641 19.9648" stroke="#1D1D1D" stroke-width="0.9" stroke-linecap="round"/>
</g>
<g clip-path="url(#clip9_223_6671)">
<path d="M17.9999 20.4172C18.6663 20.4172 19.2923 20.253 19.8359 19.9648" stroke="#1D1D1D" stroke-width="0.9" stroke-linecap="round"/>
</g>
</g>
<g clip-path="url(#clip10_223_6671)">
<path d="M11.5734 10.2232C12.0155 8.45591 13.4933 7.92827 13.9148 8.12437C14.8681 6.80401 16.5061 5.92201 18.0001 6.91201H22.3381V9.68401L18.0001 10.548C15.9009 9.87049 14.3294 9.95371 13.219 10.7276C12.5455 11.197 11.3741 11.0196 11.5734 10.2232Z" fill="#FFB703"/>
<path d="M14.5981 8.37755C14.2561 8.17201 13.9146 8.12476 13.9148 8.12437M13.9148 8.12437C13.4933 7.92827 12.0155 8.45591 11.5734 10.2232C11.3741 11.0196 12.5455 11.197 13.219 10.7276C14.3294 9.95371 15.9009 9.87049 18.0001 10.548L22.3381 9.68401V6.91201H18.0001C16.5061 5.92201 14.8681 6.80401 13.9148 8.12437Z" stroke="#1D1D1D" stroke-width="0.9" stroke-linecap="round" stroke-linejoin="round"/>
</g>
<g clip-path="url(#clip11_223_6671)">
<path d="M24.4266 10.2232C23.9845 8.45591 22.5067 7.92827 22.0852 8.12437C21.1319 6.80401 19.4939 5.92201 17.9999 6.91201H13.6619V9.68401L17.9999 10.548C20.0991 9.87049 21.6706 9.95371 22.781 10.7276C23.4545 11.197 24.6259 11.0196 24.4266 10.2232Z" fill="#FFB703"/>
<path d="M21.4019 8.37755C21.7439 8.17201 22.0854 8.12476 22.0852 8.12437M22.0852 8.12437C22.5067 7.92827 23.9845 8.45591 24.4266 10.2232C24.6259 11.0196 23.4545 11.197 22.781 10.7276C21.6706 9.95371 20.0991 9.87049 17.9999 10.548L13.6619 9.68401V6.91201H17.9999C19.4939 5.92201 21.1319 6.80401 22.0852 8.12437Z" stroke="#1D1D1D" stroke-width="0.9" stroke-linecap="round" stroke-linejoin="round"/>
</g>
</g>
<defs>
<clipPath id="clip0_223_6671">
<rect width="36" height="36" fill="white"/>
</clipPath>
<clipPath id="clip1_223_6671">
<rect width="18" height="36" fill="white"/>
</clipPath>
<clipPath id="clip2_223_6671">
<rect width="18" height="36" fill="white" transform="matrix(-1 0 0 1 36 0)"/>
</clipPath>
<clipPath id="clip3_223_6671">
<rect width="18" height="36" fill="white"/>
</clipPath>
<clipPath id="clip4_223_6671">
<rect width="18" height="36" fill="white" transform="matrix(-1 0 0 1 36 0)"/>
</clipPath>
<clipPath id="clip5_223_6671">
<rect width="18" height="36" fill="white"/>
</clipPath>
<clipPath id="clip6_223_6671">
<rect width="18" height="36" fill="white" transform="matrix(-1 0 0 1 36 0)"/>
</clipPath>
<clipPath id="clip7_223_6671">
<rect width="36" height="36" fill="white"/>
</clipPath>
<clipPath id="clip8_223_6671">
<rect width="18" height="36" fill="white"/>
</clipPath>
<clipPath id="clip9_223_6671">
<rect width="18" height="36" fill="white" transform="matrix(-1 0 0 1 36 0)"/>
</clipPath>
<clipPath id="clip10_223_6671">
<rect width="18" height="36" fill="white"/>
</clipPath>
<clipPath id="clip11_223_6671">
<rect width="18" height="36" fill="white" transform="matrix(-1 0 0 1 36 0)"/>
</clipPath>
</defs>
</svg>
