<svg width="32" height="32" viewBox="0 0 32 32" fill="none" xmlns="http://www.w3.org/2000/svg">
<g clip-path="url(#clip0_450_12883)">
<path d="M6.26672 30.3284C7.02303 30.7069 8.00103 30.672 8.83335 30.5885C9.77703 30.5336 10.7313 30.4817 11.6677 30.4139C14.0962 30.2425 16.5947 30.0095 19.031 29.714C19.6696 30.0842 20.5172 29.9538 21.0488 29.4472C23.4786 29.1055 25.9763 28.6611 28.2728 28.1364C29.0418 27.9447 29.6517 27.8202 30.4828 27.203L30.4827 27.2029C31.5717 26.3829 31.689 24.8055 31.7597 23.5999C32.1651 18.7624 32.3304 19.0816 29.9584 14.86C29.9732 14.5279 29.8635 14.0742 29.2985 13.7065C28.9665 13.1375 28.6245 12.5718 28.2803 12.019C26.9702 10.1603 26.1242 7.9721 23.9272 6.9886C23.6988 4.8531 21.5883 3.00504 19.4475 3.6556C17.4285 -0.222021 13.24 1.18304 12.4153 5.0711C9.71266 3.4756 6.49153 4.84229 6.1536 8.09004C4.3781 8.32035 2.12191 8.44129 1.33097 10.5912C0.466158 12.052 0.306845 13.879 0.16572 15.497C-0.0793422 17.3956 -0.12803 18.891 0.552595 20.8532C0.99797 21.9007 0.903408 23.0574 1.55353 24.0168C1.73778 24.2987 2.09078 24.6042 2.22147 24.9725C3.33691 26.8672 4.15528 29.3897 6.26672 30.3284Z" fill="white"/>
<path d="M3.18782 10.281C1.41588 11.7168 1.53975 14.8164 1.26357 16.9017C0.996378 18.9189 1.87182 20.9301 2.57307 22.7923C3.10207 24.1972 3.97438 25.5183 4.64894 26.8806C5.12125 27.8346 5.803 28.7488 6.79013 29.2108C7.46925 29.5287 8.22113 29.3827 8.94882 29.3444C9.82682 29.2983 10.7044 29.2445 11.5814 29.183C13.3772 29.057 15.1708 28.8988 16.9609 28.7084C20.6676 28.3141 24.3619 27.7648 27.9975 26.9335C28.6111 26.7932 29.2181 26.6263 29.7214 26.2318C30.4827 25.6351 30.4478 24.3533 30.5315 23.4816C30.6606 22.1375 30.7373 20.7883 30.7614 19.4382" fill="#651C56"/>
<path d="M27.9975 26.9337C28.6112 26.7934 29.2181 26.6265 29.7214 26.232C30.0664 25.9615 30.2471 25.55 30.3502 25.1C27.0183 24.8454 23.6256 25.7134 20.3231 26.4359C16.4065 27.2929 12.1696 27.9195 8.5056 26.292C6.09154 25.2198 4.15541 23.2358 2.82191 20.9556C2.16285 19.8285 1.64229 18.6305 1.22279 17.394C1.14016 19.2453 1.92885 21.0818 2.57297 22.7924C3.10197 24.1973 3.97429 25.5184 4.64885 26.8807C5.12116 27.8347 5.80291 28.7489 6.7901 29.2109C6.90491 29.2647 7.02179 29.3052 7.14029 29.3351C7.72272 29.4825 8.34416 29.3763 8.94879 29.3445C9.82679 29.2984 10.7043 29.2446 11.5813 29.183C13.3772 29.0571 15.1707 28.8989 16.9608 28.7084C20.6677 28.3143 24.362 27.7649 27.9975 26.9337Z" fill="#56134A"/>
<path d="M8.52244 27.9907C7.77175 27.9907 7.16212 28.5888 7.14062 29.3343C7.72306 29.4817 8.34425 29.3763 8.94887 29.3447C9.26662 29.328 9.58431 29.3091 9.902 29.2904C9.85825 28.5655 9.25831 27.9907 8.52244 27.9907Z" fill="#CE3280"/>
<path d="M16.024 27.7375C15.3233 27.7375 14.7457 28.2589 14.6543 28.9346C15.4237 28.8647 16.1927 28.7902 16.9609 28.7085C17.084 28.6954 17.207 28.6807 17.3301 28.6672C17.1419 28.1264 16.629 27.7375 16.024 27.7375Z" fill="#CE3280"/>
<path d="M24.4693 25.4077C23.7049 25.4077 23.0854 26.0273 23.0854 26.7915C23.0854 27.1971 23.261 27.5608 23.539 27.8139C24.2618 27.6914 24.9828 27.5593 25.7021 27.418C25.7979 27.2298 25.8531 27.0173 25.8531 26.7915C25.8531 26.0273 25.2336 25.4077 24.4693 25.4077Z" fill="#28AF8A"/>
<path d="M28.5596 25.4483C29.3141 25.3262 29.8267 24.6156 29.7046 23.8611C29.5824 23.1066 28.8718 22.594 28.1173 22.7161C27.3628 22.8383 26.8502 23.5489 26.9724 24.3034C27.0945 25.0578 27.8051 25.5705 28.5596 25.4483Z" fill="#FE5897"/>
<path d="M2.59842 22.6533C2.57254 22.6533 2.54729 22.6558 2.52173 22.6572C2.53879 22.7022 2.55617 22.7476 2.5731 22.7924C2.85273 23.535 3.2286 24.254 3.62017 24.9682C3.84442 24.7223 3.98229 24.3963 3.98229 24.0372C3.98223 23.2729 3.36267 22.6533 2.59842 22.6533Z" fill="#CE3280"/>
<path d="M2.91155 16.7015C2.91155 15.9372 2.29199 15.3176 1.52774 15.3176C1.49124 15.3176 1.45543 15.3203 1.41961 15.3231C1.37005 15.8814 1.32749 16.4189 1.26349 16.9018C1.21268 17.2855 1.20361 17.6691 1.22643 18.0514C1.32349 18.073 1.42411 18.0853 1.52768 18.0853C2.29199 18.0853 2.91155 17.4658 2.91155 16.7015Z" fill="#FE5897"/>
<path d="M27.4355 25.1316C27.6777 25.3396 27.9919 25.466 28.3361 25.466C28.7204 25.466 29.0679 25.3091 29.3187 25.0562C28.6922 25.0493 28.0642 25.0771 27.4355 25.1316Z" fill="#CE3280"/>
<path d="M23.0854 26.7915C23.0854 27.1971 23.261 27.5608 23.539 27.8139C24.2618 27.6914 24.9828 27.5593 25.7021 27.418C25.7979 27.2298 25.8531 27.0173 25.8531 26.7915C25.8531 26.1759 25.4508 25.6548 24.895 25.4751C24.4589 25.5519 24.0231 25.636 23.588 25.7247C23.2811 25.9785 23.0854 26.3621 23.0854 26.7915Z" fill="#208968"/>
<path d="M1.4706 18.0836C1.38472 17.855 1.30141 17.6255 1.22291 17.394C1.2131 17.6136 1.21591 17.8329 1.22897 18.0519C1.30728 18.0691 1.38797 18.08 1.4706 18.0836Z" fill="#CE3280"/>
<path d="M12.7573 26.6861C13.5216 26.6861 14.1412 26.0665 14.1412 25.3023C14.1412 24.538 13.5216 23.9185 12.7573 23.9185C11.9931 23.9185 11.3735 24.538 11.3735 25.3023C11.3735 26.0665 11.9931 26.6861 12.7573 26.6861Z" fill="#28AF8A"/>
<path d="M9.61231 24.1798C13.0756 23.7038 16.5388 23.2279 20.0021 22.7519C21.7652 22.5096 23.5282 22.2673 25.2914 22.0251C26.5612 21.8506 28.2479 21.7543 29.4325 21.2838C30.1334 21.0054 30.7494 20.3745 30.7747 19.6207C30.7905 19.1481 30.5795 18.7008 30.3689 18.2774C29.4151 16.3602 28.3692 14.4889 27.2362 12.6718C26.8765 12.3511 26.4359 11.9532 26.2044 11.5971C25.9604 11.2219 25.9534 10.9462 25.8086 10.4788C25.6986 10.3167 25.5878 10.1551 25.4763 9.99407C24.5762 8.6935 23.6727 7.80925 22.0701 7.95213C21.5061 8.00244 20.9401 8.03932 20.3733 8.07007C19.9977 8.09044 19.6216 8.44457 19.2455 8.46163C18.7652 8.48344 18.2847 8.16775 17.8048 8.19194C17.3279 8.21594 16.8516 8.24332 16.3762 8.27832C15.3777 8.35182 14.3797 8.43394 13.3826 8.52457C12.8531 8.57269 12.3237 8.8795 11.7947 8.93244C11.4247 8.9695 11.0549 8.7515 10.6852 8.79088C9.53331 8.91363 8.38262 9.04788 7.23343 9.1935C6.55937 9.27894 6.14906 9.65657 5.47599 9.74988C5.24037 9.78257 4.73499 9.53125 4.49593 9.58094C3.80524 9.72457 3.14087 9.97413 2.73824 10.531C2.15106 11.3432 2.36399 12.4634 2.61881 13.4328C3.37781 16.3196 4.28549 19.1674 5.33712 21.9609C5.58462 22.6184 5.86187 23.3036 6.40749 23.746C7.27012 24.4456 8.51193 24.331 9.61231 24.1798Z" fill="#76206A"/>
<path d="M6.4336 28.9347C6.50998 28.9378 6.60504 27.8312 6.71198 26.4701C6.82023 25.1093 6.91116 24.0034 6.83573 23.9935C6.76491 23.9838 6.5546 25.079 6.4456 26.4488C6.33804 27.8185 6.3626 28.932 6.4336 28.9347Z" fill="#44102B"/>
<path d="M6.58204 25.1826C6.53116 25.5516 6.48254 25.9844 6.4456 26.4489C6.33804 27.8185 6.3626 28.9321 6.4336 28.9347C6.51004 28.9379 6.60504 27.8312 6.71198 26.4701C6.74448 26.0614 6.77541 25.676 6.80073 25.3361C6.72723 25.2857 6.65429 25.2347 6.58204 25.1826Z" fill="#350B23"/>
<path d="M26.9706 14.0244C26.4414 12.9228 25.3996 10.9979 24.2153 10.4724C22.8148 9.85106 22.6124 12.0592 22.2461 12.9259C21.8635 13.831 21.3491 14.6942 20.568 15.3111C19.0725 16.4922 16.9827 16.5231 15.2512 17.3189C14.7408 17.5535 14.2508 17.8651 13.9112 18.3126C13.5716 18.7602 13.4012 19.3613 13.5658 19.8984C13.8351 20.7773 14.8358 21.1787 15.7299 21.3919C18.2338 21.9889 20.87 22.0241 23.3889 21.4941C24.8811 21.1802 26.4463 20.5824 27.2496 19.2863C28.2158 17.7273 27.7648 15.6778 26.9706 14.0244Z" fill="#961778"/>
<path d="M5.86716 10.7881C6.63147 10.7881 7.25097 10.1686 7.25097 9.40432C7.25097 9.33301 7.24391 9.26351 7.23347 9.19507C6.55941 9.28051 5.88566 9.36844 5.21266 9.46176C4.97704 9.49444 4.73491 9.53163 4.49585 9.58138C4.58297 10.2618 5.16297 10.7881 5.86716 10.7881Z" fill="#FE5897"/>
<path d="M12.0611 10.3212C12.8253 10.3212 13.4449 9.70164 13.4449 8.93739C13.4449 8.79389 13.423 8.65552 13.3825 8.52539C12.4827 8.6072 11.5835 8.6957 10.6851 8.79145C10.6801 8.83945 10.6772 8.88808 10.6772 8.93739C10.6772 9.70164 11.2968 10.3212 12.0611 10.3212Z" fill="#28AF8A"/>
<path d="M6.19218 15.2759C6.93581 15.0997 7.39576 14.354 7.21953 13.6103C7.04329 12.8667 6.29759 12.4068 5.55397 12.583C4.81035 12.7592 4.35039 13.5049 4.52663 14.2485C4.70286 14.9922 5.44856 15.4521 6.19218 15.2759Z" fill="#28AF8A"/>
<path d="M5.2286 17.9346C4.46429 17.9346 3.84473 18.5541 3.84473 19.3184C3.84473 20.0827 4.46429 20.7022 5.2286 20.7022C5.99285 20.7022 6.61241 20.0826 6.61241 19.3184C6.61241 18.5541 5.99285 17.9346 5.2286 17.9346Z" fill="#FE5897"/>
<path d="M11.2237 17.7035C11.9781 17.5807 12.4901 16.8697 12.3673 16.1154C12.2446 15.3611 11.5336 14.8491 10.7792 14.9718C10.0249 15.0946 9.51283 15.8056 9.63557 16.5599C9.75831 17.3142 10.4693 17.8262 11.2237 17.7035Z" fill="#28AF8A"/>
<path d="M7.19268 24.7145C7.95641 24.6859 8.55229 24.0435 8.52364 23.2798C8.49498 22.5161 7.85262 21.9202 7.0889 21.9488C6.32517 21.9775 5.72929 22.6199 5.75795 23.3836C5.78661 24.1473 6.42896 24.7432 7.19268 24.7145Z" fill="#28AF8A"/>
<path d="M13.6524 20.8038C14.4166 20.8038 15.0362 20.1842 15.0362 19.4199C15.0362 18.6557 14.4166 18.0361 13.6524 18.0361C12.8881 18.0361 12.2686 18.6557 12.2686 19.4199C12.2686 20.1842 12.8881 20.8038 13.6524 20.8038Z" fill="#FE5897"/>
<path d="M19.9693 16.6523C19.2049 16.6523 18.5854 17.2719 18.5854 18.0362C18.5854 18.8005 19.205 19.42 19.9693 19.42C20.7335 19.42 21.3531 18.8005 21.3531 18.0362C21.3531 17.2719 20.7335 16.6523 19.9693 16.6523Z" fill="#28AF8A"/>
<path d="M26.8631 22.001C27.0275 21.2546 26.5557 20.5163 25.8093 20.3519C25.0629 20.1875 24.3246 20.6593 24.1602 21.4056C23.9958 22.152 24.4676 22.8903 25.214 23.0547C25.9604 23.2191 26.6987 22.7473 26.8631 22.001Z" fill="#28AF8A"/>
<path d="M27.4524 18.9014C28.2167 18.9014 28.8362 18.2819 28.8362 17.5176C28.8362 16.7533 28.2167 16.1338 27.4524 16.1338C26.6882 16.1338 26.0686 16.7533 26.0686 17.5176C26.0686 18.2819 26.6882 18.9014 27.4524 18.9014Z" fill="#FE5897"/>
<path d="M19.0218 21.3145C18.2574 21.3145 17.6379 21.934 17.6379 22.6983C17.6379 23.4626 18.2575 24.0821 19.0218 24.0821C19.786 24.0821 20.4056 23.4626 20.4056 22.6983C20.4056 21.934 19.786 21.3145 19.0218 21.3145Z" fill="#FE5897"/>
<path d="M17.0024 13.5249C17.5428 12.9845 17.5428 12.1083 17.0024 11.5679C16.462 11.0275 15.5858 11.0275 15.0454 11.5679C14.505 12.1083 14.505 12.9845 15.0454 13.5249C15.5858 14.0653 16.462 14.0653 17.0024 13.5249Z" fill="#FE5897"/>
<path d="M23.3417 13.6955C23.8821 13.1551 23.8821 12.279 23.3417 11.7385C22.8013 11.1981 21.9252 11.1981 21.3847 11.7385C20.8443 12.279 20.8443 13.1551 21.3847 13.6955C21.9252 14.2359 22.8013 14.2359 23.3417 13.6955Z" fill="#FE5897"/>
<path d="M15.0361 19.42C15.0361 18.8083 14.6387 18.2902 14.0883 18.1074C14.0261 18.1729 13.9661 18.2404 13.9112 18.3127C13.5716 18.7603 13.4012 19.3614 13.5658 19.8985C13.6685 20.2336 13.8777 20.4991 14.1466 20.7114C14.6664 20.5122 15.0361 20.0099 15.0361 19.42Z" fill="#F978B3"/>
<path d="M20.1232 21.863C19.8704 21.5303 19.4718 21.3145 19.0217 21.3145C18.6131 21.3145 18.247 21.4926 17.9937 21.7743C18.7008 21.8468 19.4123 21.8765 20.1232 21.863Z" fill="#F978B3"/>
<path d="M22.7398 11.3862C22.5325 11.9255 22.4046 12.5512 22.2462 12.926C22.0978 13.277 21.9293 13.6214 21.7334 13.9479C21.9225 14.0449 22.1363 14.1007 22.3635 14.1007C23.1278 14.1007 23.7473 13.4812 23.7473 12.7169C23.7473 12.0832 23.3209 11.5503 22.7398 11.3862Z" fill="#F978B3"/>
<path d="M26.0686 17.5177C26.0686 18.2819 26.6882 18.9015 27.4524 18.9015C27.4531 18.9015 27.4537 18.9014 27.4544 18.9014C27.8399 18.0574 27.8703 17.1016 27.6925 16.156C27.6144 16.1423 27.5345 16.1338 27.4525 16.1338C26.6882 16.1339 26.0686 16.7534 26.0686 17.5177Z" fill="#F978B3"/>
<path d="M26.8946 12.7168C27.0119 12.7168 27.1251 12.7006 27.2339 12.6731C26.7724 11.9328 26.2962 11.2019 25.8061 10.4802C25.6217 10.7153 25.5107 11.0109 25.5107 11.3329C25.5107 12.0972 26.1302 12.7168 26.8946 12.7168Z" fill="#28AF8A"/>
<path d="M18.9959 9.32084C19.7156 9.32084 20.3064 8.77146 20.3731 8.06934C19.4621 8.11877 18.5491 8.15352 17.6379 8.20102C17.7613 8.8389 18.3221 9.32084 18.9959 9.32084Z" fill="#28AF8A"/>
<path d="M18.4653 14.8628C18.4783 14.8836 18.5604 14.8576 18.7066 14.7876C18.7789 14.7514 18.8708 14.7093 18.9712 14.6473C19.0715 14.5852 19.1865 14.5116 19.3154 14.4271C19.8204 14.0788 20.5067 13.4846 21.1599 12.5833C21.81 11.6874 22.4181 10.4633 22.6553 8.99164C22.7129 8.62501 22.7588 8.24595 22.7557 7.84676C22.7541 7.44926 22.71 7.03195 22.5806 6.61795C22.4551 6.20682 22.2277 5.79157 21.9021 5.46495C21.5794 5.13832 21.1534 4.8717 20.6534 4.79038C20.1522 4.7062 19.6426 4.83807 19.2462 5.07495C18.8453 5.31139 18.5354 5.62951 18.2789 5.96314C18.1516 6.13001 18.0354 6.30688 17.9384 6.48195C17.8877 6.56895 17.8388 6.65632 17.7948 6.74557C17.7486 6.83382 17.7043 6.92226 17.6648 7.01226C17.5006 7.36951 17.3719 7.73164 17.2718 8.09007C17.0712 8.80776 16.9851 9.5087 16.9615 10.1606C16.9365 10.8137 16.9778 11.4182 17.0399 11.9629C17.1697 13.0531 17.3759 13.9093 17.5281 14.4961C17.6838 15.0824 17.7968 15.3998 17.8444 15.3904C17.8933 15.3809 17.872 15.0441 17.8006 14.4443C17.7325 13.8446 17.6042 12.9816 17.5419 11.9199C17.5134 11.3894 17.5028 10.8089 17.5514 10.194C17.5984 9.57932 17.7012 8.92751 17.9021 8.27401C18.0022 7.94751 18.1266 7.62101 18.2806 7.30207C18.437 6.98514 18.6143 6.66576 18.8322 6.38876C19.0506 6.11057 19.3088 5.85726 19.6026 5.68763C19.8948 5.51732 20.2217 5.44213 20.5377 5.49351C20.8557 5.54332 21.1589 5.72382 21.3982 5.96357C21.6408 6.20607 21.809 6.50051 21.9154 6.82976C22.1276 7.48764 22.0999 8.21695 22.006 8.89382C21.8224 10.2552 21.3049 11.42 20.7426 12.3007C20.1783 13.1863 19.5781 13.8084 19.1418 14.2106C19.0302 14.3086 18.9316 14.3972 18.8468 14.4756C18.7619 14.5539 18.6847 14.6134 18.6266 14.6681C18.5088 14.7752 18.4522 14.842 18.4653 14.8628Z" fill="#FFDC00"/>
<path d="M18.5897 14.9658C18.5843 14.9119 18.1547 14.9246 17.3885 14.8929C16.6243 14.8558 15.5144 14.7659 14.2018 14.4091C13.5464 14.2325 12.8418 13.9908 12.1195 13.6578C11.3967 13.3287 10.655 12.9099 9.98278 12.3496C9.31153 11.7921 8.72078 11.0754 8.37421 10.2119C8.19903 9.78357 8.09078 9.32257 8.06909 8.85426C8.04371 8.3842 8.12121 7.91682 8.30753 7.48864C8.49615 7.06657 8.79234 6.70976 9.17084 6.52439C9.54746 6.32576 9.99284 6.29926 10.4279 6.37332C10.8648 6.45464 11.2898 6.63095 11.6805 6.85295C11.8767 6.96389 12.0625 7.08776 12.2427 7.21939C12.4198 7.36057 12.6027 7.49051 12.77 7.6357C14.1272 8.78451 15.0507 10.1449 15.7375 11.3204C16.4167 12.5076 16.8798 13.5243 17.2064 14.2239C17.531 14.9251 17.7188 15.3123 17.7671 15.2943C17.811 15.2779 17.7112 14.8584 17.464 14.1209C17.2143 13.3848 16.8183 12.3269 16.1794 11.0783C15.8562 10.4564 15.465 9.79026 14.979 9.11564C14.4929 8.4422 13.9075 7.76082 13.1977 7.13751C12.4993 6.52495 11.6411 5.90407 10.5543 5.6867C10.016 5.5867 9.39365 5.61014 8.85028 5.89201C8.29853 6.16182 7.8939 6.66282 7.65603 7.19982C7.4184 7.7402 7.3284 8.33139 7.3609 8.88745C7.3894 9.44676 7.52221 9.98551 7.72815 10.4765C7.93103 10.9699 8.20671 11.4164 8.52053 11.8156C8.8384 12.2129 9.19359 12.5576 9.5664 12.8573C10.3141 13.4555 11.1149 13.8778 11.8815 14.1986C12.6486 14.5233 13.393 14.7468 14.0818 14.8984C15.4616 15.205 16.6112 15.2183 17.3908 15.1701C18.1733 15.1163 18.5947 15.0096 18.5897 14.9658Z" fill="#FFDC00"/>
<path d="M17.6266 15.581C17.6479 15.5933 17.7153 15.5178 17.825 15.3615C17.8798 15.2833 17.9451 15.1849 18.0205 15.0673C18.0949 14.9491 18.1669 14.8054 18.2535 14.6459C18.59 14.0051 18.9998 13.0238 19.2643 11.7424C19.3848 11.1009 19.479 10.3886 19.4979 9.61769C19.5105 8.8475 19.4563 8.02119 19.3018 7.16569C19.1478 6.30857 18.8922 5.43175 18.5132 4.55144C18.3102 4.1085 18.0563 3.66725 17.684 3.27925C17.4973 3.08713 17.2768 2.90957 17.0148 2.78025C16.754 2.65025 16.4507 2.57713 16.1486 2.58338C15.845 2.58782 15.5462 2.67438 15.292 2.811C15.0361 2.94744 14.8206 3.12807 14.6376 3.32394C14.2736 3.71838 14.0237 4.17225 13.8482 4.63425C13.5001 5.5415 13.3656 6.47788 13.3715 7.356C13.3765 8.23607 13.5119 9.06325 13.7218 9.80869C13.8245 10.1826 13.9475 10.5358 14.0807 10.8675C14.2117 11.2004 14.3551 11.5119 14.5016 11.8033C15.0902 12.9697 15.7215 13.8126 16.1716 14.3744C16.6278 14.9335 16.9158 15.2108 16.9526 15.1818C16.9932 15.1501 16.7788 14.8145 16.397 14.2127C16.0211 13.6088 15.4661 12.7382 14.9574 11.5885C14.8307 11.3013 14.7071 10.9969 14.5956 10.6746C14.4817 10.3529 14.378 10.0144 14.2935 9.65938C14.1196 8.95057 14.0153 8.17319 14.0281 7.36013C14.0399 6.54832 14.1778 5.69819 14.4991 4.88669C14.6529 4.49094 14.871 4.11238 15.1548 3.80882C15.4378 3.50569 15.7916 3.29938 16.1614 3.29582C16.5341 3.28538 16.8879 3.47575 17.1771 3.77469C17.4671 4.07232 17.6957 4.45113 17.8784 4.84175C18.2358 5.65013 18.4955 6.48425 18.657 7.28932C18.8206 8.09625 18.8938 8.87963 18.907 9.61438C18.9138 10.3498 18.8522 11.0341 18.7679 11.6556C18.5762 12.8965 18.2528 13.8711 18.0006 14.5318C17.9353 14.6962 17.8843 14.8463 17.831 14.9722C17.7768 15.0976 17.7325 15.2051 17.6986 15.2932C17.631 15.4696 17.6053 15.5688 17.6266 15.581Z" fill="#FFDC00"/>
<path d="M28.7224 14.825C28.7324 14.7968 28.6359 14.7274 28.432 14.6387C28.2297 14.5515 27.9119 14.4438 27.4955 14.3797C26.6735 14.2339 25.4625 14.151 23.9824 14.1775C23.2419 14.1873 22.4361 14.2181 21.574 14.2413C20.7053 14.2652 19.7778 14.3075 18.8028 14.3692C16.853 14.4923 14.7146 14.6977 12.4802 14.9828C11.3629 15.1252 10.2745 15.2803 9.22553 15.4422C8.17747 15.609 7.16884 15.7828 6.20766 15.9459C5.97172 15.986 5.73853 16.0256 5.50828 16.0647C5.29666 16.0966 5.06634 16.1133 4.83228 16.1362C4.59766 16.159 4.35697 16.1865 4.11253 16.2403C3.86909 16.2944 3.61766 16.3755 3.38341 16.5182C3.26703 16.5889 3.15597 16.6755 3.05997 16.7767C2.96459 16.8748 2.87916 16.9947 2.81953 17.0985C2.69453 17.3152 2.61591 17.5384 2.55878 17.7507C2.50184 17.9636 2.46572 18.168 2.43434 18.3613C2.40316 18.5501 2.37253 18.7352 2.34253 18.9164C2.21966 19.6428 2.12128 20.3168 2.09953 20.9183C2.07291 21.5189 2.12072 22.0462 2.22541 22.4636C2.32572 22.8833 2.48909 23.182 2.60547 23.3718C2.74066 23.5538 2.82384 23.6357 2.84916 23.6191C2.87516 23.6022 2.84322 23.4877 2.76628 23.292C2.70734 23.0873 2.60816 22.7959 2.56653 22.4017C2.52084 22.0093 2.52497 21.5223 2.59597 20.9578C2.66247 20.3927 2.79866 19.7538 2.96078 19.037C3.00047 18.856 3.04103 18.6712 3.08241 18.4828C3.12184 18.2976 3.16378 18.1157 3.21878 17.9427C3.27366 17.77 3.34172 17.6067 3.43203 17.465C3.52409 17.3263 3.61672 17.2338 3.75953 17.1539C4.03928 16.9962 4.45016 16.9449 4.89622 16.9168C5.12134 16.9013 5.35841 16.8917 5.61672 16.8603C5.85516 16.8259 6.09653 16.791 6.34078 16.7558C7.30341 16.6118 8.31066 16.4613 9.35378 16.3053C10.3993 16.156 11.4824 16.0079 12.5928 15.8664C14.8135 15.583 16.9332 15.3546 18.8643 15.1877C19.8298 15.1041 20.7482 15.0347 21.6082 14.9792C22.465 14.9177 23.2678 14.86 24.0082 14.8068C25.4685 14.7008 26.6447 14.6871 27.4589 14.7245C27.863 14.7339 28.169 14.7815 28.383 14.8113C28.5957 14.8422 28.7119 14.8548 28.7224 14.825Z" fill="#FFDC00"/>
<path d="M19.5312 28.5364C19.5265 28.5509 19.54 28.5717 19.5728 28.5976C19.6055 28.6226 19.657 28.6567 19.7477 28.6808C19.8351 28.7048 19.959 28.7034 20.0827 28.6322C20.1464 28.5952 20.204 28.5542 20.2552 28.4975C20.3139 28.4434 20.3552 28.3781 20.4027 28.308C20.7352 27.7349 20.7354 26.8494 20.7892 25.8656C20.8542 24.8338 20.812 23.5937 20.5918 22.2435C20.3755 20.8929 19.9833 19.4369 19.4346 17.9668C19.1587 17.2326 18.8633 16.5267 18.5563 15.8559C18.2472 15.1861 17.9274 14.5514 17.6106 13.9541C16.9717 12.7624 16.3421 11.7231 15.7878 10.8689C14.6766 9.16206 13.8971 8.17294 13.7971 8.236C13.689 8.30394 14.2816 9.41456 15.246 11.1901C16.2001 12.9683 17.5335 15.4186 18.5997 18.2772C19.1324 19.7047 19.5326 21.0987 19.7839 22.3876C20.0387 23.6761 20.1429 24.8573 20.1596 25.8511C20.165 26.3735 20.2085 26.8216 20.2038 27.2101C20.2046 27.5979 20.1715 27.9254 20.0915 28.1551C20.0678 28.2075 20.0487 28.2624 20.0206 28.3006C19.9972 28.3454 19.9645 28.382 19.94 28.4084C19.8855 28.4666 19.815 28.4937 19.7555 28.5009C19.6975 28.5096 19.64 28.5073 19.5996 28.5106C19.5596 28.5138 19.5361 28.5217 19.5312 28.5364Z" fill="#FFDC00"/>
<path d="M10.8913 9.94389C10.8615 9.69976 9.34235 9.68439 7.4981 9.90957C5.65391 10.1348 4.18304 10.5152 4.21285 10.7594C4.24266 11.0035 5.76185 11.0189 7.60604 10.7937C9.45029 10.5685 10.9212 10.188 10.8913 9.94389Z" fill="white"/>
<path d="M13.0024 9.75879C12.9843 9.51348 12.6661 9.33704 12.2916 9.36466C11.9171 9.39229 11.6282 9.61354 11.6463 9.85885C11.6644 10.1042 11.9827 10.2806 12.3571 10.253C12.7316 10.2254 13.0205 10.0041 13.0024 9.75879Z" fill="white"/>
<path d="M26.4126 18.3271C26.3112 18.247 26.0152 18.4627 25.5587 18.777C25.4439 18.8554 25.3211 18.9422 25.1833 19.0269C25.0509 19.1182 24.9006 19.2021 24.7479 19.2964C24.4356 19.4746 24.0876 19.657 23.7096 19.8222C23.3296 19.9829 22.9578 20.1097 22.6136 20.2138C22.4402 20.2596 22.2758 20.3109 22.1185 20.3442C21.9622 20.3859 21.8147 20.4153 21.6789 20.4447C21.1366 20.5597 20.7765 20.626 20.7649 20.7547C20.7531 20.8701 21.1078 21.0301 21.7208 21.0732C21.8735 21.083 22.0417 21.0883 22.2214 21.0757C22.4023 21.0714 22.5928 21.0434 22.7942 21.0144C23.1941 20.9441 23.6282 20.8241 24.0614 20.6405C24.4926 20.4525 24.8784 20.2201 25.2046 19.9784C25.3643 19.8521 25.5156 19.7331 25.6432 19.6048C25.7761 19.4832 25.888 19.3575 25.9859 19.2399C26.3764 18.7655 26.5044 18.398 26.4126 18.3271Z" fill="white"/>
<path d="M26.8263 16.1928C26.7028 16.1883 26.5897 16.2613 26.4978 16.3697C26.4059 16.4791 26.3337 16.624 26.2922 16.791C26.2502 16.9579 26.2458 17.1197 26.2753 17.2595C26.3054 17.3984 26.3709 17.5161 26.482 17.5701C26.5919 17.6237 26.7297 17.5985 26.8582 17.4981C26.9864 17.3988 27.1022 17.2232 27.1563 17.0071C27.2102 16.7908 27.1908 16.5814 27.1243 16.4335C27.0582 16.2844 26.9485 16.1973 26.8263 16.1928Z" fill="white"/>
</g>
<defs>
<clipPath id="clip0_450_12883">
<rect width="32" height="32" fill="white"/>
</clipPath>
</defs>
</svg>
