<svg width="32" height="32" viewBox="0 0 32 32" fill="none" xmlns="http://www.w3.org/2000/svg">
<g clip-path="url(#clip0_484_8124)">
<path d="M18.5768 31.6592C19.2434 31.8579 20.1563 32.1301 21.1329 31.9299C22.8558 31.5764 23.3149 29.9676 23.5893 29.0064C23.6244 28.8834 23.6588 28.7623 23.6949 28.6458L26.8917 18.3444C27.3685 18.236 27.8188 17.984 28.1594 17.6119C28.7174 17.0016 28.9794 16.1149 28.8782 15.1797C28.8014 14.4672 28.5367 13.8304 28.324 13.3188C28.279 13.2106 28.2336 13.1024 28.1882 12.9942L29.9679 7.25931C30.2754 6.26831 29.7193 5.21181 28.7284 4.90431L25.8204 4.00187C25.334 3.85094 24.8192 3.90081 24.3708 4.14231C24.3036 4.1785 24.2391 4.21844 24.1775 4.26169C23.8117 3.56375 23.4459 2.89556 23.0751 2.24681C22.8012 1.76744 22.426 1.11106 21.8352 0.607437C21.5882 0.397124 21.2929 0.237562 20.957 0.133374C20.4668 -0.0187508 19.9243 -0.0416883 19.4289 0.0688117C18.8767 0.192312 18.3973 0.411937 17.9144 0.645062C14.1392 2.46712 10.5913 4.68031 7.31948 6.80037C6.85454 7.10181 6.27567 7.47681 5.80879 8.02056C5.19579 8.73487 4.90998 9.61412 5.02461 10.4326C5.09454 10.9321 5.32304 11.3947 5.65479 11.754L2.45798 22.0557C2.42192 22.172 2.38173 22.2913 2.34098 22.4125C2.02298 23.3602 1.49061 24.9462 2.71092 26.2131C3.40223 26.9308 4.30886 27.2234 4.97104 27.437C6.05292 27.7861 7.15211 28.1561 8.21492 28.5137C8.59979 28.6433 8.98473 28.7728 9.36979 28.9017C9.97379 29.1041 10.6004 29.3057 11.2854 29.5183C11.2855 29.5184 11.2857 29.5184 11.2857 29.5184C12.736 29.9685 14.214 30.3937 15.643 30.8049C16.6064 31.0821 17.6024 31.3687 18.5768 31.6592Z" fill="white"/>
<path d="M27.6998 15.3069C27.6421 14.7734 27.4353 14.2691 27.2293 13.7738C27.1296 13.5341 27.0286 13.2949 26.9282 13.0555L28.8359 6.90813C28.9499 6.54075 28.7445 6.1505 28.3771 6.03644L25.4691 5.13406C25.0963 5.01838 24.702 5.23181 24.5934 5.60675C24.4648 6.05081 24.3335 6.49406 24.1974 6.9365C23.5238 5.54681 22.8126 4.17606 22.046 2.83494C21.7747 2.36031 21.4878 1.86875 21.0665 1.50981C20.7125 1.20825 20.1315 1.12669 19.6877 1.22581C19.247 1.32425 18.8343 1.51744 18.4297 1.71269C14.7935 3.46781 11.3526 5.59956 7.96427 7.79531C7.51402 8.08706 7.05802 8.38569 6.70852 8.79275C6.35902 9.19981 6.12434 9.73719 6.19871 10.2686C6.26309 10.7286 6.60627 11.1587 7.04527 11.2734L4.80171 18.5031C4.3979 19.8044 3.99409 21.1058 3.59021 22.4071C3.28996 23.3745 2.73646 24.5309 3.56465 25.3907C4.03084 25.8746 4.69559 26.1025 5.33509 26.3089C6.81002 26.7848 8.27665 27.2857 9.74621 27.7778C12.7725 28.7911 15.8566 29.6114 18.9155 30.5232C19.5595 30.7151 20.2365 30.9036 20.8947 30.7686C22.0641 30.5288 22.2626 29.2621 22.5628 28.2947C22.9665 26.9934 23.3705 25.6921 23.7743 24.3908L26.0178 17.1611C26.4446 17.3151 26.971 17.1548 27.2846 16.8121C27.6466 16.4161 27.7574 15.8403 27.6998 15.3069Z" fill="#FEC617"/>
<path d="M17.2226 5.03112C17.04 5.61937 16.8574 6.20768 16.6749 6.79593C16.5778 7.10881 17.063 7.25937 17.1601 6.94649C17.3426 6.35824 17.5252 5.76993 17.7078 5.18168C17.8049 4.86881 17.3197 4.71824 17.2226 5.03112Z" fill="#1D5568"/>
<path d="M20.2079 5.9575C20.0254 6.54575 19.8428 7.13406 19.6602 7.72231C19.5631 8.03518 20.0484 8.18581 20.1454 7.87287C20.328 7.28462 20.5106 6.69631 20.6931 6.10806C20.7902 5.79518 20.305 5.64462 20.2079 5.9575Z" fill="#1D5568"/>
<path d="M15.1363 5.81543C14.9793 7.55662 16.03 9.15562 17.673 9.73281C19.3011 10.3048 21.1742 9.35975 21.9737 7.92069C22.1322 7.63525 21.7048 7.36019 21.5458 7.6465C20.8078 8.97475 19.3002 9.63919 17.8235 9.24762C16.3604 8.85969 15.5157 7.25606 15.6442 5.83162C15.6737 5.50537 15.1657 5.49 15.1363 5.81543Z" fill="#1D5568"/>
<path d="M9.16572 19.0449C8.83047 20.254 8.49528 21.4631 8.16009 22.6721C7.40465 22.5006 6.64928 22.3289 5.89384 22.1574C6.20622 20.8668 6.51859 19.5761 6.83103 18.2856C6.93328 17.8632 6.28697 17.6598 6.18409 18.0848C5.68922 20.1294 5.19428 22.174 4.6994 24.2186C4.59715 24.641 5.24347 24.8444 5.34634 24.4194C5.4759 23.8842 5.6054 23.349 5.73497 22.8138C6.48315 22.9838 7.23134 23.1537 7.97947 23.3237C7.84884 23.7949 7.71815 24.2662 7.58753 24.7374C7.47109 25.1576 8.11766 25.3596 8.23447 24.9382C8.76053 23.0407 9.28659 21.1432 9.81265 19.2457C9.92909 18.8256 9.28253 18.6236 9.16572 19.0449Z" fill="white"/>
<path d="M13.9266 21.9419C13.9283 21.9124 13.9262 21.8852 13.9218 21.8595C13.92 21.8324 13.9176 21.8052 13.9149 21.7778C14.4503 21.5408 14.9214 21.1511 15.2717 20.6872C15.5356 20.3378 14.9624 19.9758 14.7013 20.3216C14.444 20.6623 14.1321 20.9117 13.7685 21.0877C13.4493 20.1086 12.6651 19.2103 11.5437 19.6534C9.96957 20.2754 9.26263 22.4396 9.29788 23.9987C9.32551 25.2184 10.4464 26.3864 11.7183 25.8751C13.176 25.289 13.8196 23.4814 13.9202 22.0244C13.9251 21.9989 13.9278 21.9717 13.9266 21.9419ZM12.2846 20.2578C12.7622 20.34 13.0292 20.8216 13.1563 21.303C12.4886 21.4432 11.4067 21.2742 11.4474 20.4444C11.685 20.2863 11.9629 20.2025 12.2846 20.2578ZM12.342 24.5653C11.6953 25.4551 10.3714 25.613 10.0234 24.3658C9.74101 23.3536 10.234 22.1989 10.702 21.3354C10.7514 21.2443 10.8066 21.1519 10.8663 21.0613C11.1548 21.6999 11.9785 22 12.7129 22.0227C12.8928 22.0283 13.0701 22.0139 13.2438 21.9837C13.1819 22.8961 12.8813 23.8234 12.342 24.5653Z" fill="white"/>
<path d="M18.5883 22.5487C18.4723 22.4382 18.2908 22.3995 18.1395 22.5404C17.4367 23.1953 16.7339 23.8501 16.0311 24.505C15.8353 23.6319 15.6396 22.7588 15.4438 21.8857C15.4117 21.7428 15.3158 21.6663 15.2066 21.642C15.0413 21.5794 14.8238 21.6246 14.7402 21.8363C14.0801 23.5089 13.42 25.1816 12.76 26.8542C12.5995 27.2608 13.2476 27.4586 13.4069 27.0549C13.9386 25.7075 14.4704 24.36 15.0022 23.0126C15.161 23.7203 15.3196 24.4281 15.4783 25.1358C15.5045 25.2526 15.5738 25.3246 15.6576 25.3607C15.7739 25.468 15.9527 25.5041 16.1021 25.3648C16.7012 24.8066 17.3003 24.2483 17.8993 23.6901C17.5847 25.3362 17.2252 26.9724 16.815 28.598C16.7085 29.0198 17.3549 29.2228 17.4619 28.7988C17.954 26.849 18.3772 24.8847 18.7317 22.9053C18.7595 22.7503 18.6904 22.625 18.5883 22.5487Z" fill="white"/>
<path d="M21.2995 27.7258C21.1071 28.4599 20.5248 28.8389 19.7774 28.6428C18.9306 28.4208 18.8775 27.3174 19.0034 26.6349C19.0384 26.4448 19.1014 26.2674 19.1849 26.1024C20.0633 26.351 20.9417 26.5995 21.8202 26.8481C21.8212 26.8484 21.822 26.8483 21.823 26.8486C21.9922 26.9246 22.2148 26.8816 22.2802 26.6516C22.5774 25.6055 21.9137 24.6478 20.8585 24.4688C19.5977 24.2549 18.6574 25.3353 18.3565 26.4341C18.0924 27.3988 18.3524 28.7617 19.3627 29.1975C20.4815 29.68 21.6386 29.1012 21.9466 27.9266C22.0569 27.5054 21.4105 27.3028 21.2995 27.7258ZM21.6756 26.1034C20.9934 25.9104 20.3112 25.7174 19.629 25.5244C19.7298 25.4349 19.8397 25.3539 19.9594 25.2836C20.6935 24.8527 21.6418 25.3188 21.6756 26.1034Z" fill="white"/>
<path d="M10.6367 9.27631C10.6882 9.92231 10.8042 10.5525 10.9981 11.1712C11.0955 11.4815 11.5914 11.3698 11.4931 11.0563C11.3128 10.4814 11.1925 9.89344 11.1446 9.2925C11.1189 8.97019 10.6106 8.9495 10.6367 9.27631Z" fill="white"/>
<path d="M14.9261 9.71644C14.8513 10.3231 14.7765 10.9298 14.7017 11.5365C14.6616 11.8613 15.1698 11.8757 15.2096 11.5527C15.2844 10.946 15.3592 10.3393 15.434 9.73263C15.4741 9.40781 14.966 9.39344 14.9261 9.71644Z" fill="white"/>
<path d="M19.5259 12.8931C19.843 12.3503 20.1602 11.8076 20.4773 11.2647C20.6424 10.9822 20.2147 10.7077 20.0495 10.9906C19.7323 11.5334 19.4152 12.0761 19.098 12.6189C18.933 12.9015 19.3606 13.1759 19.5259 12.8931Z" fill="white"/>
<path d="M22.5734 14.7556C23.01 14.4896 23.4467 14.2237 23.8833 13.9577C24.1619 13.788 23.927 13.3374 23.6467 13.5081C23.21 13.7741 22.7734 14.0401 22.3367 14.306C22.0581 14.4758 22.293 14.9264 22.5734 14.7556Z" fill="white"/>
<path d="M24.0823 19.2483C24.1465 19.0138 24.7477 16.5809 24.6592 16.5562C24.3108 16.4587 23.9624 16.3613 23.614 16.2639C23.5407 16.8657 23.3042 17.4469 22.9364 17.9289C22.7349 18.1931 22.4577 18.444 22.1254 18.4452C21.6993 18.4467 21.2652 17.9573 21.2726 17.5405C21.2839 16.9013 21.5493 16.1766 21.7355 15.57C21.4014 15.5575 21.0686 15.51 20.7444 15.4284C20.5093 15.9511 20.3292 16.5059 20.2076 17.0642C20.0927 17.5917 20.0924 18.1562 20.2924 18.6576C20.4924 19.1591 20.9117 19.5875 21.4351 19.7195C21.8928 19.8349 22.5953 19.6994 22.8515 19.2716C22.6985 20.1067 22.4755 21.2004 21.9408 21.8777C21.6546 22.2403 21.2383 22.3842 20.8075 22.1321C20.5654 21.9904 20.3516 21.6534 20.3129 21.3767C20.3017 21.2959 20.3573 20.7091 20.4286 20.3687C20.0785 20.2711 19.7311 20.1624 19.3964 20.0379C19.0613 20.7141 19.1084 21.5267 19.4323 22.2062C19.7782 22.9316 20.5649 23.4819 21.3608 23.3707C21.7741 23.3129 22.1513 23.088 22.4478 22.7942C22.7441 22.5006 22.9663 22.1404 23.1584 21.7701C23.5772 20.963 23.8428 20.1233 24.0823 19.2483Z" fill="#1D5568"/>
<path d="M19.3393 15.008C19.0001 14.6166 18.197 14.4691 17.7093 14.5957C16.8293 14.8244 16.404 15.6852 16.0967 16.4581C15.79 17.2293 15.3672 19.0046 15.1448 19.7961C15.475 19.9156 15.8233 19.9846 16.1741 20.0001C16.214 19.7262 16.5656 18.483 16.624 18.2126C17.1948 18.3866 17.7656 18.5607 18.3363 18.7347C18.2568 19.0472 18.1721 19.3584 18.0871 19.6692C18.3864 19.746 18.6857 19.8228 18.985 19.8996C19.2809 18.6691 19.8139 17.5188 19.7423 16.224C19.7183 15.7897 19.6243 15.3367 19.3393 15.008ZM16.8435 17.3492C16.9548 16.9706 17.0833 16.5971 17.2308 16.2309C17.354 15.9249 17.5323 15.5872 17.854 15.5143C18.1684 15.4431 18.489 15.6782 18.6182 15.9734C18.7475 16.2687 18.729 16.6057 18.6915 16.9259C18.6578 17.2136 18.6097 17.4989 18.5535 17.7829C17.9836 17.6384 17.4136 17.4938 16.8435 17.3492Z" fill="#1D5568"/>
<path d="M14.731 15.688C14.5946 16.1294 14.4883 16.5826 14.333 17.0177C14.2072 17.3697 13.808 17.9081 13.5573 17.3029C13.459 17.0656 13.489 16.761 13.5409 16.5161C13.6443 16.0276 13.795 15.4816 13.9631 14.9333C14.3802 15.0695 14.7972 15.2057 15.2143 15.3419C15.3238 14.989 15.4333 14.6361 15.5427 14.2831C15.1182 14.1869 14.696 14.0801 14.2762 13.965C14.3949 13.6147 14.5145 13.276 14.6274 12.9673C14.3148 12.886 14.0035 12.7999 13.694 12.7069C13.5752 13.0152 13.4573 13.3476 13.3447 13.6927C13.1721 13.6393 12.9996 13.5857 12.828 13.5292C12.7213 13.8389 12.6113 14.1475 12.4985 14.4551C12.6857 14.5162 12.8728 14.5772 13.0599 14.6384C12.8556 15.3747 12.6892 16.1244 12.6006 16.7949C12.5585 17.1137 12.5276 17.4381 12.5762 17.7559C12.6247 18.0738 12.7603 18.3882 13.004 18.5981C13.3903 18.9306 13.9917 18.9324 14.4375 18.6855C14.9347 18.4102 15.0032 18.0572 15.1782 17.5643C15.2262 17.429 15.7122 15.9264 15.7011 15.9237C15.3777 15.8451 15.0543 15.7666 14.731 15.688Z" fill="#1D5568"/>
<path d="M10.5138 14.2069C10.23 13.9869 9.65521 13.3756 10.1917 13.0794C10.2383 13.0536 10.2923 13.0396 10.3508 13.0341C10.8801 12.9851 11.8605 13.3114 12.3522 13.5358C12.4412 13.1156 12.5562 12.7026 12.6753 12.2899C12.647 12.276 12.6157 12.2619 12.5781 12.2469C12.0838 12.0491 11.2343 11.8688 10.7056 11.8334C10.1397 11.7954 9.63077 11.7405 9.13252 12.0823C8.73177 12.3572 8.46658 12.8444 8.51846 13.3276C8.57221 13.8285 8.93777 14.2416 9.33958 14.5454C9.57783 14.7256 9.83664 14.8822 10.0446 15.0967C10.32 15.3808 10.5361 15.8393 10.2066 16.1412C9.88233 16.4384 9.41108 16.4945 9.00527 16.3438C8.56777 16.1814 8.22627 15.8379 7.89977 15.5044C7.67277 15.9894 7.44577 16.4743 7.21877 16.9592C7.18264 17.0364 8.14083 17.5511 8.24289 17.6002C8.64502 17.7938 9.07721 17.9387 9.52283 17.9843C10.4203 18.0761 11.2051 17.7086 11.6336 16.8997C11.8904 16.4151 11.8946 15.8033 11.6381 15.3184C11.3855 14.8411 10.93 14.5292 10.5138 14.2069Z" fill="#1D5568"/>
</g>
<defs>
<clipPath id="clip0_484_8124">
<rect width="32" height="32" fill="white"/>
</clipPath>
</defs>
</svg>
