<svg width="72" height="72" viewBox="0 0 72 72" fill="none" xmlns="http://www.w3.org/2000/svg">
<g clip-path="url(#clip0_571_10991)">
<path d="M39.5031 8.28932C39.5031 8.28932 47.0049 4.41687 38.9779 0.771507C32.1949 -2.3088 35.9152 4.8277 29.742 4.8277C23.5689 4.8277 27.2832 11.8785 27.2832 11.8785L39.5031 8.28932Z" fill="#827189"/>
<path d="M52.5594 67.3985L52.1523 71.9295L53.3735 71.9999L53.0656 70.6267C53.0656 70.6267 53.4924 72.5435 56.6267 71.5702C56.6267 71.5702 52.4209 70.0335 54.8158 67.3794L52.5594 67.3985Z" fill="#251426"/>
<path d="M23.3485 64.7157L18.8181 65.1284L18.968 66.3423L20.2637 65.793C20.2637 65.793 18.4547 66.5569 19.9749 69.4655C19.9749 69.4655 20.7317 65.0522 23.7726 66.9317L23.3485 64.7157Z" fill="#251426"/>
<path d="M38.4632 50.5607L41.0553 65.4477L22.7363 68.7529L22.6809 63.1088L37.2477 63.113L32.6615 51.2992L38.4632 50.5607Z" fill="#3D9C91"/>
<path d="M42.7069 48.9357L55.304 50.1175L56.0426 68.7529L50.5029 68.5469L50.829 53.6043L41.6792 52.5907L42.7069 48.9357Z" fill="#3D9C91"/>
<path d="M36.6683 53.3675L43.3381 52.3335L42.6734 49.4728L35.9231 50.5607L36.6683 53.3675Z" fill="#3D9C91"/>
<path d="M56.0427 67.5045H50.5285C50.4592 67.5045 50.4033 67.4485 50.4033 67.3794C50.4033 67.3103 50.4593 67.2543 50.5285 67.2543H56.0427C56.1119 67.2543 56.1678 67.3103 56.1678 67.3794C56.1678 67.4485 56.1119 67.5045 56.0427 67.5045Z" fill="#1D1D1D"/>
<path d="M24.9575 68.4773C24.896 68.4773 24.8424 68.4321 24.8337 68.3694L24.0977 63.1263C24.088 63.0579 24.1358 62.9945 24.2042 62.9848C24.2721 62.9753 24.3358 63.023 24.3456 63.0914L25.0816 68.3346C25.0913 68.403 25.0435 68.4664 24.9751 68.476C24.9692 68.4769 24.9633 68.4773 24.9575 68.4773Z" fill="#1D1D1D"/>
<path d="M39.2338 65.2369C39.208 65.2369 39.1818 65.2289 39.1595 65.2125C38.1381 64.4576 36.9399 63.4852 37.0329 63.1393C37.0437 63.0994 37.0848 63.0048 37.2338 62.9882C37.8887 62.921 39.611 63.7258 39.6841 63.7602C39.7466 63.7897 39.7734 63.8643 39.7439 63.927C39.7144 63.9896 39.6398 64.016 39.5773 63.9866C39.1059 63.7643 37.7957 63.208 37.2892 63.2346C37.4142 63.5033 38.4008 64.3401 39.3084 65.0109C39.3639 65.0519 39.3758 65.1304 39.3348 65.186C39.31 65.2194 39.2721 65.2369 39.2338 65.2369Z" fill="#1D1D1D"/>
<path d="M50.95 53.7358C50.8904 53.7358 50.8424 53.7333 50.809 53.728C50.6361 53.7001 50.5927 53.6011 50.5824 53.5445C50.5125 53.166 51.898 52.3008 52.73 51.8188C52.7898 51.7843 52.8665 51.8046 52.9011 51.8645C52.9358 51.9243 52.9153 52.001 52.8554 52.0356C51.9461 52.5625 50.9504 53.2437 50.8388 53.4789C50.8419 53.4795 50.8453 53.48 50.8489 53.4807C51.0844 53.5182 52.4247 53.3596 53.2684 53.2436C53.3383 53.2326 53.4 53.282 53.4095 53.3504C53.419 53.419 53.3711 53.482 53.3027 53.4915C53.105 53.5188 51.5112 53.7358 50.95 53.7358Z" fill="#1D1D1D"/>
<path d="M41.0435 52.8143C40.9263 52.8143 40.7984 52.6088 39.9686 49.933C39.948 49.867 39.9851 49.7969 40.0511 49.7763C40.1172 49.7564 40.1873 49.7929 40.2078 49.8588C40.5263 50.8858 40.8965 52.0154 41.0648 52.4377C41.3066 51.9616 41.8793 50.5654 41.7919 49.7548C41.7699 49.5517 41.7065 49.409 41.6036 49.3308C41.5484 49.289 41.5376 49.2104 41.5795 49.1554C41.6216 49.1004 41.6999 49.0897 41.7549 49.1313C42.0864 49.3829 42.1397 49.9652 41.9133 50.8616C41.7706 51.4264 41.2829 52.7787 41.0746 52.8111C41.064 52.8127 41.0539 52.8143 41.0435 52.8143Z" fill="#1D1D1D"/>
<path d="M32.6616 51.2992C32.6616 51.2992 29.4985 42.5925 27.488 35.8319C25.875 30.4083 48.3318 23.1393 47.1688 35.2897C46.1268 46.175 47.8248 49.3964 47.8248 49.3964L32.6616 51.2992Z" fill="#C083AF"/>
<path d="M37.4955 25.7712L38.0185 28.7021L40.0882 28.6707C40.0882 28.6707 39.4789 31.8944 37.4953 31.8591C34.2468 31.8012 33.1182 29.9004 33.1182 29.9004L35.433 29.1316L34.1601 26.1635L37.4955 25.7712Z" fill="#EA8060"/>
<path d="M27.1567 10.8178C27.1567 10.8178 32.6771 4.63679 38.9524 7.70917C43.6473 10.0078 42.6056 26.3297 34.8586 25.7889C29.3673 25.4055 24.8752 14.342 27.1567 10.8178Z" fill="#EA8060"/>
<path d="M27.1568 10.8178C27.1568 10.8178 28.2258 21.3763 30.8645 22.2468C35.6001 23.8092 29.0962 18.0121 35.57 18.0851C39.7211 18.1319 36.1873 21.7778 39.6769 20.7331C42.3013 19.9473 39.7588 8.59288 39.3861 7.9793C39.0134 7.36571 43.9423 9.96722 42.0608 17.2432C41.4298 19.6836 47.4543 20.971 43.1053 24.8642C35.3848 31.7756 23.9472 26.3743 26.6014 22.6116C30.2526 17.4351 20.432 17.459 27.1568 10.8178Z" fill="#84556C"/>
<path d="M37.176 17.9791C37.1689 17.9791 37.1616 17.9786 37.1541 17.9781C36.6118 17.9268 34.8394 17.5757 34.7644 17.5607C34.6966 17.5474 34.6524 17.4814 34.6661 17.4137C34.6795 17.3459 34.745 17.3015 34.8131 17.3154C34.8308 17.3188 36.5303 17.6556 37.1213 17.7229C37.088 17.3387 36.1449 15.6234 35.199 14.0991C35.1626 14.0404 35.1807 13.9632 35.2393 13.9268C35.2982 13.8903 35.3753 13.9085 35.4117 13.9671C36.226 15.2791 37.5587 17.5337 37.3368 17.8919C37.302 17.948 37.2442 17.9791 37.176 17.9791Z" fill="#1D1D1D"/>
<path d="M34.8943 22.3555C34.825 22.3555 34.7577 22.3339 34.6954 22.291C34.1267 21.898 34.0589 19.4592 34.053 19.1824C34.0516 19.1132 34.1064 19.056 34.1755 19.0546C34.2532 19.0621 34.302 19.108 34.3034 19.1771C34.3246 20.1733 34.4883 21.8437 34.8377 22.085C34.8691 22.1066 34.8963 22.1104 34.9316 22.0981C35.4847 21.9023 36.3714 20.0902 36.6665 19.4085C36.694 19.3453 36.7673 19.3159 36.8312 19.3433C36.8947 19.3708 36.9238 19.4445 36.8964 19.508C36.7834 19.7691 35.7705 22.0668 35.0152 22.3342C34.9747 22.3484 34.9341 22.3555 34.8943 22.3555Z" fill="#1D1D1D"/>
<path d="M32.1839 15.3993C31.6265 15.3995 31.2306 13.8126 31.1219 13.3235C31.1069 13.256 31.1495 13.1892 31.2171 13.1741C31.2848 13.1603 31.3516 13.2017 31.3665 13.2693C31.5699 14.1844 31.9588 15.1542 32.1856 15.1489C32.41 15.1403 32.5505 14.1377 32.5361 13.2435C32.535 13.1744 32.5901 13.1175 32.6594 13.1163C32.7291 13.1107 32.7854 13.1705 32.7865 13.2396C32.7945 13.7406 32.7754 15.3767 32.1954 15.399C32.1915 15.3992 32.1875 15.3993 32.1839 15.3993Z" fill="#1D1D1D"/>
<path d="M38.0763 15.058C37.5301 15.058 36.8509 13.4975 36.6546 13.0166C36.6284 12.9525 36.6592 12.8795 36.7232 12.8534C36.7869 12.8269 36.8602 12.8579 36.8863 12.9219C37.2577 13.8319 37.8155 14.8076 38.0736 14.8076C38.0747 14.8076 38.0762 14.8076 38.0773 14.8076C38.3015 14.799 38.4421 13.7965 38.4277 12.9022C38.4265 12.8331 38.4817 12.7762 38.5509 12.7751C38.6209 12.7666 38.6769 12.8291 38.6781 12.8983C38.686 13.3993 38.667 15.0354 38.0871 15.0578C38.0837 15.0579 38.0801 15.058 38.0763 15.058Z" fill="#1D1D1D"/>
<path d="M25.2825 18.2864C26.1414 18.2864 26.8377 17.5901 26.8377 16.7312C26.8377 15.8723 26.1414 15.176 25.2825 15.176C24.4236 15.176 23.7273 15.8723 23.7273 16.7312C23.7273 17.5901 24.4236 18.2864 25.2825 18.2864Z" fill="#EA8060"/>
<path d="M43.0147 15.4669C43.8158 15.4669 44.4652 14.8175 44.4652 14.0164C44.4652 13.2153 43.8158 12.5659 43.0147 12.5659C42.2136 12.5659 41.5642 13.2153 41.5642 14.0164C41.5642 14.8175 42.2136 15.4669 43.0147 15.4669Z" fill="#EA8060"/>
<path d="M25.867 17.602C25.7983 17.602 25.7423 17.5465 25.7418 17.4777C25.739 17.0873 25.6328 16.8154 25.4269 16.6696C25.0673 16.415 24.5021 16.6049 24.4964 16.6068C24.4312 16.6291 24.3597 16.5945 24.3373 16.5293C24.3147 16.4641 24.3491 16.3928 24.4144 16.3702C24.4424 16.3604 25.1049 16.1362 25.5705 16.4644C25.8468 16.6593 25.9887 16.9996 25.9923 17.4757C25.9927 17.5449 25.9371 17.6014 25.868 17.6018C25.8676 17.602 25.867 17.602 25.867 17.602Z" fill="#1D1D1D"/>
<path d="M42.8624 15.1924C42.812 15.1924 42.7646 15.1618 42.7455 15.112C42.5145 14.5099 42.5052 14.0527 42.7174 13.7531C42.9609 13.4092 43.3964 13.4194 43.4152 13.4178C43.4844 13.4199 43.5388 13.4773 43.5369 13.5466C43.5349 13.6156 43.4734 13.6668 43.4086 13.6683C43.4003 13.6684 43.0837 13.6671 42.9206 13.8995C42.7633 14.1237 42.7836 14.5121 42.9793 15.0224C43.0041 15.087 42.9719 15.1595 42.9073 15.1842C42.8925 15.1896 42.8774 15.1924 42.8624 15.1924Z" fill="#1D1D1D"/>
<path d="M30.3598 19.0568C31.1787 19.0568 31.8424 18.393 31.8424 17.5742C31.8424 16.7553 31.1787 16.0916 30.3598 16.0916C29.541 16.0916 28.8772 16.7553 28.8772 17.5742C28.8772 18.393 29.541 19.0568 30.3598 19.0568Z" fill="#E45442"/>
<path d="M38.9782 18.0155C39.7971 18.0155 40.4609 17.3517 40.4609 16.5329C40.4609 15.7141 39.7971 15.0503 38.9782 15.0503C38.1594 15.0503 37.4956 15.7141 37.4956 16.5329C37.4956 17.3517 38.1594 18.0155 38.9782 18.0155Z" fill="#E45442"/>
<path d="M33.6658 27.6207C32.5808 27.6207 31.9766 26.9986 31.6845 26.3747C31.3787 26.5679 30.9035 26.7213 30.1531 26.7131C28.6719 26.6951 27.9978 25.6126 27.8609 24.6056C27.8608 24.6052 27.8608 24.6049 27.8608 24.6045C27.6381 24.6327 27.3962 24.5898 27.1494 24.474C26.6264 24.2289 26.3918 23.6777 26.489 22.922C26.538 22.5417 26.666 22.1441 26.8366 21.7892C26.3783 21.6308 26.2366 21.2938 26.2056 21.0087C26.1598 20.5856 26.3413 20.0642 26.5923 19.6148C26.4308 19.5363 26.3142 19.4182 26.2441 19.2615C25.987 18.6884 26.4835 17.8096 26.5049 17.7723C26.5393 17.7124 26.6154 17.6918 26.6756 17.7258C26.7357 17.7602 26.7564 17.8365 26.7223 17.8965C26.5951 18.1193 26.3024 18.7801 26.4726 19.1591C26.5208 19.2664 26.6029 19.3456 26.7216 19.3985C26.9858 18.9858 27.2914 18.6691 27.4895 18.6091C27.6485 18.5608 27.7921 18.6011 27.8822 18.7198C28.0055 18.8819 27.9955 19.1469 27.858 19.3643C27.7662 19.5093 27.483 19.8323 26.8374 19.696C26.8368 19.6958 26.8361 19.6957 26.8353 19.6955C26.5982 20.1088 26.413 20.5976 26.4546 20.9812C26.4869 21.2784 26.6509 21.4709 26.9534 21.5639C27.2308 21.0696 27.5836 20.6969 27.8927 20.64C28.1917 20.585 28.5021 20.704 28.6674 20.936C28.7907 21.1089 28.8073 21.3128 28.7121 21.4813C28.6098 21.6619 28.2853 21.9529 27.2632 21.8724C27.2011 21.8675 27.1425 21.8604 27.087 21.8512C26.9187 22.1888 26.7858 22.5774 26.7374 22.9535C26.6794 23.4056 26.722 23.9968 27.2558 24.2469C27.4838 24.3538 27.6774 24.3765 27.8374 24.3542C27.8039 23.6878 28.0104 23.1448 28.3558 23.0447C28.5393 22.9913 28.6945 23.0401 28.7824 23.1782C28.9403 23.4269 28.83 23.9003 28.5366 24.2338C28.4106 24.3773 28.2647 24.4805 28.1053 24.5424C28.1064 24.5521 28.1077 24.5617 28.109 24.5714C28.2318 25.475 28.8342 26.4461 30.1561 26.4622C30.8881 26.47 31.325 26.3192 31.5886 26.139C31.5323 25.9788 31.4959 25.8239 31.4763 25.6851C31.4062 25.1916 31.514 24.8404 31.7511 24.79C31.881 24.7626 32.0101 24.8182 32.1063 24.9425C32.2549 25.1344 32.3302 25.511 32.1446 25.8841C32.0957 25.9824 32.0163 26.1015 31.8896 26.2183C32.1571 26.8232 32.7543 27.4445 33.8664 27.3624C34.497 27.3164 34.9993 27.05 35.3686 26.7076C35.2729 26.6489 35.1968 26.5874 35.1374 26.5306C34.8283 26.2362 34.7021 25.8207 34.7994 25.4192C34.8954 25.023 35.1899 24.7168 35.5871 24.6002C35.9302 24.4994 36.1223 24.611 36.2234 24.7221C36.4295 24.9485 36.4368 25.3915 36.2426 25.8779C36.1446 26.1231 35.9924 26.3853 35.7867 26.6301C36.2008 26.7752 36.8638 26.8245 37.9023 26.5196C38.9741 26.2045 39.4997 25.7935 39.7552 25.4439C39.3553 25.3248 39.0569 25.0902 38.9614 24.8045C38.8785 24.5561 38.9578 24.2969 39.1852 24.0744C39.3508 23.9126 39.5736 23.874 39.7811 23.9702C40.0802 24.1094 40.2682 24.4827 40.2387 24.878C40.2314 24.9752 40.2073 25.1099 40.1412 25.2663C40.4937 25.3042 41.5094 25.2974 42.2468 24.1761C42.4274 23.9018 42.5643 23.6564 42.665 23.439C42.4148 23.3268 42.1968 23.1688 42.0456 22.9982C41.7562 22.6716 41.7284 22.3293 41.973 22.1045C42.2729 21.829 42.6714 21.7834 42.9211 21.9959C43.0408 22.0977 43.3176 22.4435 42.9978 23.2934C43.3775 23.4007 43.7982 23.375 44.1192 23.1007C44.5314 22.748 44.5583 21.8953 44.1846 21.0267C43.9919 20.5788 43.6639 20.0969 43.2397 19.8135C43.1981 19.9815 43.1119 20.1157 42.9666 20.1929C42.573 20.4021 42.1457 20.2946 41.9154 20.1059C41.7546 19.9742 41.6855 19.8056 41.7305 19.6549C41.7689 19.5273 41.9012 19.3659 42.3153 19.3224C42.5647 19.2958 42.8002 19.3334 43.0173 19.4169C42.9975 19.1587 42.9126 18.835 42.765 18.489C42.6784 18.2855 42.5793 18.0984 42.4756 17.9361C42.3126 18.0369 42.1156 18.0678 41.9057 18.0189C41.5848 17.9444 41.3253 17.7027 41.315 17.4689C41.3114 17.3881 41.3358 17.1891 41.64 17.0894C41.9296 16.9942 42.2402 17.2045 42.5129 17.5515C42.5207 17.539 42.5285 17.526 42.5359 17.5124C42.9481 16.7597 41.9247 15.8755 41.9143 15.8667C41.8617 15.8218 41.8554 15.7429 41.9 15.6902C41.945 15.6373 42.024 15.6313 42.0766 15.6761C42.1254 15.7177 43.2644 16.7034 42.7555 17.6327C42.7289 17.6816 42.699 17.7262 42.6663 17.7667C42.7898 17.9567 42.9017 18.1713 42.9954 18.391C43.1518 18.7578 43.2718 19.1852 43.2705 19.5392C43.7929 19.8426 44.1899 20.4059 44.4146 20.928C44.7666 21.7465 44.8623 22.7947 44.2821 23.2912C43.8718 23.642 43.3543 23.6659 42.9003 23.5274C42.7954 23.7569 42.651 24.0178 42.4562 24.3139C41.8843 25.1832 40.9917 25.6305 40.0695 25.5101C40.0515 25.5078 40.0338 25.5052 40.0161 25.5025C39.7511 25.9139 39.1823 26.4044 37.9733 26.7597C36.8007 27.1043 36.0598 27.0153 35.6052 26.8274C35.1932 27.2348 34.618 27.5587 33.8849 27.6121C33.8097 27.618 33.7368 27.6207 33.6658 27.6207ZM35.8356 24.8117C35.7832 24.8117 35.7237 24.8215 35.6578 24.8408C35.3473 24.932 35.1174 25.1706 35.0426 25.4787C34.9666 25.7922 35.0665 26.1179 35.31 26.3499C35.3689 26.4061 35.447 26.467 35.5486 26.524C35.7596 26.2863 35.9138 26.0268 36.0102 25.7856C36.1637 25.4008 36.175 25.0414 36.0382 24.8911C35.9901 24.8384 35.9223 24.8117 35.8356 24.8117ZM31.815 25.0342C31.811 25.0342 31.8069 25.0346 31.8028 25.0355C31.7584 25.0448 31.667 25.2482 31.724 25.6504C31.7375 25.7464 31.7603 25.8512 31.7933 25.9601C31.8516 25.8939 31.892 25.8294 31.9201 25.7729C32.0516 25.5088 32.0136 25.2326 31.908 25.0963C31.8894 25.0721 31.8539 25.0342 31.815 25.0342ZM39.5517 24.1686C39.4921 24.1686 39.4257 24.1901 39.3602 24.254C39.2008 24.41 39.1465 24.5686 39.1989 24.7257C39.2722 24.9451 39.5384 25.132 39.8886 25.2215C39.9581 25.0747 39.9822 24.9488 39.9889 24.8598C40.0133 24.5324 39.8496 24.2789 39.6752 24.1977C39.6405 24.1816 39.5982 24.1686 39.5517 24.1686ZM28.4948 23.2742C28.4765 23.2742 28.4539 23.2774 28.4255 23.2856C28.2356 23.3408 28.0736 23.7418 28.0854 24.2763C28.2013 24.2171 28.2884 24.1374 28.3486 24.069C28.5978 23.7859 28.6466 23.4322 28.571 23.313C28.5628 23.3 28.5463 23.2742 28.4948 23.2742ZM42.5436 22.113C42.4143 22.113 42.2681 22.1739 42.1422 22.2894C41.9477 22.468 42.1408 22.7288 42.2328 22.8326C42.3636 22.9802 42.5502 23.1137 42.7623 23.2084C42.9721 22.6556 42.9168 22.322 42.7586 22.1873C42.7 22.1372 42.6251 22.113 42.5436 22.113ZM27.2148 21.6166C27.237 21.6192 27.2597 21.6212 27.2827 21.6231C28.2272 21.698 28.4484 21.4391 28.4941 21.3583C28.5583 21.245 28.5026 21.1363 28.4635 21.0817C28.3721 20.9532 28.174 20.8438 27.9382 20.8868C27.729 20.9253 27.4519 21.215 27.2148 21.6166ZM42.4719 19.5652C42.4288 19.5652 42.3855 19.5675 42.3414 19.5721C42.0943 19.5982 41.9877 19.6695 41.9703 19.7274C41.9556 19.7763 41.9964 19.8493 42.074 19.913C42.242 20.0506 42.5562 20.1283 42.8489 19.9724C42.9354 19.9264 42.9891 19.8261 43.0107 19.6859C42.8427 19.6093 42.6624 19.5652 42.4719 19.5652ZM26.9769 19.4669C27.2826 19.5096 27.5232 19.4255 27.6463 19.2307C27.7332 19.0935 27.7329 18.9374 27.6829 18.8716C27.673 18.8585 27.6466 18.8235 27.5621 18.8488C27.4318 18.8884 27.1972 19.1351 26.9769 19.4669ZM41.7804 17.3182C41.7586 17.3182 41.7379 17.3214 41.718 17.3279C41.6467 17.3512 41.5622 17.393 41.5652 17.4585C41.5698 17.5658 41.7408 17.7242 41.9625 17.7756C42.0547 17.797 42.1977 17.8087 42.3323 17.7314C42.1346 17.4748 41.9336 17.3182 41.7804 17.3182Z" fill="#1D1D1D"/>
<path d="M50.5129 22.0459L60.0421 21.1931L60.1979 23.513L51.004 24.5493L50.5129 22.0459Z" fill="#E9546A"/>
<path d="M52.6814 22.6935C52.6814 22.6935 52.0538 17.898 50.1801 18.9177C48.3064 19.9373 49.7999 27.8218 51.5183 27.1717C53.2366 26.5217 52.6814 22.6935 52.6814 22.6935Z" fill="#E9546A"/>
<path d="M61.8454 21.8312C61.8454 21.8312 61.2179 17.0357 59.3442 18.0554C57.4704 19.075 58.964 26.9595 60.6824 26.3094C62.4007 25.6593 61.8454 21.8312 61.8454 21.8312Z" fill="#E9546A"/>
<path d="M58.9801 24.2767C58.9482 24.2767 58.9162 24.2645 58.8917 24.2402C58.3121 23.6626 58.2531 21.4395 58.2508 21.3452C58.2492 21.2761 58.3038 21.2188 58.373 21.217C58.4385 21.2141 58.4995 21.27 58.5012 21.3393C58.5157 21.9542 58.6462 23.642 59.0685 24.0629C59.1175 24.1117 59.1176 24.1909 59.0688 24.2399C59.0444 24.2645 59.0122 24.2767 58.9801 24.2767Z" fill="#1D1D1D"/>
<path d="M51.3327 26.4697C51.0731 26.4697 50.9257 26.0999 50.8361 25.8149C50.4087 24.454 50.117 20.1334 50.788 19.797C50.9032 19.7394 51.0316 19.7357 51.1597 19.7861C51.7652 20.0255 52.3207 21.4923 52.3821 21.6589C52.406 21.7237 52.3727 21.7957 52.3079 21.8198C52.2428 21.8437 52.1711 21.8104 52.1471 21.7456C51.9911 21.3224 51.4929 20.1873 51.0675 20.0191C51.0054 19.9944 50.9519 19.9952 50.9003 20.0209C50.52 20.2117 50.5622 24.1072 51.075 25.74C51.2279 26.2269 51.3407 26.2193 51.3379 26.2191C51.8653 26.1425 51.8288 24.8952 51.7744 24.4642C51.7658 24.3957 51.8144 24.333 51.883 24.3244C51.9514 24.317 52.0142 24.3644 52.0228 24.4329C52.0474 24.6278 52.2381 26.3414 51.3738 26.4668C51.36 26.4688 51.3461 26.4697 51.3327 26.4697Z" fill="#1D1D1D"/>
<path d="M60.3087 25.7068C60.2798 25.7068 60.2531 25.702 60.2291 25.6948C59.6221 25.5134 59.4083 22.9332 59.3998 21.7122C59.3934 20.7882 59.4642 19.2122 60.0108 19.0406C60.3084 18.947 60.5685 18.9715 60.7839 19.113C61.2217 19.401 61.2958 20.0716 61.2987 20.1C61.3058 20.1687 61.2559 20.23 61.1873 20.2372C61.1171 20.2456 61.0569 20.1944 61.0497 20.1259C61.0492 20.12 60.9842 19.5439 60.6457 19.3218C60.4943 19.2226 60.3107 19.2088 60.0858 19.2793C59.8684 19.3477 59.6393 20.1376 59.6502 21.7103C59.6639 23.6808 60.0174 25.3701 60.3009 25.4548C60.3247 25.4631 60.3698 25.4291 60.4272 25.3429C61.2944 24.0421 61.008 22.7059 61.0051 22.6927C60.99 22.6252 61.0323 22.5583 61.0998 22.5432C61.1675 22.5283 61.2343 22.5704 61.2493 22.638C61.2626 22.6967 61.5615 24.0928 60.6356 25.4818C60.5182 25.6578 60.4019 25.7068 60.3087 25.7068Z" fill="#1D1D1D"/>
<path d="M57.2769 23.8423C57.2769 23.8423 57.5986 21.5123 57.1857 21.2019C56.7727 20.8916 56.1596 20.0795 55.3759 20.2723C54.5921 20.4651 54.1153 21.0369 54.1153 21.0369C54.1153 21.0369 53.0984 21.2276 53.0216 21.6339C52.9448 22.0403 52.9106 24.2594 53.521 24.5789C54.1314 24.8984 57.0635 25.0099 57.2769 23.8423Z" fill="#EA8060"/>
<path d="M54.1772 22.7781C54.1615 22.7781 54.1457 22.7752 54.1303 22.7689C54.0662 22.743 54.0352 22.67 54.0611 22.6059C54.2174 22.2198 53.8964 21.4248 53.7596 21.1511C53.7286 21.0891 53.7537 21.014 53.8156 20.983C53.8775 20.9521 53.9526 20.977 53.9837 21.039C54.0058 21.0832 54.5238 22.13 54.2933 22.6998C54.2735 22.7486 54.2267 22.7781 54.1772 22.7781Z" fill="#1D1D1D"/>
<path d="M55.5273 22.4332C55.4591 22.4332 55.4032 22.3784 55.4022 22.3099C55.3946 21.8307 55.0302 20.9845 55.0266 20.976C54.9993 20.9125 55.0284 20.8388 55.0919 20.8113C55.1551 20.7839 55.2291 20.8132 55.2566 20.8765C55.2724 20.9131 55.6443 21.7775 55.6528 22.306C55.6539 22.3751 55.5988 22.432 55.5295 22.4332C55.5286 22.4332 55.5279 22.4332 55.5273 22.4332Z" fill="#1D1D1D"/>
<path d="M56.7966 22.3962C56.7284 22.3962 56.6725 22.3414 56.6715 22.2729C56.6638 21.7937 56.2995 20.9475 56.2959 20.939C56.2686 20.8755 56.2977 20.8018 56.3612 20.7743C56.4247 20.7469 56.4984 20.7763 56.5259 20.8395C56.5417 20.8761 56.9135 21.7405 56.922 22.269C56.9232 22.3381 56.868 22.395 56.7988 22.3962C56.7979 22.3962 56.7972 22.3962 56.7966 22.3962Z" fill="#1D1D1D"/>
<path d="M21.5481 26.6163L12.0828 25.2235L11.7954 27.5307L20.9156 29.0877L21.5481 26.6163Z" fill="#F7C67C"/>
<path d="M19.3463 27.1397C19.3463 27.1397 20.2453 22.3875 22.0581 23.512C23.8709 24.6365 21.9318 32.4233 20.2532 31.6767C18.5745 30.93 19.3463 27.1397 19.3463 27.1397Z" fill="#F7C67C"/>
<path d="M10.246 25.7579C10.246 25.7579 11.145 21.0058 12.9578 22.1303C14.7706 23.2548 12.8315 31.0416 11.1529 30.2949C9.47413 29.5485 10.246 25.7579 10.246 25.7579Z" fill="#F7C67C"/>
<path d="M12.9749 28.3626C12.9404 28.3626 12.906 28.3485 12.8813 28.3206C12.8353 28.269 12.8399 28.1898 12.8916 28.1439C13.3373 27.7476 13.5632 26.0699 13.6126 25.457C13.6184 25.3882 13.677 25.3386 13.7476 25.3422C13.8165 25.3478 13.8678 25.4082 13.8623 25.4772C13.8547 25.5713 13.6694 27.7875 13.0579 28.3311C13.034 28.3523 13.0044 28.3626 12.9749 28.3626Z" fill="#1D1D1D"/>
<path d="M20.4937 30.9868C20.4754 30.9868 20.4566 30.9848 20.4374 30.9809C19.5816 30.8066 19.8693 29.1068 19.9048 28.9134C19.9174 28.8457 19.9829 28.8015 20.0506 28.813C20.1185 28.8256 20.1636 28.8908 20.1511 28.9588C20.067 29.4168 19.9633 30.6287 20.4873 30.7356C20.4879 30.7346 20.6019 30.7353 20.7768 30.2726C21.3817 28.6716 21.6454 24.7845 21.2763 24.5725C21.226 24.5437 21.1729 24.54 21.1093 24.5611C20.6747 24.705 20.1132 25.8099 19.9335 26.2236C19.906 26.2868 19.8318 26.3163 19.7688 26.2886C19.7053 26.2611 19.6762 26.1873 19.7038 26.1238C19.7745 25.9611 20.4123 24.5282 21.0305 24.3235C21.1611 24.2802 21.2894 24.2914 21.401 24.3555C22.052 24.7296 21.5152 29.0267 21.011 30.3613C20.9077 30.6349 20.7441 30.9868 20.4937 30.9868Z" fill="#1D1D1D"/>
<path d="M11.5751 29.7152C11.4794 29.7152 11.3594 29.6639 11.2465 29.4718C10.4009 28.0324 10.7788 26.6555 10.7952 26.5974C10.8141 26.5309 10.8838 26.4923 10.9497 26.5113C11.0163 26.5303 11.0549 26.5994 11.036 26.6658C11.0324 26.6791 10.6728 28.0011 11.4624 29.3448C11.5148 29.4341 11.56 29.4694 11.582 29.4637C11.87 29.3952 12.3189 27.7283 12.4443 25.7611C12.5444 24.1922 12.3605 23.391 12.1474 23.3105C11.9263 23.2268 11.7429 23.2304 11.5861 23.321C11.2354 23.5233 11.1378 24.095 11.1369 24.1007C11.1257 24.169 11.0616 24.2154 10.9932 24.2041C10.925 24.1931 10.8786 24.129 10.8897 24.0607C10.8941 24.0325 11.0063 23.3672 11.4599 23.1046C11.683 22.9752 11.9441 22.9657 12.2358 23.076C12.7447 23.2683 12.7659 24.6508 12.694 25.7768C12.6162 26.9957 12.2562 29.5604 11.6398 29.7071C11.6202 29.7121 11.5985 29.7152 11.5751 29.7152Z" fill="#1D1D1D"/>
<path d="M14.6929 28.0253C14.6929 28.0253 14.5041 25.6807 14.9341 25.3945C15.3641 25.1082 16.0221 24.332 16.7937 24.5692C17.5652 24.8062 18.0089 25.4043 18.0089 25.4043C18.0089 25.4043 19.0133 25.6524 19.067 26.0625C19.1207 26.4726 19.0287 28.6899 18.4012 28.9743C17.7735 29.2587 14.8396 29.2033 14.6929 28.0253Z" fill="#EA8060"/>
<path d="M17.8551 27.1394C17.8029 27.1394 17.7543 27.1066 17.7366 27.0546C17.5386 26.4725 18.1153 25.4569 18.1401 25.4138C18.1744 25.3541 18.251 25.3331 18.3109 25.3676C18.3709 25.402 18.3915 25.4785 18.3573 25.5384C18.2052 25.8039 17.8396 26.5797 17.9736 26.9738C17.996 27.0393 17.961 27.1103 17.8955 27.1326C17.8821 27.1374 17.8685 27.1394 17.8551 27.1394Z" fill="#1D1D1D"/>
<path d="M16.5269 26.7183C16.5239 26.7183 16.5209 26.7182 16.5177 26.7179C16.4487 26.7128 16.3969 26.6529 16.4019 26.584C16.4404 26.0566 16.8609 25.2147 16.8786 25.1791C16.9097 25.1173 16.9843 25.0924 17.0466 25.1235C17.1084 25.1546 17.1333 25.2298 17.1022 25.2916C17.098 25.2998 16.6862 26.1244 16.6515 26.602C16.6469 26.668 16.592 26.7183 16.5269 26.7183Z" fill="#1D1D1D"/>
<path d="M15.2618 26.6091C15.2588 26.6091 15.2558 26.6089 15.2526 26.6086C15.1836 26.6036 15.1318 26.5437 15.1368 26.4747C15.1753 25.9474 15.5957 25.1054 15.6135 25.0699C15.6446 25.0079 15.7193 24.9832 15.7815 25.0143C15.8433 25.0454 15.8682 25.1205 15.8371 25.1823C15.8329 25.1905 15.4212 26.0152 15.3864 26.4927C15.3818 26.5588 15.3269 26.6091 15.2618 26.6091Z" fill="#1D1D1D"/>
<path d="M57.2767 23.8423C57.2767 23.8423 62.6626 36.1366 61.3424 37.8352C60.0222 39.5338 47.7183 37.7219 47.7183 37.7219L49.1862 29.4879C49.1862 29.4879 57.8441 33.5051 57.1637 34.3409C56.4563 35.2099 54.2785 24.5493 54.2785 24.5493L57.2767 23.8423Z" fill="#EA8060"/>
<path d="M18.4011 28.9743C18.4011 28.9743 18.951 42.1537 16.4411 40.7767C15.1899 40.0902 27.373 32.6065 27.373 32.6065L27.6923 41.5678C27.6923 41.5678 15.7899 45.5341 13.9869 44.9082C12.184 44.2822 15.9986 28.5427 15.9986 28.5427L18.4011 28.9743Z" fill="#EA8060"/>
<path d="M46.0711 37.9963L53.3012 38.2323L53.4475 30.39C53.4475 30.39 45.8455 28.375 41.5642 28.8418L46.0711 37.9963Z" fill="#C083AF"/>
<path d="M22.6809 34.0159L24.4553 43.2806L37.6147 38.9373L33.1182 29.9003C33.1182 29.9003 26.0416 31.5119 22.6809 34.0159Z" fill="#C083AF"/>
<path d="M29.8111 8.76151C29.7517 8.76151 29.699 8.71918 29.6881 8.65884C29.6733 8.57791 29.3374 6.66689 30.2445 5.71591C30.647 5.29399 31.2282 5.13012 31.9695 5.22948C34.0527 5.50812 36.108 4.76191 36.6509 3.91807C36.8334 3.63468 36.8416 3.35647 36.6753 3.09151C36.6385 3.0329 36.6562 2.95572 36.7149 2.91886C36.7733 2.88199 36.8505 2.89985 36.8875 2.95846C37.1067 3.30794 37.0977 3.68666 36.8614 4.05358C36.2656 4.97978 34.1443 5.77308 31.9362 5.47774C31.2781 5.38975 30.7697 5.52799 30.4257 5.88871C29.6056 6.74854 29.931 8.59534 29.9343 8.61391C29.9469 8.68202 29.9016 8.74711 29.8337 8.7595C29.8262 8.76094 29.8185 8.76151 29.8111 8.76151Z" fill="#1D1D1D"/>
<path d="M35.4798 6.9104C35.4275 6.9104 35.3788 6.87757 35.3611 6.8253C35.339 6.75978 35.3741 6.68879 35.4396 6.66661C35.4582 6.66027 37.3223 6.03272 38.9535 5.708C39.5744 5.58445 39.9786 5.03552 40.0352 4.23992C40.0933 3.42229 39.7346 2.4477 38.9364 2.16675C38.8711 2.14371 38.8369 2.07243 38.8598 2.00706C38.8827 1.94168 38.9542 1.90727 39.0195 1.93045C39.936 2.25301 40.3499 3.34525 40.2851 4.25749C40.221 5.15893 39.7295 5.8088 39.0025 5.95338C37.3869 6.27493 35.5384 6.89744 35.5198 6.90364C35.5066 6.90824 35.4932 6.9104 35.4798 6.9104Z" fill="#1D1D1D"/>
<path d="M38.9376 7.56543C38.8784 7.56543 38.8258 7.52324 38.8146 7.46291C38.8021 7.39508 38.847 7.32971 38.915 7.31703C39.028 7.29601 41.6803 6.77804 41.3997 4.6418C41.3906 4.5734 41.439 4.51033 41.5075 4.5014C41.5755 4.49089 41.639 4.54071 41.6479 4.60926C41.9596 6.98137 38.9906 7.5578 38.9605 7.56327C38.9527 7.56471 38.9451 7.56543 38.9376 7.56543Z" fill="#1D1D1D"/>
<path d="M57.4299 30.1986C57.4145 30.1986 57.3988 30.1957 57.3837 30.1898C57.3193 30.1643 57.2881 30.0913 57.3136 30.0272C57.3674 29.8919 57.2223 29.5311 57.1019 29.3183C57.0679 29.2581 57.0891 29.1818 57.1493 29.1478C57.2095 29.1138 57.2858 29.135 57.3198 29.195C57.3781 29.298 57.6628 29.8265 57.5463 30.1197C57.5267 30.1688 57.4796 30.1986 57.4299 30.1986Z" fill="#1D1D1D"/>
<path d="M57.3069 28.6642C57.2915 28.6642 57.2756 28.6613 57.2605 28.6553C57.1963 28.6298 57.1649 28.5569 57.1905 28.4927C57.2438 28.3586 57.0958 27.9906 56.9787 27.7841C56.9446 27.7237 56.9658 27.6475 57.0259 27.6134C57.0863 27.5796 57.1625 27.6007 57.1966 27.6606C57.2549 27.7637 57.5399 28.2921 57.423 28.5854C57.4038 28.6344 57.3567 28.6642 57.3069 28.6642Z" fill="#1D1D1D"/>
<path d="M58.5657 30.1521C58.5503 30.1521 58.5346 30.1492 58.5193 30.1431C58.4551 30.1177 58.4237 30.0448 58.4493 29.9806C58.5032 29.8453 58.358 29.4846 58.2376 29.2718C58.2037 29.2116 58.2248 29.1353 58.285 29.1013C58.3451 29.0673 58.4217 29.0885 58.4555 29.1485C58.5138 29.2515 58.7987 29.78 58.6819 30.0733C58.6624 30.1223 58.6154 30.1521 58.5657 30.1521Z" fill="#1D1D1D"/>
<path d="M59.5094 32.217C59.494 32.217 59.4783 32.2142 59.4631 32.2081C59.3988 32.1826 59.3674 32.1098 59.3931 32.0455C59.4469 31.9103 59.3016 31.5496 59.1813 31.3368C59.1473 31.2766 59.1684 31.2003 59.2286 31.1663C59.2887 31.1324 59.3651 31.1536 59.3991 31.2135C59.4574 31.3165 59.7424 31.8449 59.6255 32.1383C59.6063 32.1872 59.5593 32.217 59.5094 32.217Z" fill="#1D1D1D"/>
<path d="M57.5491 27.2065C57.5337 27.2065 57.518 27.2036 57.5027 27.1976C57.4385 27.1721 57.4071 27.0992 57.4327 27.035C57.4866 26.8998 57.3414 26.5391 57.221 26.3262C57.1871 26.266 57.2082 26.1897 57.2684 26.1557C57.3286 26.1218 57.4049 26.1429 57.4389 26.203C57.4972 26.3059 57.7821 26.8344 57.6653 27.1277C57.646 27.1767 57.5989 27.2065 57.5491 27.2065Z" fill="#1D1D1D"/>
<path d="M58.4417 28.2596C58.4262 28.2596 58.4104 28.2567 58.3953 28.2507C58.3311 28.2252 58.2997 28.1523 58.3253 28.0881C58.3786 27.954 58.2306 27.586 58.1135 27.3795C58.0794 27.3191 58.1005 27.243 58.1607 27.2088C58.221 27.1749 58.2974 27.196 58.3314 27.2561C58.3897 27.3592 58.6746 27.8875 58.5577 28.1808C58.5384 28.2298 58.4913 28.2596 58.4417 28.2596Z" fill="#1D1D1D"/>
<path d="M58.5713 32.0571C58.5559 32.0571 58.5401 32.0542 58.5249 32.0482C58.4607 32.0227 58.4293 31.9498 58.4549 31.8856C58.5088 31.7505 58.3635 31.3898 58.2433 31.1768C58.2093 31.1166 58.2304 31.0403 58.2906 31.0063C58.351 30.9721 58.4272 30.9935 58.4611 31.0537C58.5195 31.1567 58.8043 31.6851 58.6875 31.9783C58.6682 32.0273 58.6211 32.0571 58.5713 32.0571Z" fill="#1D1D1D"/>
<path d="M16.9109 34.2651C16.8676 34.2651 16.8255 34.2426 16.8022 34.2023C16.6448 33.9286 16.8513 33.365 16.8943 33.2548C16.9195 33.1904 16.9927 33.1585 17.0565 33.1837C17.1209 33.2087 17.1527 33.2813 17.1276 33.3458C17.0389 33.5738 16.9466 33.9513 17.0193 34.0775C17.0538 34.1375 17.0332 34.214 16.9733 34.2485C16.9537 34.2598 16.9321 34.2651 16.9109 34.2651Z" fill="#1D1D1D"/>
<path d="M16.8137 32.7289C16.7704 32.7289 16.7283 32.7064 16.705 32.6661C16.5476 32.3923 16.7541 31.8287 16.7972 31.7185C16.8224 31.6542 16.8954 31.6222 16.9593 31.6474C17.0237 31.6725 17.0555 31.745 17.0305 31.8096C16.9417 32.0375 16.8494 32.4151 16.9222 32.5412C16.9566 32.6013 16.936 32.6777 16.8761 32.7123C16.8565 32.7234 16.8349 32.7289 16.8137 32.7289Z" fill="#1D1D1D"/>
<path d="M15.7803 34.3812C15.7369 34.3812 15.6949 34.3587 15.6716 34.3184C15.5142 34.0446 15.7207 33.481 15.7637 33.3709C15.7888 33.3063 15.8618 33.2747 15.9259 33.2997C15.9902 33.3248 16.0221 33.3973 15.997 33.4619C15.9083 33.6898 15.816 34.0674 15.8887 34.1935C15.9231 34.2536 15.9025 34.33 15.8426 34.3646C15.8231 34.3757 15.8015 34.3812 15.7803 34.3812Z" fill="#1D1D1D"/>
<path d="M15.1409 36.5595C15.0975 36.5595 15.0555 36.537 15.0322 36.4967C14.8748 36.223 15.0813 35.6593 15.1243 35.5492C15.1495 35.4847 15.2221 35.4527 15.2865 35.4781C15.3508 35.5031 15.3827 35.5757 15.3576 35.6402C15.2689 35.8681 15.1766 36.2457 15.2493 36.3719C15.2837 36.4319 15.2631 36.5084 15.2032 36.5429C15.1835 36.5542 15.1621 36.5595 15.1409 36.5595Z" fill="#1D1D1D"/>
<path d="M16.3657 31.3205C16.3224 31.3205 16.2803 31.298 16.257 31.2577C16.0996 30.984 16.3061 30.4203 16.3492 30.3102C16.3744 30.2457 16.447 30.2137 16.5113 30.239C16.5757 30.2641 16.6075 30.3367 16.5825 30.4012C16.4938 30.6291 16.4014 31.0067 16.4742 31.1328C16.5086 31.1929 16.488 31.2694 16.4281 31.3039C16.4085 31.3152 16.3869 31.3205 16.3657 31.3205Z" fill="#1D1D1D"/>
<path d="M15.6329 32.4903C15.5895 32.4903 15.5475 32.4679 15.5242 32.4276C15.3666 32.1538 15.5733 31.5901 15.6163 31.4799C15.6414 31.4155 15.7144 31.3836 15.7785 31.4088C15.8428 31.434 15.8747 31.5064 15.8496 31.5709C15.7609 31.7989 15.6686 32.1764 15.7413 32.3027C15.7757 32.3626 15.7551 32.4392 15.6952 32.4738C15.6755 32.4849 15.6541 32.4903 15.6329 32.4903Z" fill="#1D1D1D"/>
<path d="M16.0464 36.2674C16.0031 36.2674 15.961 36.2449 15.9377 36.2046C15.7803 35.9309 15.9868 35.3672 16.0298 35.2571C16.055 35.1926 16.1276 35.1606 16.192 35.1859C16.2564 35.211 16.2882 35.2836 16.2631 35.3481C16.1744 35.576 16.0821 35.9536 16.1548 36.0797C16.1892 36.1398 16.1687 36.2163 16.1088 36.2508C16.089 36.2621 16.0676 36.2674 16.0464 36.2674Z" fill="#1D1D1D"/>
<path d="M45.0276 39.6407C44.9988 39.6407 44.97 39.631 44.9464 39.6108C44.8936 39.566 44.8875 39.487 44.9322 39.4344C45.0954 39.2429 45.0549 38.6264 44.991 38.283C44.9785 38.215 45.0233 38.1498 45.0912 38.137C45.1592 38.1246 45.2244 38.1691 45.2372 38.237C45.2564 38.34 45.4161 39.2524 45.1226 39.5967C45.0981 39.6259 45.0628 39.6407 45.0276 39.6407Z" fill="#1D1D1D"/>
<path d="M49.0705 30.3975C49.0386 30.3975 49.007 30.3854 48.9825 30.3614C48.8038 30.1845 48.1863 30.1795 47.8386 30.2171C47.7702 30.225 47.7079 30.175 47.7005 30.1063C47.693 30.0377 47.7425 29.9757 47.8112 29.9682C47.9149 29.9566 48.8368 29.8653 49.1586 30.1834C49.2077 30.232 49.2083 30.3113 49.1596 30.3604C49.135 30.3851 49.1027 30.3975 49.0705 30.3975Z" fill="#1D1D1D"/>
<path d="M48.341 31.4998C48.3092 31.4998 48.2773 31.4877 48.253 31.4637C48.0744 31.2868 47.457 31.2815 47.1091 31.3194C47.0402 31.3267 46.9785 31.2773 46.971 31.2086C46.9635 31.1399 47.013 31.078 47.0817 31.0705C47.1854 31.0589 48.1073 30.9676 48.4291 31.2857C48.4782 31.3343 48.4788 31.4135 48.4301 31.4626C48.4056 31.4874 48.3732 31.4998 48.341 31.4998Z" fill="#1D1D1D"/>
<path d="M46.9594 30.2979C46.9276 30.2979 46.8958 30.2858 46.8714 30.2618C46.692 30.0845 46.0744 30.0789 45.7275 30.1174C45.6574 30.1238 45.5969 30.0752 45.5894 30.0066C45.5818 29.9379 45.6314 29.876 45.7001 29.8685C45.8041 29.857 46.726 29.7657 47.0475 30.0838C47.0966 30.1325 47.0972 30.2117 47.0486 30.2608C47.0239 30.2857 46.9917 30.2979 46.9594 30.2979Z" fill="#1D1D1D"/>
<path d="M29.5314 31.9432C29.4849 31.9432 29.4404 31.9173 29.4187 31.8728C29.3884 31.8108 29.4142 31.7357 29.4765 31.7055C29.5709 31.6598 30.4087 31.2637 30.8176 31.4546C30.8804 31.4839 30.9073 31.5585 30.8781 31.6211C30.849 31.6838 30.7744 31.7108 30.7116 31.6816C30.4822 31.575 29.8999 31.7778 29.586 31.9307C29.5684 31.9392 29.5497 31.9432 29.5314 31.9432Z" fill="#1D1D1D"/>
<path d="M28.539 33.2812C28.4925 33.2812 28.448 33.2553 28.4262 33.2108C28.396 33.1488 28.4218 33.0737 28.4841 33.0435C28.5781 32.9978 29.4152 32.6014 29.8252 32.7926C29.8878 32.8219 29.9149 32.8963 29.8857 32.9591C29.8564 33.0219 29.7823 33.0488 29.7192 33.0196C29.4908 32.9136 28.9076 33.1159 28.5936 33.2687C28.576 33.2772 28.5573 33.2812 28.539 33.2812Z" fill="#1D1D1D"/>
<path d="M26.7885 32.8744C26.742 32.8744 26.6975 32.8485 26.6757 32.804C26.6455 32.742 26.6713 32.6669 26.7336 32.6367C26.8278 32.591 27.6659 32.1945 28.0747 32.3858C28.1375 32.4151 28.1644 32.4897 28.1352 32.5523C28.1061 32.6151 28.0315 32.6422 27.9687 32.6128C27.7396 32.5056 27.1568 32.709 26.8431 32.8619C26.8255 32.8704 26.8068 32.8744 26.7885 32.8744Z" fill="#1D1D1D"/>
<path d="M26.2951 33.9908C26.2486 33.9908 26.2041 33.9649 26.1823 33.9204C26.1521 33.8583 26.1779 33.7833 26.2402 33.753C26.3344 33.7072 27.1725 33.3108 27.5813 33.5022C27.6441 33.5314 27.671 33.606 27.6418 33.6686C27.6125 33.7313 27.5385 33.7584 27.4753 33.7291C27.2462 33.6224 26.6634 33.8255 26.3497 33.9782C26.3321 33.9867 26.3134 33.9908 26.2951 33.9908Z" fill="#1D1D1D"/>
<path d="M24.4543 34.1068C24.4078 34.1068 24.3633 34.0809 24.3415 34.0364C24.3113 33.9743 24.337 33.8993 24.3994 33.8691C24.4937 33.8234 25.3312 33.4273 25.7405 33.6182C25.8033 33.6475 25.8302 33.722 25.801 33.7847C25.7719 33.8473 25.6974 33.8743 25.6345 33.8452C25.4052 33.7385 24.8228 33.9414 24.5088 34.0943C24.4913 34.1028 24.4726 34.1068 24.4543 34.1068Z" fill="#1D1D1D"/>
<path d="M50.5578 31.4847C50.526 31.4847 50.4942 31.4726 50.4698 31.4486C50.2908 31.2715 49.6732 31.2659 49.3259 31.3042C49.2553 31.3118 49.1953 31.2621 49.1878 31.1934C49.1802 31.1247 49.2298 31.0628 49.2985 31.0553C49.4022 31.0438 50.3244 30.9524 50.6459 31.2706C50.695 31.3193 50.6956 31.3985 50.6469 31.4476C50.6223 31.4725 50.5901 31.4847 50.5578 31.4847Z" fill="#1D1D1D"/>
<path d="M53.7053 59.5973C53.6765 59.5973 53.6477 59.5875 53.624 59.5675C53.5715 59.5225 53.5651 59.4435 53.6099 59.3909C53.7734 59.1991 53.7328 58.5829 53.6687 58.2395C53.6562 58.1715 53.7008 58.1062 53.7688 58.0933C53.8376 58.0815 53.9021 58.1256 53.9149 58.1934C53.9341 58.2964 54.0938 59.2088 53.8006 59.5531C53.7758 59.5824 53.7405 59.5973 53.7053 59.5973Z" fill="#1D1D1D"/>
<path d="M54.8561 58.3417C54.8273 58.3417 54.7985 58.3319 54.7749 58.3119C54.7224 58.2669 54.716 58.188 54.7608 58.1353C54.9242 57.9435 54.8836 57.3273 54.8196 56.9839C54.807 56.9159 54.8517 56.8505 54.9196 56.8377C54.9886 56.8259 55.053 56.87 55.0658 56.9378C55.085 57.0408 55.2446 57.9531 54.9515 58.2975C54.9267 58.3268 54.8914 58.3417 54.8561 58.3417Z" fill="#1D1D1D"/>
<path d="M53.633 57.3228C53.6042 57.3228 53.5754 57.313 53.5518 57.293C53.4992 57.2481 53.4929 57.1692 53.5377 57.1165C53.7011 56.9247 53.6605 56.3085 53.5964 55.965C53.5839 55.8971 53.6285 55.8317 53.6965 55.8189C53.7655 55.8064 53.8298 55.851 53.8427 55.919C53.8618 56.0219 54.0215 56.9343 53.7283 57.2786C53.7036 57.3078 53.6683 57.3228 53.633 57.3228Z" fill="#1D1D1D"/>
<path d="M54.3894 55.8365C54.3606 55.8365 54.3318 55.8267 54.3081 55.8067C54.2556 55.7618 54.2493 55.6828 54.2939 55.6301C54.4573 55.4383 54.4167 54.8222 54.3526 54.4787C54.3401 54.4107 54.3848 54.3454 54.4527 54.3326C54.5211 54.3205 54.5861 54.3648 54.5989 54.4326C54.618 54.5356 54.7777 55.448 54.4845 55.7923C54.4599 55.8215 54.4248 55.8365 54.3894 55.8365Z" fill="#1D1D1D"/>
<path d="M54.9284 60.545C54.8996 60.545 54.8708 60.5352 54.8472 60.5152C54.7946 60.4702 54.7883 60.3912 54.8331 60.3386C54.9965 60.1467 54.9559 59.5305 54.8918 59.1872C54.8793 59.1192 54.9239 59.0539 54.9919 59.041C55.0607 59.029 55.1252 59.0733 55.1381 59.1411C55.1572 59.2441 55.3169 60.1566 55.0237 60.5009C54.999 60.53 54.9637 60.545 54.9284 60.545Z" fill="#1D1D1D"/>
<path d="M53.7774 62.088C53.7487 62.088 53.7199 62.0782 53.6963 62.0582C53.6437 62.0133 53.6374 61.9342 53.6822 61.8816C53.8456 61.6897 53.805 61.0735 53.7409 60.7302C53.7284 60.6623 53.7731 60.5967 53.841 60.5842C53.9097 60.571 53.9744 60.6165 53.9872 60.6843C54.0063 60.7872 54.166 61.6998 53.8729 62.0441C53.8481 62.0732 53.8128 62.088 53.7774 62.088Z" fill="#1D1D1D"/>
<path d="M54.7839 63.1623C54.7551 63.1623 54.7263 63.1525 54.7027 63.1325C54.6501 63.0875 54.6438 63.0085 54.6885 62.9559C54.852 62.764 54.8114 62.1478 54.7473 61.8045C54.7348 61.7365 54.7794 61.671 54.8474 61.6585C54.9165 61.6455 54.9809 61.6904 54.9935 61.7586C55.0127 61.8615 55.1724 62.774 54.8792 63.1183C54.8544 63.1473 54.8193 63.1623 54.7839 63.1623Z" fill="#1D1D1D"/>
<path d="M31.7745 65.0881C31.6298 65.0881 31.4955 65.0657 31.3938 65.0062C31.3342 64.9712 31.314 64.8947 31.3489 64.835C31.3839 64.7754 31.4603 64.7548 31.5202 64.79C31.738 64.9172 32.3373 64.7687 32.6642 64.6458C32.7291 64.622 32.801 64.6541 32.8255 64.7186C32.8499 64.7834 32.8172 64.8556 32.7524 64.88C32.68 64.9074 32.1852 65.0881 31.7745 65.0881Z" fill="#1D1D1D"/>
<path d="M33.2125 66.0008C33.0679 66.0008 32.9337 65.9784 32.832 65.9189C32.7724 65.8839 32.7523 65.8074 32.7871 65.7477C32.8221 65.6882 32.8984 65.6677 32.9585 65.7027C33.1758 65.8296 33.7755 65.6817 34.1024 65.5582C34.1671 65.534 34.2393 65.5665 34.2637 65.631C34.2882 65.6958 34.2555 65.768 34.1908 65.7925C34.1182 65.8198 33.6233 66.0008 33.2125 66.0008Z" fill="#1D1D1D"/>
<path d="M34.0008 64.6176C33.8562 64.6176 33.722 64.5952 33.6204 64.5357C33.5607 64.5007 33.5406 64.4243 33.5754 64.3645C33.6103 64.3049 33.6868 64.2843 33.7468 64.3196C33.9638 64.4463 34.564 64.2985 34.8907 64.175C34.9554 64.1508 35.0274 64.1833 35.052 64.2478C35.0765 64.3126 35.0438 64.3848 34.9792 64.4093C34.9066 64.4368 34.4116 64.6176 34.0008 64.6176Z" fill="#1D1D1D"/>
<path d="M35.597 65.1014C35.4524 65.1014 35.3182 65.0789 35.2166 65.0195C35.1569 64.9845 35.1368 64.908 35.1716 64.8483C35.2065 64.7886 35.2831 64.768 35.343 64.8033C35.5609 64.9309 36.16 64.782 36.4868 64.6588C36.5514 64.6346 36.6237 64.6671 36.6482 64.7316C36.6727 64.7964 36.64 64.8686 36.5753 64.893C36.5026 64.9204 36.0077 65.1014 35.597 65.1014Z" fill="#1D1D1D"/>
<path d="M31.0562 66.4587C30.9117 66.4587 30.7774 66.4363 30.6758 66.3768C30.6162 66.3418 30.596 66.2653 30.6309 66.2056C30.6657 66.1459 30.7423 66.1251 30.8022 66.1606C31.0197 66.2881 31.6193 66.1396 31.9459 66.0161C32.0102 65.9922 32.0828 66.0244 32.1073 66.0889C32.1318 66.1537 32.0991 66.2259 32.0344 66.2503C31.9619 66.2778 31.4669 66.4587 31.0562 66.4587Z" fill="#1D1D1D"/>
<path d="M29.3356 65.5965C29.1909 65.5965 29.0565 65.5741 28.9548 65.5146C28.8952 65.4796 28.8751 65.4028 28.9099 65.3432C28.945 65.2836 29.0217 65.2637 29.0813 65.2984C29.2983 65.4259 29.8982 65.2771 30.2251 65.1542C30.2896 65.1302 30.3619 65.1622 30.3863 65.227C30.4108 65.2918 30.3781 65.364 30.3135 65.3884C30.2409 65.4158 29.7463 65.5965 29.3356 65.5965Z" fill="#1D1D1D"/>
<path d="M28.4546 66.7759C28.3099 66.7759 28.1755 66.7534 28.0737 66.6939C28.0141 66.6589 27.994 66.5825 28.0288 66.5226C28.0638 66.4631 28.1404 66.4434 28.2002 66.4778C28.417 66.6047 29.0171 66.4565 29.3441 66.3335C29.4086 66.3097 29.4809 66.3419 29.5054 66.4064C29.5299 66.4712 29.4972 66.5433 29.4325 66.5678C29.3599 66.5952 28.8654 66.7759 28.4546 66.7759Z" fill="#1D1D1D"/>
<path d="M51.8034 30.9864C51.7716 30.9864 51.7398 30.9743 51.7154 30.9503C51.5361 30.7729 50.9188 30.7674 50.5715 30.806C50.5016 30.8129 50.4407 30.7638 50.4334 30.6953C50.4258 30.6266 50.4754 30.5647 50.5441 30.5572C50.6482 30.5456 51.57 30.4542 51.8915 30.7723C51.9406 30.821 51.9412 30.9002 51.8925 30.9493C51.8679 30.974 51.8357 30.9864 51.8034 30.9864Z" fill="#1D1D1D"/>
<path d="M43.8139 41.3651C43.7851 41.3651 43.7563 41.3553 43.7327 41.3351C43.68 41.2903 43.6738 41.2113 43.7186 41.1587C43.8818 40.9672 43.8413 40.3507 43.7774 40.0073C43.7648 39.9393 43.8096 39.8741 43.8776 39.8613C43.9457 39.8495 44.0108 39.8935 44.0236 39.9614C44.0428 40.0643 44.2025 40.9769 43.909 41.321C43.8845 41.3502 43.8494 41.3651 43.8139 41.3651Z" fill="#1D1D1D"/>
<path d="M45.5691 41.6947C45.5403 41.6947 45.5115 41.6849 45.4879 41.6649C45.4352 41.6199 45.429 41.5409 45.4737 41.4883C45.6369 41.2968 45.5964 40.6803 45.5326 40.3369C45.5201 40.2689 45.5649 40.2037 45.6329 40.1909C45.7007 40.1791 45.7662 40.2231 45.7789 40.2911C45.7979 40.3939 45.9576 41.3064 45.6644 41.6507C45.6396 41.6797 45.6045 41.6947 45.5691 41.6947Z" fill="#1D1D1D"/>
<path d="M44.4204 43.4058C44.3916 43.4058 44.3628 43.396 44.3392 43.3759C44.2865 43.3311 44.2803 43.2521 44.3251 43.1995C44.4885 43.0075 44.4479 42.3915 44.384 42.0481C44.3714 41.9801 44.4162 41.9149 44.4842 41.902C44.5519 41.8898 44.6174 41.9343 44.6302 42.0023C44.6492 42.1051 44.8089 43.0176 44.5156 43.3619C44.491 43.391 44.4558 43.4058 44.4204 43.4058Z" fill="#1D1D1D"/>
<path d="M43.7417 45.1175C43.7129 45.1175 43.6841 45.1077 43.6605 45.0876C43.6078 45.0428 43.6016 44.9637 43.6462 44.9112C43.8094 44.7196 43.7689 44.1032 43.7051 43.7597C43.6926 43.6918 43.7374 43.6265 43.8054 43.6137C43.8736 43.6019 43.9386 43.646 43.9514 43.714C43.9704 43.8168 44.1301 44.7293 43.8367 45.0736C43.8123 45.1025 43.7771 45.1175 43.7417 45.1175Z" fill="#1D1D1D"/>
<path d="M45.6415 44.4897C45.6127 44.4897 45.5839 44.4799 45.5603 44.4599C45.5078 44.415 45.5014 44.3361 45.5462 44.2834C45.7096 44.0915 45.669 43.4754 45.6051 43.1319C45.5926 43.064 45.6374 42.9987 45.7053 42.9859C45.773 42.9741 45.8385 43.0182 45.8513 43.0861C45.8704 43.189 46.03 44.1015 45.7369 44.4458C45.7121 44.4747 45.6768 44.4897 45.6415 44.4897Z" fill="#1D1D1D"/>
<path d="M45.2389 46.3671C45.2193 46.3671 45.1994 46.3625 45.1808 46.3529C45.1196 46.3206 45.096 46.2449 45.1281 46.1838C45.2453 45.9606 45.0702 45.3686 44.9323 45.0477C44.9051 44.9842 44.9343 44.9106 44.998 44.8832C45.0612 44.8563 45.135 44.8852 45.1624 44.9489C45.2037 45.0449 45.5603 45.9 45.3499 46.3003C45.3274 46.3428 45.2838 46.3671 45.2389 46.3671Z" fill="#1D1D1D"/>
<path d="M46.9436 38.2913C46.942 38.2913 46.9406 38.2913 46.9391 38.2912C46.87 38.2887 46.816 38.2309 46.8185 38.1617C46.9273 35.067 45.2921 30.9489 45.2757 30.9077C45.2499 30.8435 45.281 30.7707 45.3452 30.745C45.4093 30.719 45.4823 30.7503 45.5079 30.8146C45.5246 30.8563 47.1793 35.0224 47.0686 38.1705C47.0662 38.2382 47.0107 38.2913 46.9436 38.2913Z" fill="#1D1D1D"/>
<path d="M29.6399 41.6947C29.5946 41.6947 29.5508 41.67 29.5286 41.6271C29.5161 41.6024 28.2678 39.1421 28.6041 36.1919C28.6118 36.1234 28.672 36.0726 28.7427 36.0818C28.8114 36.0895 28.8606 36.1516 28.8528 36.2203C28.5251 39.0957 29.7387 41.4882 29.7511 41.5122C29.7828 41.5736 29.7587 41.6492 29.6973 41.6809C29.6788 41.6901 29.6592 41.6947 29.6399 41.6947Z" fill="#1D1D1D"/>
<path d="M38.2952 50.0299C37.7385 50.0299 37.1679 49.9936 36.5858 49.9124C36.5174 49.9029 36.4696 49.8397 36.4791 49.7712C36.4885 49.7026 36.5511 49.6539 36.6204 49.6645C41.2153 50.3041 44.9686 48.163 46.0478 47.3792C43.9272 47.8886 34.286 49.0093 33.8494 49.0599C33.7807 49.0684 33.7185 49.0188 33.7106 48.9501C33.7026 48.8814 33.7517 48.8192 33.8204 48.8113C33.9343 48.798 45.2245 47.4857 46.2764 47.0523C46.349 47.0222 46.4841 46.9668 46.5646 47.0553C46.5806 47.073 46.6292 47.1383 46.579 47.2334C46.3805 47.6097 42.8311 50.0298 38.2952 50.0299Z" fill="#1D1D1D"/>
<path d="M37.7415 33.0557C37.6969 33.0557 37.6523 33.0542 37.6068 33.0514C35.4302 32.9137 32.6712 31.044 32.5548 30.9644C32.4978 30.9254 32.4831 30.8474 32.522 30.7904C32.5611 30.7334 32.6391 30.7187 32.6961 30.7576C32.724 30.7767 35.5152 32.668 37.6226 32.8014C39.6655 32.9333 40.8769 29.582 40.8888 29.548C40.9118 29.4829 40.9833 29.4488 41.0486 29.4715C41.1139 29.4946 41.148 29.566 41.1251 29.6314C41.0749 29.7738 39.8922 33.0557 37.7415 33.0557Z" fill="#1D1D1D"/>
<path d="M57.5685 36.7053C57.5401 36.7053 57.5116 36.6957 57.4881 36.6759C56.4336 35.7911 56.4031 33.1243 56.4023 33.0111C56.4019 32.942 56.4575 32.8856 56.5266 32.8851C56.5269 32.8851 56.5272 32.8851 56.5275 32.8851C56.5962 32.8851 56.6522 32.9406 56.6526 33.0094C56.6529 33.0359 56.6829 35.6733 57.6488 36.4841C57.7018 36.5285 57.7087 36.6075 57.6642 36.6604C57.6397 36.6902 57.6043 36.7053 57.5685 36.7053Z" fill="#1D1D1D"/>
<path d="M17.5437 42.2347C17.5271 42.2347 17.5104 42.2316 17.4943 42.2247C17.4308 42.1974 17.4014 42.1239 17.4286 42.0602C17.5994 41.662 17.8788 39.0781 17.9721 38.1159C17.9788 38.0472 18.0393 37.9965 18.1087 38.0034C18.1776 38.0101 18.228 38.0713 18.2212 38.1401C18.2074 38.2829 17.8798 41.6436 17.6586 42.159C17.6384 42.2064 17.5922 42.2347 17.5437 42.2347Z" fill="#1D1D1D"/>
</g>
<defs>
<clipPath id="clip0_571_10991">
<rect width="72" height="72" fill="white"/>
</clipPath>
</defs>
</svg>
