<svg width="32" height="32" viewBox="0 0 32 32" fill="none" xmlns="http://www.w3.org/2000/svg">
<path d="M31.625 18.1657C31.6581 15.7282 29.6763 14.587 29.5919 14.5407L29.5156 14.4982L27.0625 13.6251L27.0375 13.5801L26.8194 12.7857C26.9679 12.5699 27.0643 12.3225 27.1009 12.0631C27.1376 11.8037 27.1135 11.5393 27.0306 11.2907C27.065 11.0801 27.0931 10.8589 27.1131 10.6289C27.2506 9.08636 26.3725 7.84824 24.9706 7.44136C25.0267 7.1761 25.0684 6.908 25.0956 6.63824C25.1745 5.88471 25.1954 5.12622 25.1581 4.36949C25.1444 4.09449 25.1194 3.58136 24.85 3.10511C24.1494 1.86886 22.5819 1.86011 21.1625 1.81574C19.725 1.77199 17.9194 1.66511 15.2006 2.15949C14.7631 2.23886 14.2631 2.35199 13.8156 2.69824C12.8981 3.41074 12.8475 4.57949 12.8194 5.21699L12.7681 6.38886C11.9175 6.11074 9.25688 5.75011 6.70062 5.87511C4.605 5.97761 2.32563 5.78199 2.19688 8.44699C2.15916 9.20372 2.18006 9.96223 2.25938 10.7157C2.335 11.4301 2.50938 12.3939 3.11063 13.1451C2.96422 13.3499 2.85427 13.5785 2.78562 13.8207C2.7125 14.0707 2.5 14.8051 2.565 18.022C2.09189 18.2193 1.67536 18.5314 1.35304 18.93C1.03071 19.3286 0.812719 19.8012 0.71875 20.3051C0.46875 21.602 1.30688 24.0126 1.6475 24.9101L1.53875 25.7664L0.375 25.7789V28.9039H1.1875V30.1826L20.3125 30.2376V28.9007H20.9831C21.1194 29.0923 21.2811 29.2645 21.4638 29.4126C21.7231 29.5051 22.0262 29.807 24.365 29.807C26.0356 29.807 27.9331 29.6689 29.59 29.5139L30.4694 28.1164L30.0888 24.2057C30.4413 23.2457 31.6006 19.9432 31.625 18.1657Z" fill="white"/>
<path d="M20.6088 2.82871C18.8619 2.74574 17.1113 2.86169 15.3906 3.17434C14.3806 3.35809 13.9294 3.66684 13.8606 5.24746C13.7919 6.80996 13.6169 8.06371 14.3606 8.76434C14.9044 9.27684 15.74 9.27434 16.4856 9.24059C17.395 9.19934 18.305 9.15809 19.2356 9.11871L19.8606 9.92121C19.9938 10.0931 20.1875 10.285 20.3938 10.2168C20.5775 10.1543 20.6369 9.92621 20.6344 9.73309C20.6319 9.53996 20.6 9.33059 20.7163 9.11184C21.5469 9.18121 22.4663 9.22684 23.1263 8.72121C23.7788 8.22121 23.9831 7.33934 24.07 6.52371C24.1446 5.82342 24.1655 5.11844 24.1325 4.41496C24.0913 3.57996 23.8575 3.05496 22.465 2.91871C21.8025 2.85434 21.1394 2.85371 20.6088 2.82871Z" fill="#00ABFE"/>
<path d="M13.5551 10.5875C13.4926 9.11811 13.5551 8.09811 12.9038 7.59436C12.6388 7.38936 12.2988 7.31623 11.9663 7.25623C10.2454 6.94367 8.49464 6.8275 6.74756 6.90998C6.22006 6.93748 5.55756 6.93748 4.90006 6.99998C3.49069 7.13936 3.27194 7.68748 3.23256 8.49998C3.199 9.20346 3.21989 9.90848 3.29506 10.6087C3.38131 11.4244 3.58631 12.3087 4.23881 12.8062C4.90131 13.3112 5.81819 13.2656 6.64881 13.1975L8.12756 13.2037C9.04819 13.2431 9.90569 13.2812 10.8563 13.3237C10.7026 14.0231 10.6063 14.3237 10.7032 14.4331C10.7694 14.5062 10.8907 14.4619 10.9707 14.4062C11.3457 14.1462 11.5807 13.74 11.7776 13.3206C11.9576 13.2887 12.5426 13.2819 13.0026 12.85C13.5826 12.2975 13.5888 11.3875 13.5551 10.5875Z" fill="#FF605B"/>
<path d="M15.3644 4.90304C15.1707 4.96554 15.0476 5.07992 15.1438 5.17554C15.2688 5.30054 15.6388 5.31679 15.9451 5.31867C16.9563 5.32367 22.1532 5.31867 22.8913 5.05554C23.0501 4.99867 23.1344 4.89304 23.0238 4.81742C22.9294 4.75492 22.7382 4.73492 22.5663 4.72367C20.5226 4.58992 16.0232 4.69242 15.3644 4.90304Z" fill="white"/>
<path d="M16.0057 6.0331C15.7432 6.04435 14.9482 6.0881 14.9307 6.3531C14.9244 6.44435 15.0425 6.5256 15.1807 6.57373C15.7963 6.78998 18.3538 6.62185 19.05 6.55685C20.0232 6.46685 19.97 6.14998 19.5694 6.05248C19.1688 5.95498 16.4157 6.01685 16.0057 6.0331Z" fill="white"/>
<path d="M6.7805 8.93746C6.74 8.9266 6.70252 8.90661 6.67095 8.87902C6.63938 8.85142 6.61456 8.81696 6.59838 8.77827C6.58221 8.73959 6.57512 8.69771 6.57765 8.65586C6.58018 8.614 6.59228 8.57329 6.613 8.53683C6.8005 8.21558 7.20737 7.78058 8.028 7.89246C9.29737 8.06496 9.28487 9.25996 8.903 9.78996C8.52112 10.32 7.91737 10.8368 7.903 11.1943V11.3193C7.89925 11.6137 7.57987 11.6525 7.603 11.64C7.55496 11.6436 7.50671 11.6365 7.46176 11.6192C7.4168 11.6018 7.37628 11.5747 7.34312 11.5398C7.30996 11.5048 7.28501 11.4629 7.27007 11.4171C7.25513 11.3713 7.25058 11.3227 7.25675 11.275C7.29737 10.9706 7.45675 10.525 7.96925 10.0787C8.32175 9.77183 8.60175 9.39683 8.49612 8.94871C8.333 8.25246 7.55425 8.26121 7.30237 8.49933C7.22097 8.57754 7.15706 8.67212 7.11487 8.77683C7.08889 8.84024 7.04033 8.89175 6.97856 8.92142C6.9168 8.95109 6.84623 8.95681 6.7805 8.93746Z" fill="white"/>
<path d="M7.66447 12.4693C7.82947 12.4693 7.96322 12.3356 7.96322 12.1706C7.96322 12.0056 7.82947 11.8718 7.66447 11.8718C7.49948 11.8718 7.36572 12.0056 7.36572 12.1706C7.36572 12.3356 7.49948 12.4693 7.66447 12.4693Z" fill="white"/>
<path d="M10.8057 23.9674L11.8125 25.6874L11.6 25.7499L10.5875 24.098C10.5157 23.9805 10.6625 23.8999 10.65 23.9105C10.6784 23.8993 10.7099 23.899 10.7386 23.9094C10.7673 23.9199 10.7911 23.9405 10.8057 23.9674Z" fill="#FF605B"/>
<path d="M5.58878 13.4918C5.58878 13.4918 4.12941 12.9193 3.78316 14.11C3.43691 15.3006 3.66753 19.9175 3.66753 19.9175L6.16441 19.4612L5.58878 13.4918Z" fill="#FFB020"/>
<path d="M6.4143 16.8242L5.13867 18.6367C5.13867 18.6367 5.41617 20.4292 6.4143 20.3367C7.41242 20.2442 7.6643 18.7292 7.6643 18.7292L7.74617 17.8236L6.4143 16.8242Z" fill="#FFC5B6"/>
<path d="M8.93752 14.875C8.93752 14.875 8.98002 13.0244 7.38564 12.7269C5.79127 12.4294 4.48252 13.6331 4.58689 14.8919C4.69127 16.1506 5.2994 17.4025 5.9319 17.4375C6.5644 17.4725 8.0219 15.5775 8.0219 15.5775L8.93752 14.875Z" fill="#FFC364"/>
<path d="M8.93763 14.8751C8.94543 15.54 8.88257 16.204 8.75013 16.8557C8.67826 17.2063 8.56888 17.5782 8.28638 17.7976C7.77826 18.1913 6.41138 18.1063 6.05451 17.1944C5.94168 17.1862 5.83273 17.1498 5.73762 17.0885C5.64252 17.0273 5.5643 16.9431 5.51013 16.8438C5.26576 16.3726 5.76013 15.5863 6.19763 16.5676C6.2675 16.3025 6.32341 16.0341 6.36513 15.7632C6.71307 15.6764 7.04011 15.5208 7.32701 15.3057L6.99701 15.6951C7.07826 15.7363 7.17638 15.6951 7.25763 15.6538C7.80531 15.3692 8.29715 14.9881 8.70951 14.5288C8.70763 14.6601 8.80201 14.7844 8.93763 14.8751Z" fill="#FFC5B6"/>
<path d="M7.13691 17.0094C7.12346 16.9999 7.11427 16.9855 7.11135 16.9694C7.10842 16.9532 7.11199 16.9365 7.12129 16.9229C7.13058 16.9094 7.14484 16.9 7.16098 16.8969C7.17713 16.8938 7.19385 16.8971 7.20753 16.9063C7.33962 16.9953 7.48991 17.0537 7.64745 17.0773C7.80499 17.1008 7.9658 17.089 8.11816 17.0425C8.13399 17.0375 8.15115 17.0391 8.16585 17.0467C8.18056 17.0544 8.19162 17.0676 8.1966 17.0834C8.20157 17.0993 8.20005 17.1164 8.19237 17.1311C8.18469 17.1459 8.17149 17.1569 8.15566 17.1619C8.04441 17.1969 7.42941 17.2106 7.13691 17.0094Z" fill="#EF9B84"/>
<path d="M6.1724 17.5251C6.1683 17.518 6.16564 17.5101 6.16458 17.5019C6.16352 17.4938 6.16408 17.4855 6.16623 17.4775C6.17057 17.4615 6.18111 17.4478 6.19553 17.4395C6.20995 17.4312 6.22707 17.429 6.24313 17.4333C6.25919 17.4377 6.27286 17.4482 6.28115 17.4626C6.29615 17.4895 6.67553 18.1201 7.84365 17.9207C7.86023 17.9179 7.87725 17.9218 7.89096 17.9315C7.90467 17.9413 7.91396 17.956 7.91678 17.9726C7.9196 17.9892 7.91571 18.0062 7.90599 18.0199C7.89626 18.0336 7.88148 18.0429 7.8649 18.0457C6.95365 18.2001 6.36615 17.8651 6.1724 17.5251Z" fill="#EF9B84"/>
<path d="M6.54186 15.6449C6.80549 15.547 7.05562 15.4159 7.28623 15.2549C7.29861 15.2457 7.31394 15.2414 7.32929 15.2428C7.34465 15.2443 7.35893 15.2513 7.36939 15.2626C7.37986 15.274 7.38577 15.2888 7.386 15.3042C7.38622 15.3196 7.38074 15.3345 7.37061 15.3462L7.13623 15.6249C7.75498 15.5062 8.64811 14.4999 8.65811 14.4899C8.66926 14.4783 8.68447 14.4714 8.70056 14.4708C8.71665 14.4701 8.73238 14.4756 8.74447 14.4863C8.75656 14.4969 8.76408 14.5118 8.76545 14.5279C8.76683 14.5439 8.76196 14.5599 8.75186 14.5724C8.70748 14.6224 7.66061 15.7993 6.98873 15.7599C6.97718 15.7592 6.96604 15.7554 6.95655 15.7488C6.94706 15.7421 6.93959 15.733 6.93498 15.7224C6.91061 15.6662 6.97311 15.6343 7.01873 15.5699C6.87887 15.6479 6.73248 15.7136 6.58123 15.7662C6.56515 15.7714 6.54766 15.77 6.5326 15.7623C6.51754 15.7546 6.50614 15.7413 6.50092 15.7252C6.4957 15.7091 6.49708 15.6916 6.50475 15.6766C6.51243 15.6615 6.52578 15.6501 6.54186 15.6449Z" fill="#FFB020"/>
<path d="M5.47986 18.1519L6.26611 19.3006L6.57861 20.1387L7.20361 19.3994L7.67861 18.5819L7.91861 18.8819C7.91861 18.8819 9.12361 19.2887 9.66861 19.9044C10.0167 20.2987 10.3599 24.8575 10.5817 25.2169C10.7317 25.4587 11.9124 27.225 11.9124 27.225L2.42236 27.0506L2.96424 22.7875L3.21424 18.8944L4.99986 18.4875L5.47986 18.1519Z" fill="#A369F7"/>
<path d="M9.09371 21.4631L9.35246 23.0531L8.63184 25.8988H9.40809L9.58121 22.9225L9.09371 21.4631Z" fill="#8A59D8"/>
<path d="M7.9175 18.8819C7.9175 18.8819 7.45875 21.2138 6.75625 22.1469C6 20.8125 5.45438 19.54 5.19938 18.3469L5 18.4875C5.04437 19.4588 5.61937 20.7632 6.70312 22.3876H6.94375C7.52062 21.4238 7.91125 20.2775 8.12813 18.9594L7.9175 18.8819Z" fill="white"/>
<path d="M5.75488 22.2032L7.75488 22.1582L7.76863 24.7901L5.91926 24.8363L5.75488 22.2032Z" fill="#FF605B"/>
<path d="M6.25371 22.8875L7.31434 22.8225L7.35559 23.3069L6.24121 23.3319L6.25371 22.8875Z" fill="#BD3234"/>
<path d="M6.26631 19.3006L5.52756 20.1387L4.99756 18.4875L5.47943 18.1519L6.26631 19.3006Z" fill="#8A59D8"/>
<path d="M7.20312 19.3993L7.64313 20.1968L7.9175 18.8818L7.6775 18.5818L7.20312 19.3993Z" fill="#8A59D8"/>
<path d="M9.87012 25.2148L11.4045 25.1523L12.427 25.818L12.7595 26.668C12.3795 26.668 10.2745 26.7242 10.1107 26.3967L9.87012 25.2148Z" fill="#FFC5B6"/>
<path d="M3.2163 18.8943C3.2163 18.8943 2.00005 19.1712 1.7388 20.4999C1.47755 21.8287 3.0138 26.0262 3.73442 26.7099C4.45505 27.3937 10.1094 26.3974 10.1094 26.3974C10.1094 26.3974 10.2532 25.5518 9.8688 25.2149L5.05255 24.8824L3.90067 21.463C3.90067 21.463 4.10255 19.4118 3.2163 18.8943Z" fill="#A369F7"/>
<path d="M9.62949 25.23L5.05199 24.9131C5.04585 24.9129 5.03991 24.9108 5.03499 24.9071C5.03008 24.9035 5.02641 24.8983 5.02449 24.8925C3.95074 21.6625 3.94512 21.7862 4.00324 21.7675C4.06137 21.7487 3.98199 21.6531 5.07699 24.8537C9.87887 25.2 9.66699 25.1406 9.66262 25.2019C9.66154 25.2098 9.65756 25.2171 9.65145 25.2223C9.64533 25.2275 9.63751 25.2302 9.62949 25.23Z" fill="#8A59D8"/>
<path d="M2.2251 29.145V27.5681H19.2776V29.1944L2.2251 29.145Z" fill="#ED6C4D"/>
<path d="M1.41187 26.8044V27.8638H19.9919V26.6013L1.41187 26.8044Z" fill="#FFAD92"/>
<path d="M25.9056 14.3125L29.0844 15.4462C29.0844 15.4462 30.6125 16.3019 30.5844 18.1537C30.5563 20.0056 29.0319 24.0706 29.0319 24.0706L29.4019 27.8656L28.9831 28.5312C28.9831 28.5312 23.2269 29.0731 22.0269 28.5312C21.8198 28.3279 21.6616 28.0802 21.5642 27.8069C21.4667 27.5335 21.4326 27.2416 21.4644 26.9531C21.5631 25.9438 21.6863 23.11 21.6863 23.11C21.6863 23.11 20.7994 23.455 19.9863 22.9988C19.1731 22.5425 18.9631 22.3894 18.9631 22.3894L19.0569 19.9562L19.7888 20.3412L20.9675 16.2787C21.0423 16.0198 21.176 15.7816 21.358 15.5828C21.54 15.3839 21.7655 15.2298 22.0169 15.1325L23.7256 14.47L25.9056 14.3125Z" fill="#FF605B"/>
<path d="M18.8706 20.0589L16.5975 18.347L15.375 17.6039C15.2582 17.533 15.1236 17.497 14.987 17.5002C14.8505 17.5034 14.7177 17.5457 14.6044 17.622L14.0113 18.022C14.0113 18.022 12.9206 19.2789 13.0688 19.3545C13.2169 19.4301 13.5688 19.1451 13.5688 19.1451L14.3081 18.4508C14.3081 18.4508 14.0863 19.3751 14.77 19.4676C15.4538 19.5601 15.6575 19.4858 15.6575 19.4858L19.0119 22.2583L18.8706 20.0589Z" fill="#FFAD92"/>
<path d="M25.6525 12.4438L26.2262 14.5282C26.2262 14.5282 25.45 15.5282 24.8031 15.4382C24.1562 15.3482 23.7312 14.4682 23.7312 14.4682V13.7013L25.6525 12.4438Z" fill="#FFAD92"/>
<path d="M22.0301 10.535C22.0301 10.535 21.7326 8.92434 23.1926 8.46184C24.6526 7.99934 26.2351 8.82622 26.0826 10.535C25.9301 12.2437 25.4288 12.6825 25.4288 12.6825L22.0301 10.535Z" fill="#1D1D3D"/>
<path d="M22.03 10.535C22.1502 11.4309 22.4162 12.3012 22.8175 13.1112C22.9907 13.4606 23.2175 13.8237 23.585 13.9556C24.3007 14.2125 25.6057 13.3768 25.6525 12.4437C25.7493 12.4072 25.8362 12.3487 25.9063 12.2727C25.9765 12.1968 26.0279 12.1055 26.0565 12.0061C26.0852 11.9068 26.0902 11.8021 26.0713 11.7005C26.0524 11.5988 26.01 11.503 25.9475 11.4206C25.9221 11.3826 25.8894 11.35 25.8513 11.3247C25.8132 11.2994 25.7705 11.2819 25.7257 11.2731C25.5325 11.2493 25.3944 11.4668 25.3732 11.66C25.3519 11.8531 25.3907 12.0306 25.4063 12.2031C25.3344 12.2981 25.1732 12.2656 25.0938 12.1725C24.95 12.0025 25.0107 11.7281 24.6825 11.3956C24.6888 10.9187 24.9619 10.2512 24.5894 9.82122C24.4843 9.70595 24.3429 9.63013 24.1887 9.60636C24.0345 9.5826 23.8768 9.61232 23.7419 9.69059C23.4013 9.90059 23.3344 10.3375 22.6688 10.5843C22.4582 10.6637 22.2013 10.6906 22.03 10.535Z" fill="#FFAD92"/>
<path d="M23.3956 13.3212C23.379 13.3226 23.3626 13.3172 23.3499 13.3065C23.3373 13.2957 23.3294 13.2803 23.3281 13.2637C23.3268 13.2472 23.3321 13.2307 23.3429 13.2181C23.3536 13.2054 23.369 13.1976 23.3856 13.1962C23.6086 13.1587 23.8194 13.0684 24.0005 12.9328C24.1815 12.7972 24.3275 12.6203 24.4262 12.4169C24.434 12.4031 24.4467 12.3928 24.4618 12.3881C24.4769 12.3834 24.4932 12.3845 24.5075 12.3914C24.5217 12.3982 24.5329 12.4101 24.5387 12.4248C24.5445 12.4395 24.5445 12.4559 24.5387 12.4706C24.4313 12.6923 24.2724 12.8851 24.0753 13.0329C23.8782 13.1806 23.6485 13.2791 23.4056 13.32L23.3956 13.3212Z" fill="#ED6C4D"/>
<path d="M23.8994 14.0463C23.7902 14.046 23.6812 14.0361 23.5738 14.0169C23.5572 14.014 23.5424 14.0046 23.5328 13.9909C23.5231 13.9771 23.5193 13.9601 23.5222 13.9435C23.5251 13.9269 23.5345 13.9122 23.5482 13.9025C23.562 13.8928 23.5791 13.889 23.5956 13.8919C24.9256 14.1257 25.5194 12.7669 25.525 12.7557C25.5282 12.7481 25.5329 12.7413 25.5388 12.7355C25.5447 12.7298 25.5517 12.7253 25.5593 12.7222C25.5669 12.7192 25.5751 12.7177 25.5833 12.7178C25.5915 12.7179 25.5996 12.7196 25.6072 12.7228C25.6147 12.7261 25.6216 12.7308 25.6273 12.7367C25.633 12.7426 25.6376 12.7495 25.6406 12.7571C25.6437 12.7648 25.6452 12.7729 25.6451 12.7812C25.645 12.7894 25.6432 12.7975 25.64 12.805C25.6344 12.82 25.0969 14.0463 23.8994 14.0463Z" fill="#ED6C4D"/>
<path d="M22.2094 17.1519L21.6919 23.1081L21.3013 23.2044L22.2094 17.1519Z" fill="#BD3234"/>
<path d="M28.2962 18.3469L26.56 22.5425L25.21 22.3876V22.1838L26.4481 22.3876L28.2962 18.3469Z" fill="#BD3234"/>
<path d="M29.0349 24.0688C29.0349 24.0688 28.0349 25.6213 27.3537 25.5688C26.6724 25.5163 25.4312 25.0688 25.4312 25.0688V25.3095C25.4312 25.3095 26.9312 25.7895 27.4087 25.7526C27.8862 25.7157 28.4087 25.1488 28.6843 25.1551C28.9599 25.1613 29.1405 25.1551 29.1405 25.1551L29.0349 24.0688Z" fill="#BD3234"/>
<path d="M19.3668 20.0001C19.215 20.7626 19.2193 21.7114 19.28 22.7276L18.7175 22.5401C18.6412 21.5789 18.5925 20.6332 18.7593 19.8232L19.3668 20.0001Z" fill="#BD3234"/>
<path d="M26.0925 14.0076L25.21 15.0582L25.8012 16.0482L26.3468 14.4682L26.0925 14.0076Z" fill="#BD3234"/>
<path d="M23.7313 14.3105L24.6001 15.028L24.1657 15.9374L23.4819 14.5649L23.7313 14.3105Z" fill="#BD3234"/>
<path d="M25.2099 15.0581L24.6 15.0281L24.3012 15.6525L24.4825 16.0481L23.7312 22.9225L24.4825 23.6806L25.2099 22.9968V16.0481L25.5224 15.5818L25.2099 15.0581Z" fill="#FFB020"/>
<path d="M24.8337 22.3564L21.8444 21.3564L21.885 20.8901C21.885 20.8901 21.2856 20.902 21.1006 21.3333C21.0156 21.5399 20.9428 21.7513 20.8825 21.9664C20.8481 22.0861 20.8513 22.2134 20.8917 22.3313C20.932 22.4491 21.0076 22.5516 21.1081 22.6251C21.2386 22.7255 21.3809 22.8094 21.5319 22.8751C21.5319 22.8751 23.7869 24.317 25.08 24.6495L24.8337 22.3564Z" fill="#FFAD92"/>
<path d="M25.3575 21.8701C25.3575 21.8701 25.8194 24.3526 25.6163 25.4857L24.875 25.3076L24.5981 21.8701H25.3575Z" fill="#BD3234"/>
<path d="M14.6506 19.0169C14.622 18.9938 14.5997 18.964 14.5857 18.9301C14.5717 18.8962 14.5664 18.8593 14.5704 18.8228C14.5744 18.7863 14.5875 18.7514 14.6085 18.7214C14.6295 18.6913 14.6577 18.6669 14.6906 18.6506C15.2274 18.3825 15.3068 18.1256 15.3962 18.2237C15.4073 18.236 15.413 18.2522 15.4122 18.2687C15.4114 18.2852 15.4041 18.3008 15.3918 18.3119C14.8862 18.7731 14.7043 18.715 14.6943 18.8387C14.6843 18.935 14.8387 18.9944 14.9343 18.98C15.3949 18.9144 15.5362 18.7625 15.5749 18.8737C15.5803 18.8893 15.5794 18.9064 15.5722 18.9213C15.5651 18.9362 15.5524 18.9476 15.5368 18.9531C15.3465 19.0199 15.1508 19.0703 14.9518 19.1037C14.8983 19.1108 14.844 19.1067 14.7921 19.0918C14.7403 19.0768 14.6921 19.0513 14.6506 19.0169Z" fill="#ED6C4D"/>
<path d="M19.6357 14.1467C19.4695 15.1048 19.6407 16.0842 19.7851 17.0348C18.6072 17.1815 17.4197 17.2369 16.2332 17.2005C16.212 17.2005 16.1913 17.2005 16.1707 17.2005C15.4463 16.8167 15.3307 16.4036 14.9732 16.2148L14.967 16.2117C15.1401 14.2548 14.8607 13.2386 14.8057 12.053C14.7882 11.6717 14.7945 11.288 14.7876 10.8398C16.5255 10.8561 18.2632 10.9001 20.0007 10.9717C19.732 12.3205 19.7695 11.9917 19.8476 12.5723C19.9176 13.0986 19.7263 13.6248 19.6357 14.1467Z" fill="#EAE5DB"/>
<path d="M15.5062 12.3855C15.6085 12.5571 15.7257 12.7193 15.8562 12.8705C15.8875 12.9061 15.9275 12.9449 15.9744 12.938C16.1094 12.918 16.6525 12.208 16.6562 12.0299C16.6562 11.9561 16.5575 11.918 16.49 11.9486C16.3731 12.0017 16.4169 12.0792 15.9662 12.603C15.8412 12.5324 15.8075 12.3367 15.6606 12.2986C15.59 12.2799 15.4787 12.3392 15.5062 12.3855Z" fill="#1D1D3D"/>
<path d="M17.207 12.4156C17.5501 12.3531 19.0645 12.0481 19.0763 12.3912C19.0763 12.4644 18.9932 12.505 18.922 12.5237C18.6382 12.5981 17.2757 12.8662 17.1157 12.6156C17.1064 12.5967 17.1014 12.576 17.1011 12.555C17.1008 12.534 17.1051 12.5131 17.1139 12.494C17.1226 12.4748 17.1355 12.4579 17.1516 12.4443C17.1677 12.4308 17.1866 12.421 17.207 12.4156Z" fill="white"/>
<path d="M15.5062 14.3669C15.6085 14.5382 15.7257 14.7003 15.8562 14.8513C15.9356 14.9425 15.9812 14.9331 16.0437 14.8781C16.4362 14.5288 16.6544 14.0744 16.6556 14.0106C16.6569 13.9469 16.5569 13.8988 16.4894 13.9294C16.3725 13.9825 16.4162 14.0606 15.9656 14.5844C15.8406 14.5138 15.8069 14.3175 15.66 14.2794C15.59 14.2606 15.4787 14.32 15.5062 14.3669Z" fill="#1D1D3D"/>
<path d="M17.2068 14.3962C17.6454 14.3064 18.0892 14.2437 18.5356 14.2087C19.1406 14.1743 19.1893 14.4318 18.9218 14.5025C18.5812 14.5943 17.6874 14.7437 17.2999 14.6875C16.9999 14.6418 17.0968 14.4168 17.2068 14.3962Z" fill="white"/>
<path d="M16.2331 17.2007C16.2119 17.2007 16.1913 17.2007 16.1706 17.2007C15.4463 16.8169 15.3306 16.4038 14.9731 16.215C15.5594 16.2525 15.8825 16.105 16.1644 16.0669C16.181 16.063 16.1985 16.065 16.2138 16.0725C16.221 16.0788 16.2268 16.0865 16.231 16.0951C16.2352 16.1037 16.2376 16.113 16.2381 16.1225C16.3034 16.4791 16.3017 16.8447 16.2331 17.2007Z" fill="#FFAD92"/>
<path d="M17.1557 23.8013C17.0469 23.9088 16.9919 23.945 14.9988 24.0432C14.7713 24.055 14.3257 24.0775 14.2213 23.8738C14.1626 23.7582 14.1344 22.5513 14.2263 22.3338C14.3732 21.9825 14.7982 21.94 15.1451 21.93C17.0201 21.8763 17.0569 21.7338 17.2557 22.1094C17.339 22.27 17.3851 22.4473 17.3907 22.6282C17.4044 22.9425 17.3401 23.6169 17.1557 23.8013Z" fill="#C72F55"/>
<path d="M17.3357 22.3018C17.0794 22.5243 16.1482 23.2393 15.9088 23.2531C15.6694 23.2668 14.6069 22.6999 14.1951 22.4406C14.2326 22.2231 14.4126 22.0712 14.6201 22.0031C14.7908 21.9545 14.9676 21.9312 15.1451 21.9337C17.0201 21.8799 17.0569 21.7374 17.2557 22.1131C17.2879 22.1735 17.3147 22.2366 17.3357 22.3018Z" fill="#FF605B"/>
</svg>
