<svg width="72" height="72" viewBox="0 0 72 72" fill="none" xmlns="http://www.w3.org/2000/svg">
<g clip-path="url(#clip0_571_10530)">
<path d="M27.3945 32.0979C27.3945 32.0979 37.0412 24.5628 38.1526 23.4251C39.2639 22.2873 28.1684 18.3891 28.1684 18.3891L29.7187 14.4995C29.7187 14.4995 42.9166 21.6691 43.505 23.0835C44.0933 24.4979 29.2639 35.765 29.2639 35.765L27.3945 32.0979Z" fill="#EA8060"/>
<path d="M17.1347 29.6523C17.1347 29.6523 4.8845 21.0568 5.31117 20.3988L16.5561 11.0284L14.4982 7.70473C14.4982 7.70473 -0.280347 18.45 0.00405273 20.4941C0.288453 22.5382 14.7943 33.0928 14.7943 33.0928L17.1347 29.6523Z" fill="#EA8060"/>
<path d="M44.983 51.7032C44.983 51.7032 38.7333 68.8692 29.844 64.9447L40.0156 45.952L44.983 51.7032Z" fill="#F7C67C"/>
<path d="M26.7321 40.5184C26.7321 40.5184 28.4649 51.0072 33.1126 52.7316L22.0611 59.6082C22.0611 59.6082 18.5843 51.6129 16.7273 42.1004L26.7321 40.5184Z" fill="#EA8060"/>
<path d="M64.925 58.6145L69.1542 62.2655L70.099 61.0975L68.5082 60.4213C68.5082 60.4213 70.7264 61.3682 71.9998 57.5439C71.9998 57.5439 67.4546 60.6397 66.5214 56.3495L64.925 58.6145Z" fill="#251426"/>
<path d="M56.4263 61.8731L60.6554 65.524L61.6002 64.3561L60.0096 63.6798C60.0096 63.6798 62.2277 64.6268 63.5011 60.8024C63.5011 60.8024 58.9559 63.8983 58.0228 59.6081L56.4263 61.8731Z" fill="#251426"/>
<path d="M15.3947 8.6583C15.3947 8.6583 22.5052 1.37579 30.037 5.48785C35.672 8.56441 33.5029 28.5336 24.0273 27.4474C17.3106 26.6773 10.4025 13.8089 15.3947 8.6583Z" fill="#EA8060"/>
<path d="M27.3089 17.9919C27.296 17.9919 27.2832 17.9911 27.27 17.9892C26.6074 17.8968 24.452 17.3693 24.3606 17.3468C24.2781 17.3267 24.2277 17.2434 24.2478 17.1609C24.2683 17.0783 24.3527 17.0287 24.4339 17.0483C24.4554 17.0534 26.5222 17.5591 27.2436 17.6741C27.2238 17.2011 26.1603 15.0451 25.0829 13.123C25.0413 13.0491 25.0678 12.9554 25.1418 12.9136C25.2164 12.8722 25.3097 12.8987 25.3512 12.9728C26.2785 14.627 27.7908 17.4659 27.4989 17.8936C27.4554 17.9574 27.3875 17.9919 27.3089 17.9919Z" fill="#1D1D1D"/>
<path d="M24.2768 23.2373C24.185 23.2373 24.0973 23.2069 24.018 23.1466C23.3415 22.6334 23.3916 19.6373 23.3994 19.2973C23.4012 19.2123 23.4721 19.1454 23.5568 19.1471C23.6416 19.1493 23.7088 19.2195 23.707 19.3045C23.6786 20.5276 23.7883 22.5861 24.204 22.9018C24.2413 22.93 24.2745 22.936 24.3187 22.9228C25.0074 22.7128 26.1946 20.5379 26.5939 19.7175C26.631 19.6416 26.7232 19.6094 26.7994 19.6466C26.8758 19.6835 26.9075 19.7758 26.8703 19.852C26.7174 20.1662 25.3494 22.93 24.4081 23.2171C24.3639 23.2308 24.3198 23.2373 24.2768 23.2373Z" fill="#1D1D1D"/>
<path d="M21.3289 14.5541C21.3282 14.5541 21.3275 14.5541 21.3266 14.5541C20.6341 14.5502 20.2303 12.5591 20.1229 11.9491C20.1084 11.8653 20.1642 11.7858 20.2479 11.771C20.3316 11.7544 20.4111 11.8122 20.426 11.8957C20.6255 13.0297 21.0359 14.2448 21.3285 14.2466C21.3285 14.2466 21.3288 14.2466 21.3291 14.2466C21.6042 14.2466 21.831 13.0255 21.8623 11.9281C21.8647 11.8434 21.937 11.7779 22.0204 11.7789C22.1054 11.7814 22.1722 11.8522 22.1697 11.9372C22.1523 12.5513 22.0398 14.5541 21.3289 14.5541Z" fill="#1D1D1D"/>
<path d="M28.5767 14.4572C28.576 14.4572 28.5753 14.4572 28.5744 14.4572C27.9011 14.4533 27.1441 12.4792 26.9282 11.8744C26.8996 11.7945 26.9413 11.7065 27.0213 11.678C27.1003 11.6495 27.1893 11.6909 27.2177 11.771C27.6258 12.9133 28.2612 14.1477 28.5762 14.1496C28.5762 14.1496 28.5765 14.1496 28.5767 14.1496C28.8518 14.1496 29.0786 12.9282 29.11 11.8308C29.1124 11.7461 29.1887 11.6785 29.2681 11.6816C29.353 11.684 29.4199 11.7549 29.4174 11.8398C29.4001 12.454 29.2878 14.4572 28.5767 14.4572Z" fill="#1D1D1D"/>
<path d="M36.2533 14.2781C36.7118 13.4076 36.3778 12.3303 35.5072 11.8718C34.6367 11.4133 33.5594 11.7473 33.1009 12.6178C32.6424 13.4884 32.9764 14.5657 33.847 15.0242C34.7175 15.4827 35.7948 15.1486 36.2533 14.2781Z" fill="#EA8060"/>
<path d="M34.4328 14.883C34.3684 14.883 34.3085 14.8421 34.287 14.7779C34.0366 14.0265 34.0499 13.4652 34.3266 13.1091C34.6442 12.7004 35.1793 12.7336 35.201 12.7358C35.2857 12.7421 35.3493 12.8157 35.3433 12.9004C35.3371 12.9851 35.2677 13.0514 35.1794 13.0428C35.1757 13.0428 34.7825 13.0215 34.568 13.2998C34.3626 13.5662 34.3662 14.0438 34.5786 14.6807C34.6056 14.7612 34.5619 14.8483 34.4814 14.8754C34.4652 14.8805 34.4487 14.883 34.4328 14.883Z" fill="#1D1D1D"/>
<path d="M19.7298 18.7721C20.64 18.3443 21.031 17.2596 20.6032 16.3494C20.1754 15.4393 19.0907 15.0482 18.1805 15.4761C17.2703 15.9039 16.8793 16.9886 17.3071 17.8988C17.735 18.809 18.8196 19.2 19.7298 18.7721Z" fill="#E45442"/>
<path d="M31.8057 17.2548C31.7328 18.2579 30.8606 19.0119 29.8577 18.939C28.8546 18.8662 28.1006 17.994 28.1733 16.9908C28.2462 15.9877 29.1184 15.2338 30.1215 15.3066C31.1244 15.3795 31.8786 16.2517 31.8057 17.2548Z" fill="#E45442"/>
<path d="M25.1411 24.5854L23.8052 32.0979H27.3944C27.3944 32.0979 25.3149 37.5207 22.6971 37.6482C20.0793 37.7758 17.1345 29.6525 17.1345 29.6525L21.672 31.1174L22.0158 24.5854H25.1411Z" fill="#EA8060"/>
<path d="M29.844 59.7902L37.9611 40.5184L61.1386 57.8782L57.2157 64.9447L38.2828 45.952L35.2856 61.5175L29.844 59.7902Z" fill="#F7C67C"/>
<path d="M34.6936 59.3803L47.1297 39.4117L68.5561 55.136L65.649 61.5175L48.8374 45.0874L38.654 62.5661L34.6936 59.3803Z" fill="#F7C67C"/>
<path d="M20.7769 30.4606C20.7769 30.4606 22.0609 36.0081 23.8053 36.418C25.865 36.9022 24.9199 31.8874 24.9199 31.8874L27.3947 32.0979C27.3947 32.0979 38.0603 38.8979 28.6764 43.1446C19.2925 47.3914 14.6245 42.0173 14.4983 36.2985C14.3722 30.5797 17.1348 29.6523 17.1348 29.6523L20.7769 30.4606Z" fill="#E9546A"/>
<path d="M40.7753 42.6263C40.7753 42.6263 36.3256 64.1536 31.4078 64.9447C26.4901 65.7359 22.0608 59.6081 22.0608 59.6081L37.961 40.5183L40.7753 42.6263Z" fill="#F7C67C"/>
<path d="M29.8441 65.0987C29.7883 65.0987 29.7345 65.0683 29.7072 65.0152C29.6685 64.9398 29.6981 64.847 29.7737 64.8082C29.8752 64.756 39.9218 59.449 39.3877 47.8518C39.3849 47.7887 39.4207 47.7301 39.4783 47.7043C39.5358 47.6788 39.6034 47.6902 39.6484 47.7344L44.6806 52.6215C44.7415 52.6807 44.7431 52.778 44.6839 52.8389C44.6249 52.8996 44.5275 52.9012 44.4665 52.842L39.709 48.2217C40.0161 59.7528 30.0165 65.0293 29.9143 65.0815C29.8918 65.0932 29.8677 65.0987 29.8441 65.0987Z" fill="#1D1D1D"/>
<path d="M39.5173 48.0151C39.3946 48.0151 39.1993 47.8643 38.0117 45.149C37.9776 45.0713 38.0132 44.9806 38.0911 44.9466C38.1687 44.9126 38.2597 44.9485 38.2936 45.0259C38.7077 45.9729 39.1812 46.9907 39.4388 47.4673C39.5075 46.8514 39.6198 45.5633 39.6937 44.6582C39.7007 44.5738 39.7763 44.5107 39.8594 44.5176C39.9441 44.5245 40.0072 44.5987 40.0002 44.6834C39.9758 44.9824 39.7593 47.6145 39.6904 47.883C39.6739 47.9464 39.6054 48.0089 39.5399 48.0139C39.5324 48.0145 39.525 48.0151 39.5173 48.0151Z" fill="#1D1D1D"/>
<path d="M54.4687 62.3431C54.4347 62.3431 54.4006 62.332 54.372 62.3088C54.3059 62.2554 54.2957 62.1586 54.3493 62.0925L59.0381 56.2978C59.0915 56.232 59.1886 56.2212 59.2544 56.2749C59.3205 56.3283 59.3307 56.4251 59.2771 56.4912L54.5883 62.2859C54.5581 62.3236 54.5136 62.3431 54.4687 62.3431Z" fill="#1D1D1D"/>
<path d="M63.5009 58.714C63.4768 58.714 63.4524 58.7084 63.4296 58.6963C63.3543 58.657 63.3254 58.5638 63.3648 58.4888L66.0696 53.3398C66.1093 53.2647 66.2019 53.2361 66.2772 53.2753C66.3525 53.3146 66.3815 53.4077 66.342 53.4828L63.6373 58.6318C63.6096 58.684 63.5562 58.714 63.5009 58.714Z" fill="#1D1D1D"/>
<path d="M48.8373 45.2414C48.7742 45.2414 48.7162 45.2023 48.6934 45.1417L47.7708 42.6806C47.741 42.601 47.7813 42.5124 47.861 42.4827C47.9399 42.4515 48.029 42.493 48.0588 42.5726L48.6836 44.2397V42.6266C48.6836 42.5416 48.7525 42.4728 48.8374 42.4728C48.9224 42.4728 48.9912 42.5416 48.9912 42.6266V45.0877C48.9912 45.1622 48.9381 45.2259 48.8649 45.2391C48.8556 45.2403 48.8465 45.2414 48.8373 45.2414Z" fill="#1D1D1D"/>
<path d="M47.3861 47.7315C47.3541 47.7315 47.3217 47.7216 47.2941 47.7009L43.4127 44.7938C43.3447 44.7427 43.3309 44.6463 43.3817 44.5785C43.4326 44.511 43.5287 44.4966 43.597 44.5476L47.4784 47.4546C47.5463 47.5058 47.5602 47.6021 47.5093 47.6699C47.4791 47.7102 47.433 47.7315 47.3861 47.7315Z" fill="#1D1D1D"/>
<path d="M14.3664 63.8535C14.3425 63.8535 14.3183 63.848 14.2958 63.8364C14.2101 63.7919 12.1891 62.7215 11.5356 60.4148C11.0637 58.7488 11.4354 56.8856 12.6404 54.8774C14.7072 51.4321 18.9182 49.9002 22.3018 48.6691C23.5998 48.1967 24.7583 47.7753 25.5906 47.3191C25.2028 47.3029 24.9378 47.201 24.7969 47.0131C24.6004 46.7512 24.6673 46.3716 24.9855 45.9436C25.442 45.3292 26.3087 44.7767 26.8221 44.9646C27.0278 45.0399 27.2652 45.2568 27.2266 45.8611C27.2021 46.2452 27.0215 46.5813 26.7164 46.8873C27.3138 46.7611 28.121 46.5268 29.2105 46.1215C31.2453 45.3643 32.5842 44.1061 33.19 42.3812C34.674 38.1565 31.3106 32.4556 31.2763 32.3986C31.2328 32.3256 31.2564 32.2312 31.3293 32.1877C31.4021 32.1435 31.4966 32.1679 31.5402 32.2406C31.5489 32.2553 32.4192 33.7203 33.0891 35.6985C33.7103 37.5329 34.2824 40.199 33.4801 42.4833C32.8426 44.2981 31.442 45.6192 29.3176 46.4098C28.019 46.893 26.9887 47.1843 26.2321 47.2831C25.3569 47.8849 23.9801 48.3856 22.4069 48.958C19.069 50.1725 14.9149 51.6838 12.904 55.0352C11.7454 56.9665 11.3843 58.7468 11.8305 60.3272C12.4455 62.5049 14.4176 63.5527 14.4375 63.5632C14.5127 63.6022 14.5422 63.6951 14.503 63.7704C14.4755 63.8231 14.4218 63.8535 14.3664 63.8535ZM26.5874 45.2329C26.2209 45.2329 25.6021 45.6293 25.232 46.1269C25.0091 46.4273 24.9381 46.6894 25.0427 46.8288C25.1078 46.9153 25.3379 47.0808 26.1255 46.9871C26.6043 46.6441 26.8921 46.2728 26.9196 45.8414C26.9341 45.6126 26.9106 45.3249 26.7161 45.2533C26.6779 45.2395 26.6347 45.2329 26.5874 45.2329Z" fill="#1D1D1D"/>
<path d="M21.1452 71.8255C21.1102 71.8255 21.0753 71.8138 21.0466 71.7898L13.0917 65.1331C13.0598 65.1063 13.0401 65.0676 13.037 65.0261C13.034 64.9846 13.048 64.9434 13.0758 64.9126L17.0202 60.5009C17.0477 60.4699 17.0865 60.4516 17.1278 60.4498C17.1734 60.4459 17.2094 60.4627 17.2397 60.4907L25.0247 67.7477C25.0553 67.7762 25.0728 67.8155 25.0737 67.8573C25.0744 67.8987 25.0584 67.9389 25.0292 67.9684L21.2545 71.7798C21.2246 71.8102 21.1848 71.8255 21.1452 71.8255ZM13.4109 64.9992L21.1354 71.463L24.699 67.8649L17.1448 60.8229L13.4109 64.9992Z" fill="#1D1D1D"/>
<path d="M32.8955 13.9013C32.8955 13.9013 31.6938 4.22943 24.7543 5.32282C6.40784 8.21348 16.6395 21.9681 16.6395 21.9681C16.6395 21.9681 9.88357 22.8999 8.06111 16.1269C6.71629 11.129 7.34096 0.874373 19.9994 0.194405C29.5756 -0.319963 36.993 9.27965 32.8955 13.9013Z" fill="#F7C67C"/>
<path d="M15.3606 15.8708C15.3545 16.9258 14.4943 17.7759 13.4395 17.7697C12.3845 17.7636 11.5344 16.9034 11.5406 15.8485C11.5468 14.7936 12.4069 13.9434 13.4618 13.9496C14.5165 13.9558 15.3666 14.8159 15.3606 15.8708Z" fill="#EA8060"/>
<path d="M14.1268 16.96C14.1249 16.96 14.1229 16.96 14.1209 16.96C14.036 16.9567 13.9698 16.8856 13.973 16.8005C13.9905 16.3208 13.875 15.9811 13.6297 15.791C13.1997 15.458 12.4993 15.6616 12.4926 15.664C12.41 15.6878 12.3256 15.6414 12.3014 15.5605C12.2771 15.4791 12.3233 15.3935 12.4047 15.3691C12.4395 15.3589 13.2645 15.1193 13.818 15.5478C14.1463 15.8021 14.3019 16.2275 14.2803 16.8119C14.2772 16.8948 14.2091 16.96 14.1268 16.96Z" fill="#1D1D1D"/>
<path d="M27.5427 33.0996C21.5336 33.0998 17.5925 28.4491 16.0093 26.1438C13.685 22.7595 11.8948 17.6871 13.0704 16.2193C13.1234 16.1532 13.2202 16.1427 13.2864 16.1953C13.3528 16.2484 13.3635 16.3452 13.3103 16.4115C12.4295 17.511 13.5501 22.0201 16.2628 25.9698C17.8145 28.2292 21.6777 32.7889 27.5522 32.7895C28.7408 32.7895 30.0106 32.603 31.3613 32.1729C34.6873 31.1142 36.8316 29.2952 37.7347 26.766C39.7106 21.2338 35.1076 14.0567 35.061 13.9849C35.0146 13.9137 35.0347 13.8185 35.106 13.7722C35.177 13.7259 35.2723 13.7461 35.3187 13.8172C35.3664 13.8902 40.0508 21.1952 38.0245 26.8693C37.0872 29.4938 34.8768 31.3767 31.4548 32.4661C30.0673 32.9077 28.7621 33.0993 27.5427 33.0996Z" fill="#1D1D1D"/>
<path d="M14.1285 13.7991C14.1016 13.7991 14.0742 13.7922 14.0496 13.7772C13.9547 13.7205 11.722 12.3641 11.5657 10.7376C11.5048 10.1028 11.7675 9.51711 12.3462 8.99755C13.0027 8.40831 13.5444 8.17747 13.9626 8.11642C13.9888 7.12714 14.3146 5.88528 14.9165 5.05555C15.5106 4.23663 16.2882 3.90024 17.1658 4.07866C17.7238 4.19342 18.1504 4.34031 18.4764 4.49784C19.2372 2.29464 20.8576 1.67069 22.0602 2.03256C22.918 2.28989 23.4787 2.64485 23.8152 3.02155C23.9471 2.83291 24.0986 2.65248 24.266 2.49336C25.0781 1.72238 26.0976 1.5611 27.1372 2.04019C28.3779 2.61173 28.9702 3.57581 29.1523 4.41331C29.2201 4.39978 29.2898 4.38811 29.3613 4.37818C30.2457 4.25203 31.3862 4.41475 31.9383 5.24074C32.317 5.80738 32.4282 6.48763 32.3756 7.11288C32.8492 7.16847 33.2723 7.47115 33.5829 7.98293C34.6654 9.76507 32.6681 11.936 32.5825 12.0277C32.5251 12.0897 32.4276 12.0933 32.3652 12.0349C32.3032 11.9769 32.2999 11.8797 32.3579 11.8178C32.377 11.7971 34.2813 9.72519 33.3201 8.14277C33.0017 7.61875 32.6321 7.45143 32.3367 7.41773C32.2813 7.73943 32.1842 8.03722 32.061 8.28619C31.8648 8.68234 31.6229 8.90871 31.3798 8.92411C31.2682 8.9316 31.1031 8.89589 30.9653 8.68752C30.8037 8.44301 30.7964 8.1373 30.9451 7.84843C31.1505 7.45027 31.5905 7.16343 32.0623 7.11173C32.1137 6.56194 32.0338 5.93755 31.6825 5.41195C31.2094 4.70376 30.1959 4.57099 29.404 4.68274C29.335 4.69239 29.2674 4.70405 29.2014 4.71759C29.2126 4.82357 29.2171 4.92624 29.2155 5.02416C29.2066 5.54731 29.0289 5.93208 28.7402 6.05333C28.6176 6.1056 28.3662 6.14909 28.0625 5.86138C27.795 5.60794 27.7981 5.36861 27.848 5.21237C27.9454 4.90723 28.322 4.64227 28.8539 4.48618C28.6919 3.72672 28.1511 2.84558 27.0086 2.31941C25.5669 1.65542 24.6153 2.49091 24.1762 3.04805C24.1159 3.12494 24.0603 3.20213 24.0095 3.27902C24.2038 3.58992 24.2611 3.90399 24.2205 4.1809C24.1595 4.59562 23.8776 4.89658 23.5503 4.89658C23.4262 4.89658 23.3264 4.82573 23.2771 4.70203C23.1674 4.42699 23.3169 3.84999 23.6434 3.29026C23.356 2.93371 22.8288 2.58451 21.9718 2.32704C20.2234 1.80389 19.1151 3.58143 18.7508 4.64674C19.2918 4.97535 19.4598 5.32066 19.5118 5.50383C19.588 5.77138 19.5261 6.03274 19.3462 6.20266C19.1635 6.37503 18.8936 6.42183 18.624 6.32823C18.247 6.19675 18.1578 5.60319 18.3833 4.79391C18.0791 4.64199 17.6657 4.49568 17.1035 4.38034C16.3426 4.22295 15.6903 4.51181 15.1652 5.23627C14.5778 6.04627 14.2955 7.20547 14.2692 8.10043C14.5418 8.11239 14.7385 8.19648 14.8556 8.26503C15.2146 8.47469 15.4123 8.8609 15.3362 9.20448C15.2742 9.48528 15.0402 9.67119 14.7103 9.70215C14.4992 9.72101 14.3094 9.6097 14.1812 9.38506C14.0528 9.15984 13.9812 8.82432 13.9645 8.42976C13.5394 8.50781 13.0492 8.77997 12.5513 9.2268C12.0491 9.67752 11.8205 10.1758 11.8713 10.7083C12.0123 12.1801 14.1854 13.5007 14.2074 13.5138C14.2803 13.5573 14.3039 13.6519 14.2601 13.7246C14.2316 13.7725 14.1808 13.7991 14.1285 13.7991ZM14.2708 8.40715C14.2852 8.76096 14.3457 9.05199 14.4486 9.23213C14.549 9.40781 14.6447 9.39917 14.682 9.39557C14.8779 9.37728 15.0037 9.28599 15.0364 9.13795C15.0763 8.9568 14.9741 8.68983 14.7008 8.53042C14.573 8.45583 14.4285 8.41522 14.2708 8.40715ZM32.0178 7.42896C31.6789 7.49074 31.3644 7.70674 31.2189 7.98912C31.1496 8.12333 31.0942 8.32421 31.222 8.5176C31.2904 8.62085 31.3427 8.6197 31.3608 8.61696C31.4601 8.61063 31.6301 8.46375 31.7855 8.14939C31.8787 7.96176 31.9638 7.71192 32.0178 7.42896ZM18.66 4.9513C18.5047 5.56071 18.5626 5.98075 18.7256 6.03735C18.887 6.09379 19.0365 6.07219 19.1354 5.97874C19.2316 5.88773 19.2612 5.74546 19.2163 5.58778C19.1854 5.47848 19.0707 5.21986 18.66 4.9513ZM28.9005 4.79434C28.4983 4.91962 28.2035 5.11085 28.1413 5.30611C28.1289 5.34514 28.0909 5.46408 28.2743 5.63803C28.3668 5.72573 28.5017 5.81947 28.6214 5.76994C28.7589 5.71234 28.9012 5.4576 28.9085 5.01912C28.9095 4.94655 28.9071 4.87152 28.9005 4.79434ZM23.8286 3.58488C23.5663 4.08615 23.5025 4.51469 23.5681 4.59821C23.6977 4.58885 23.8747 4.41951 23.9163 4.13626C23.9414 3.96634 23.9169 3.77799 23.8286 3.58488Z" fill="#1D1D1D"/>
<path d="M23.9183 37.3168C21.0128 37.3168 20.3101 32.09 20.2813 31.8653C20.2705 31.7812 20.3301 31.7041 20.4143 31.6933C20.5 31.6822 20.5755 31.7422 20.5864 31.8263C20.5931 31.8786 21.2827 37.0086 23.9213 37.0093C23.9452 37.0093 23.9691 37.0087 23.9933 37.0079C24.6894 36.9838 25.229 36.7442 25.5966 36.2961C26.4157 35.2982 26.148 33.5844 26.1451 33.567C26.1314 33.4832 26.1883 33.4043 26.2721 33.3907C26.3582 33.3755 26.4351 33.4336 26.4487 33.5177C26.4609 33.5935 26.7406 35.387 25.8342 36.4912C25.4081 37.0105 24.7922 37.2877 24.0041 37.3153C23.9752 37.3162 23.9465 37.3168 23.9183 37.3168Z" fill="#1D1D1D"/>
<path d="M23.5944 43.6736C23.5666 43.6736 23.5386 43.673 23.5106 43.6722C22.7116 43.6418 21.9676 43.2569 21.4452 42.7523C20.9895 43.1019 20.4049 43.3125 19.7651 43.1479C18.78 42.8939 18.1425 42.0156 17.8876 41.1651C17.4935 41.3414 17.0529 41.4086 16.6616 41.2233C15.3478 40.6008 15.971 38.1468 15.9982 38.0426C16.0195 37.9601 16.1039 37.9096 16.1857 37.9328C16.2678 37.9541 16.317 38.0382 16.2957 38.1201C16.2897 38.1433 15.7085 40.4313 16.7931 40.9452C17.1096 41.0957 17.4791 41.0252 17.8129 40.8629C17.7576 40.5799 17.7468 40.3091 17.7818 40.0755C17.8614 39.544 18.17 39.2301 18.6127 39.2583C18.965 39.2738 19.0964 39.4357 19.1442 39.5687C19.2705 39.9187 18.9427 40.3818 18.5938 40.6986C18.4697 40.8112 18.3244 40.9216 18.1661 41.0178C18.3831 41.793 18.9587 42.6218 19.8419 42.8498C20.3629 42.9843 20.8471 42.8147 21.233 42.5272C20.924 42.1648 20.7282 41.7635 20.6971 41.3965C20.652 40.864 20.9582 40.4892 21.537 40.368C22.0206 40.267 22.2481 40.4391 22.3538 40.602C22.5764 40.944 22.4432 41.5678 22.0222 42.154C21.9241 42.2903 21.8092 42.4246 21.6799 42.5496C22.1372 42.9869 22.7891 43.3369 23.5221 43.3646C24.5407 43.4036 25.0737 42.6436 25.2561 42.3153C25.2619 42.3047 25.2675 42.2942 25.2731 42.284C24.8516 41.9855 24.634 41.6023 24.61 41.2798C24.5818 40.9016 24.8158 40.6254 25.2062 40.5767C25.4178 40.5503 25.5973 40.629 25.7116 40.7981C25.9092 41.0905 25.8853 41.6327 25.6687 42.1648C26.0356 42.3585 26.5366 42.4873 27.1774 42.4727C28.0458 42.4513 28.4329 42.0693 28.6046 41.7525C28.6214 41.7216 28.6365 41.6906 28.6503 41.6591C28.178 41.5902 27.9018 41.3641 27.7747 41.2284C27.5019 40.937 27.4032 40.5382 27.5287 40.2355C27.6266 39.9995 27.8424 39.8592 28.1206 39.8504C28.4055 39.8376 28.6721 40.0023 28.8506 40.2922C29.0384 40.5965 29.105 40.9929 29.0488 41.3692C29.2608 41.3575 29.5079 41.3116 29.7944 41.214C30.3904 41.0112 30.7578 40.7025 30.8865 40.2968C31.1174 39.5698 30.5285 38.7472 30.5226 38.739C30.4727 38.6702 30.4879 38.5741 30.5566 38.5243C30.6256 38.4745 30.7218 38.4895 30.7713 38.5583C30.7995 38.597 31.4568 39.5163 31.1796 40.39C31.0196 40.8938 30.5869 41.2692 29.8935 41.5054C29.5381 41.6261 29.2324 41.6756 28.972 41.6796C28.9453 41.7557 28.9129 41.8293 28.8748 41.8992C28.5773 42.4479 27.9771 42.7608 27.1847 42.7804C26.4967 42.7981 25.9456 42.6584 25.5359 42.4446C25.5323 42.4512 25.5286 42.4581 25.5248 42.4647C25.0961 43.2367 24.3957 43.6736 23.5944 43.6736ZM21.803 40.6457C21.7342 40.6457 21.6636 40.6557 21.6002 40.6689C21.1726 40.7583 20.9718 40.9945 21.0037 41.3708C21.028 41.6585 21.1962 42.0042 21.4692 42.3261C21.5837 42.2152 21.6855 42.0957 21.7726 41.9744C22.1038 41.5132 22.2431 40.9954 22.096 40.7696C22.035 40.6755 21.9217 40.6457 21.803 40.6457ZM25.2868 40.8791C25.2734 40.8791 25.2593 40.88 25.2445 40.8819C25.0172 40.9104 24.9009 41.0435 24.9169 41.257C24.9341 41.4886 25.096 41.7666 25.4046 41.9985C25.5764 41.5513 25.5767 41.1473 25.457 40.9702C25.4151 40.9082 25.3615 40.8791 25.2868 40.8791ZM28.1436 40.1577C28.1391 40.1577 28.1347 40.1577 28.1302 40.158C27.9735 40.1629 27.864 40.2304 27.8128 40.3533C27.7339 40.5433 27.8105 40.8167 27.9992 41.0181C28.103 41.129 28.3333 41.3136 28.7411 41.3608C28.8036 41.0122 28.7228 40.6709 28.5889 40.4535C28.5202 40.3422 28.3718 40.1577 28.1436 40.1577ZM18.5731 39.5649C18.24 39.5649 18.1242 39.8652 18.0858 40.121C18.0602 40.2928 18.064 40.4898 18.0964 40.6986C18.202 40.6274 18.3002 40.5497 18.387 40.4709C18.7567 40.1351 18.904 39.8094 18.8549 39.6733C18.8257 39.5922 18.6995 39.5699 18.5987 39.5651C18.5901 39.5649 18.5816 39.5649 18.5731 39.5649Z" fill="#1D1D1D"/>
<path d="M15.4705 65.5279L17.7 62.5661L23.3124 67.8373L20.9291 70.1822L15.4705 65.5279Z" fill="#3D9C91"/>
<path d="M15.4704 64.1084C15.4341 64.1084 15.3977 64.0957 15.3686 64.0696C15.305 64.0135 15.2989 63.9164 15.3552 63.8528L16.2394 62.8533C16.2958 62.7896 16.3935 62.7833 16.4564 62.84C16.52 62.8962 16.5261 62.9932 16.4698 63.0569L15.5856 64.0564C15.5552 64.091 15.5129 64.1084 15.4704 64.1084Z" fill="#1D1D1D"/>
<path d="M59.7972 49.7762C61.0429 50.0806 61.2563 50.8352 61.2648 50.8673C61.2866 50.9492 61.2375 51.0335 61.1555 51.0553C61.074 51.0762 60.9901 51.0288 60.9679 50.9473C60.9603 50.9214 60.779 50.3326 59.724 50.0748C59.6415 50.0547 59.591 49.9715 59.6111 49.8889C59.6314 49.8066 59.7145 49.756 59.7972 49.7762Z" fill="#1D1D1D"/>
<path d="M62.0421 51.1884C63.2876 51.4928 63.5011 52.2471 63.5096 52.2792C63.5314 52.3611 63.4823 52.4454 63.4003 52.4674C63.3186 52.4883 63.2349 52.4409 63.2127 52.3594C63.2045 52.3312 63.0213 51.7444 61.9691 51.4872C61.8866 51.467 61.8361 51.3838 61.8562 51.3013C61.8764 51.2186 61.9596 51.1682 62.0421 51.1884Z" fill="#1D1D1D"/>
<path d="M59.8982 51.6021C61.1437 51.9065 61.3571 52.6611 61.3657 52.6932C61.3874 52.7751 61.3383 52.8594 61.2564 52.8814C61.1749 52.9023 61.0911 52.8546 61.0686 52.7734C61.0604 52.7449 60.8777 52.1583 59.8253 51.9011C59.7428 51.8809 59.6923 51.7978 59.7124 51.7152C59.7325 51.6324 59.8157 51.582 59.8982 51.6021Z" fill="#1D1D1D"/>
<path d="M57.2743 49.4846C58.5198 49.789 58.7333 50.5433 58.7418 50.5754C58.7636 50.6573 58.7145 50.7416 58.6325 50.7636C58.5512 50.7842 58.4672 50.7368 58.4449 50.6556C58.4376 50.6303 58.2565 50.0413 57.2013 49.7834C57.1188 49.7632 57.0683 49.6802 57.0884 49.5975C57.1086 49.5148 57.1917 49.4644 57.2743 49.4846Z" fill="#1D1D1D"/>
<path d="M55.2982 47.518C56.5437 47.8224 56.7573 48.5767 56.7657 48.6088C56.7875 48.6907 56.7384 48.775 56.6565 48.797C56.5749 48.8182 56.4911 48.7702 56.4688 48.689C56.4606 48.6616 56.2787 48.0743 55.2252 47.8168C55.1427 47.7966 55.0922 47.7135 55.1123 47.6309C55.1325 47.5482 55.2156 47.4978 55.2982 47.518Z" fill="#1D1D1D"/>
<path d="M57.5298 47.7384C58.7752 48.0429 58.9888 48.7971 58.9973 48.8292C59.019 48.9112 58.9699 48.9954 58.888 49.0175C58.8065 49.0383 58.7227 48.9907 58.7005 48.9095C58.693 48.8841 58.5122 48.2952 57.4569 48.0372C57.3744 48.0171 57.3239 47.934 57.344 47.8513C57.364 47.7687 57.4471 47.7183 57.5298 47.7384Z" fill="#1D1D1D"/>
<path d="M50.422 51.2316C51.6678 51.536 51.8812 52.2906 51.8898 52.3227C51.9116 52.4046 51.8625 52.4889 51.7805 52.5108C51.699 52.5316 51.6151 52.4843 51.5929 52.4028C51.5853 52.3768 51.404 51.788 50.349 51.5303C50.2665 51.5101 50.216 51.4269 50.2361 51.3444C50.2564 51.262 50.3395 51.2114 50.422 51.2316Z" fill="#1D1D1D"/>
<path d="M52.667 52.6438C53.9125 52.9482 54.126 53.7025 54.1345 53.7346C54.1562 53.8165 54.1071 53.9008 54.0252 53.9228C53.9434 53.9437 53.8597 53.8963 53.8377 53.8148C53.8295 53.7864 53.6463 53.1998 52.5941 52.9426C52.5116 52.9224 52.4611 52.8394 52.4812 52.7567C52.5013 52.6742 52.5845 52.6236 52.667 52.6438Z" fill="#1D1D1D"/>
<path d="M50.523 53.0575C51.7684 53.3619 51.9818 54.1165 51.9905 54.1486C52.0122 54.2306 51.9631 54.3148 51.8812 54.3368C51.7997 54.3577 51.7159 54.31 51.6934 54.2288C51.6852 54.2003 51.5024 53.6137 50.4501 53.3565C50.3676 53.3363 50.317 53.2532 50.3372 53.1706C50.3572 53.0878 50.4403 53.0374 50.523 53.0575Z" fill="#1D1D1D"/>
<path d="M47.8989 50.94C49.1444 51.2444 49.3579 51.9987 49.3664 52.0308C49.3882 52.1128 49.3391 52.197 49.2571 52.219C49.1758 52.2396 49.0918 52.1922 49.0696 52.111C49.0623 52.0857 48.8813 51.4967 47.8261 51.2388C47.7436 51.2187 47.693 51.1354 47.7132 51.0529C47.7333 50.9703 47.8164 50.9199 47.8989 50.94Z" fill="#1D1D1D"/>
<path d="M45.923 48.9734C47.1685 49.2778 47.382 50.0321 47.3905 50.0642C47.4123 50.1461 47.3631 50.2304 47.2811 50.2524C47.1996 50.2736 47.1158 50.2256 47.0936 50.1444C47.0854 50.1171 46.9035 49.5297 45.85 49.2722C45.7675 49.252 45.7169 49.169 45.7371 49.0863C45.7574 49.0036 45.8405 48.9532 45.923 48.9734Z" fill="#1D1D1D"/>
<path d="M48.1545 49.1939C49.4 49.4983 49.6136 50.2526 49.622 50.2847C49.6438 50.3666 49.5947 50.4508 49.5128 50.4729C49.4312 50.4938 49.3474 50.4461 49.3253 50.3649C49.3179 50.3395 49.1369 49.7506 48.0817 49.4927C47.9992 49.4725 47.9486 49.3893 47.9688 49.3068C47.9888 49.2241 48.0719 49.1737 48.1545 49.1939Z" fill="#1D1D1D"/>
<path d="M24.8136 27.6362C22.3597 27.6362 20.7799 26.3841 20.711 26.3282C20.645 26.2751 20.6346 26.1783 20.6879 26.1124C20.741 26.046 20.8375 26.0358 20.9042 26.0889C20.921 26.1025 22.6111 27.4368 25.1336 27.3214C25.2174 27.3087 25.2904 27.383 25.2943 27.4677C25.2982 27.5527 25.2325 27.6245 25.1477 27.6284C25.0348 27.6338 24.9232 27.6362 24.8136 27.6362Z" fill="#1D1D1D"/>
</g>
<defs>
<clipPath id="clip0_571_10530">
<rect width="72" height="72" fill="white"/>
</clipPath>
</defs>
</svg>
