<svg width="72" height="72" viewBox="0 0 72 72" fill="none" xmlns="http://www.w3.org/2000/svg">
<g clip-path="url(#clip0_571_10907)">
<path d="M7.53233 15.9109C7.53233 15.9109 8.74179 12.2445 11.2723 13.3859C13.8028 14.5272 12.6936 17.3869 11.5877 17.1102C10.4817 16.8334 11.8654 13.7378 13.3875 15.1473C14.9096 16.5568 15.198 19.5567 13.3636 19.875C11.5292 20.1932 11.0683 17.5714 12.4354 18.1249C13.8027 18.6785 13.1253 22.4815 11.0842 21.8807C9.04304 21.28 8.25867 19.0474 9.69305 19.3242C11.1274 19.6009 10.3857 22.4082 8.23289 21.8807C6.08009 21.3533 4.78222 18.4938 6.70937 18.1249C8.63667 17.7558 7.44492 21.4408 5.45772 20.1058C3.47052 18.7708 4.78611 14.1469 6.49179 14.36C8.19747 14.5732 9.46683 15.8458 8.45206 16.4319C7.43758 17.018 7.53233 15.9109 7.53233 15.9109Z" fill="#F7C67C"/>
<path d="M8.75363 22.0749C8.57622 22.0749 8.39075 22.0515 8.2024 22.0053C7.38116 21.8042 6.60198 21.2473 6.10662 20.5106C5.86844 20.4739 5.62652 20.3735 5.38648 20.2124C4.22252 19.4303 4.13612 17.6546 4.56668 16.2414C4.96225 14.9437 5.72876 14.1351 6.5078 14.2332C7.02505 14.2977 7.53697 14.4632 7.96408 14.7024C8.43784 13.9178 9.21572 13.0377 10.3212 13.0377C10.6465 13.0377 10.984 13.1155 11.3249 13.2691C12.0316 13.5879 12.531 14.0719 12.7735 14.6715C13.0143 14.717 13.2497 14.8452 13.4747 15.0531C14.486 15.9899 15.0058 17.6431 14.6585 18.8176C14.4648 19.4722 14.0128 19.8927 13.3855 20.0013C13.3396 20.0093 13.2945 20.0155 13.2502 20.0203C13.1168 21.0575 12.4901 22.073 11.5082 22.073C11.3593 22.073 11.2045 22.0497 11.0481 22.0037C10.6906 21.8986 10.3548 21.7409 10.0483 21.535C9.71281 21.8841 9.25763 22.0747 8.75392 22.0747L8.75363 22.0749ZM6.42932 20.5218C6.89056 21.1299 7.56088 21.5844 8.26345 21.7565C8.43179 21.7978 8.59667 21.8186 8.75363 21.8186H8.75392C9.17425 21.8186 9.55441 21.6646 9.83867 21.3828C9.13119 20.827 8.70812 20.0445 8.86566 19.556C8.91188 19.4126 9.05128 19.1727 9.466 19.1727C9.54347 19.1727 9.628 19.1812 9.71742 19.1985C10.0901 19.2705 10.3637 19.504 10.4881 19.8564C10.6479 20.3086 10.5369 20.8877 10.2132 21.3372C10.492 21.5213 10.7966 21.6627 11.1204 21.7581C11.2533 21.7971 11.3836 21.8168 11.5081 21.8168C12.329 21.8168 12.8615 20.9391 12.9905 20.0288C12.4479 20.0065 11.9847 19.7272 11.7117 19.2545C11.4929 18.8756 11.4523 18.4564 11.6081 18.1867C11.7629 17.9187 12.0879 17.8456 12.4837 18.006C13.0146 18.221 13.3166 18.9004 13.2735 19.7592C13.296 19.7562 13.3189 19.7527 13.3418 19.749C14.0161 19.6319 14.2965 19.1384 14.4128 18.745C14.7295 17.6742 14.2307 16.1025 13.3006 15.2414C13.1583 15.1094 13.0137 15.0166 12.8686 14.9631C13.0221 15.578 12.9134 16.2561 12.5712 16.7454C12.3437 17.0704 12.0404 17.2572 11.7392 17.2572H11.739C11.678 17.2572 11.6165 17.2497 11.5566 17.2347C11.1921 17.1434 11.0108 16.7938 11.0717 16.2993C11.1639 15.5511 11.7601 14.7208 12.4873 14.6571C12.2546 14.1704 11.82 13.7737 11.2196 13.503C10.9123 13.3643 10.6101 13.294 10.3214 13.294C9.33366 13.294 8.62144 14.1088 8.18267 14.8363C8.66507 15.1601 8.94673 15.5547 8.94198 15.9078C8.93968 16.0868 8.86393 16.3422 8.51632 16.543C8.09872 16.7845 7.7799 16.7892 7.58507 16.5775C7.3731 16.3466 7.40075 15.9452 7.40464 15.9002C7.4055 15.8904 7.40752 15.8804 7.41068 15.8711C7.41688 15.8523 7.5554 15.4363 7.83635 14.9247C7.43833 14.7019 6.96025 14.5481 6.47612 14.4875C5.83648 14.4115 5.16457 15.159 4.81192 16.3163C4.42196 17.596 4.48014 19.2948 5.52947 19.9997C5.66108 20.0882 5.79227 20.1554 5.92158 20.2006C5.63214 19.6463 5.56187 19.0945 5.73683 18.6844C5.84368 18.4344 6.09481 18.1123 6.6855 17.9992C7.37137 17.8683 7.81518 18.2207 7.81518 18.8638C7.81504 19.5288 7.29102 20.4455 6.42932 20.5218ZM9.46614 19.429C9.27102 19.429 9.15438 19.4961 9.10959 19.6346C8.99958 19.9758 9.33337 20.6644 10.0051 21.1877C10.2776 20.8081 10.3772 20.3113 10.2466 19.9417C10.181 19.7555 10.0273 19.5193 9.66889 19.4502C9.59559 19.4359 9.52734 19.429 9.46614 19.429ZM6.25537 20.269C7.04996 20.3097 7.55872 19.4516 7.55872 18.8635C7.55872 18.6258 7.48168 18.2269 6.96616 18.2269C6.89444 18.2269 6.81611 18.235 6.73374 18.2507C6.3484 18.3245 6.09222 18.5041 5.97256 18.7848C5.80883 19.1685 5.91481 19.7198 6.25537 20.269ZM12.0918 18.1759C11.9696 18.1759 11.8839 18.2214 11.8299 18.3147C11.7225 18.5009 11.7651 18.8344 11.9334 19.1263C12.0435 19.3167 12.3662 19.7539 13.0162 19.7732C13.0615 19.0127 12.8202 18.4189 12.3875 18.2436C12.2766 18.1987 12.1771 18.1759 12.0918 18.1759ZM12.5764 14.9093C11.9104 14.9093 11.3992 15.7371 11.3262 16.3304C11.3053 16.5003 11.2919 16.904 11.6189 16.9858C11.8722 17.0503 12.1493 16.9017 12.3611 16.5984C12.6078 16.2458 12.8078 15.5995 12.5872 14.9094C12.5836 14.9093 12.58 14.9093 12.5764 14.9093ZM7.65894 15.9366C7.65332 16.0394 7.66412 16.2849 7.77414 16.4046C7.88545 16.525 8.09382 16.4911 8.3883 16.3212C8.58356 16.2083 8.68379 16.0682 8.68595 15.9046C8.68926 15.6454 8.45051 15.3286 8.0548 15.0593C7.81792 15.4934 7.68558 15.86 7.65894 15.9366Z" fill="#1D1D1D"/>
<path d="M11.7172 18.7161C11.7172 18.7161 16.8794 16.0512 20.3965 18.8003C23.9135 21.5494 24.5882 30.1252 27.3134 30.5489C30.0386 30.9725 21.5395 37.6017 15.6384 39.4496C9.73715 41.2976 2.2336 38.0553 1.58474 37.2106C0.935873 36.3659 2.68706 33.9871 2.16794 31.7888C1.64882 29.5905 -0.783918 19.4066 11.7172 18.7161Z" fill="#F7C67C"/>
<path d="M7.34352 38.7044C7.22097 38.7044 7.09108 38.6973 6.95299 38.6816C6.44596 38.6233 6.0936 38.3568 5.95694 37.9462C5.67168 38.0806 5.33054 38.1537 4.94232 38.1107C4.62998 38.0761 4.34932 37.9482 4.12195 37.7433C3.79176 37.9017 3.42686 37.9292 3.06772 37.8156C2.07787 37.5015 1.73875 36.6506 1.74926 36.0176C1.75819 35.4831 2.00068 35.071 2.36716 34.9679C2.43528 34.9493 2.50598 34.9886 2.52513 35.0564C2.54428 35.1247 2.50468 35.1952 2.43643 35.2145C2.18558 35.2851 2.01235 35.6094 2.00544 36.0218C1.99636 36.5668 2.2894 37.2998 3.1452 37.5714C3.45451 37.6697 3.72148 37.6339 3.93763 37.5459C3.84835 37.432 3.77145 37.3031 3.7091 37.1605C3.49353 36.6671 3.50995 36.1173 3.75 35.793C3.91416 35.5712 4.17105 35.4684 4.47432 35.5037C4.76692 35.5377 4.9776 35.6951 5.06774 35.9471C5.21332 36.3534 5.01936 36.9592 4.60636 37.3875C4.52702 37.4699 4.44307 37.5424 4.3558 37.6046C4.5322 37.7436 4.74115 37.8306 4.97011 37.8559C5.31931 37.8942 5.63654 37.8199 5.90121 37.684C5.89718 37.6453 5.89473 37.6057 5.89401 37.5653C5.88292 37.025 6.17524 36.5383 6.54604 36.4803C6.73324 36.4511 6.82267 36.5393 6.85968 36.5946C6.95558 36.7375 6.91929 36.9702 6.76003 37.2327C6.6359 37.4375 6.44179 37.6506 6.18777 37.8168C6.25848 38.0673 6.4546 38.3665 6.98193 38.4269C8.24712 38.5725 8.7491 37.9334 8.76969 37.9062C8.8126 37.8499 8.89281 37.8391 8.94897 37.8811C9.00528 37.9236 9.01694 38.0032 8.97475 38.0598C8.95329 38.0888 8.47953 38.7044 7.34352 38.7044ZM6.61689 36.7307C6.6084 36.7307 6.59817 36.7314 6.58579 36.7334C6.35625 36.7694 6.15379 37.1428 6.15019 37.527C6.31536 37.4019 6.44841 37.2527 6.54115 37.0999C6.66513 36.8954 6.66571 36.7654 6.64699 36.7373C6.64526 36.7345 6.63576 36.7307 6.61689 36.7307ZM4.3571 35.7528C4.18545 35.7528 4.05096 35.8173 3.9562 35.9452C3.77174 36.1944 3.76684 36.6519 3.94425 37.058C4.00416 37.1951 4.07976 37.3172 4.1686 37.4226C4.27329 37.3525 4.35854 37.2757 4.42233 37.2094C4.76548 36.8535 4.93944 36.3478 4.82683 36.0332C4.76966 35.8735 4.64121 35.7809 4.44508 35.7581C4.4147 35.7547 4.38532 35.7528 4.3571 35.7528Z" fill="#1D1D1D"/>
<path d="M12.502 40.6131C12.502 40.6131 6.13243 48.8658 5.37585 48.4609C5.14473 48.3372 17.2252 45.3625 17.2252 45.3625L17.0573 49.9453C17.0573 49.9453 0.652507 50.9208 0.242395 50.9325C-1.86735 50.9918 10.4952 40.6752 10.2603 40.2415C10.0255 39.8076 12.502 40.6131 12.502 40.6131Z" fill="#EFA880"/>
<path d="M18.6739 41.7811L12.502 45.7654L14.3011 50.9323L22.3897 50.314C22.3897 50.314 24.4643 37.2097 18.6739 41.7811Z" fill="#E9546A"/>
<path d="M40.4338 42.0555C40.4338 42.0555 29.7501 41.4516 35.245 42.9135C39.8316 44.1337 25.8185 34.3505 24.1835 35.7728C20.6816 38.819 17.14 46.1686 18.2753 48.8608C19.4105 51.553 40.4339 51.5441 40.4339 51.5441L40.4338 42.0555Z" fill="#E9546A"/>
<path d="M5.40892 25.5233C5.40892 25.5233 10.5913 18.8098 17.2218 21.4865C22.1826 23.4891 22.3141 40.226 14.3666 40.2413C8.73316 40.2521 3.33792 29.2877 5.40892 25.5233Z" fill="#EFA880"/>
<path d="M15.5977 34.0011C15.5793 34.0011 15.5601 33.9986 15.541 33.9933C15.0015 33.8526 13.2691 33.2068 13.1956 33.1796C13.1292 33.1548 13.0957 33.0809 13.1205 33.0147C13.1449 32.9483 13.2191 32.9149 13.2852 32.9394C13.3025 32.9459 14.9638 33.5652 15.5496 33.7304C15.5793 33.337 14.9085 31.4494 14.2033 29.7542C14.1761 29.6889 14.2071 29.6138 14.2725 29.5866C14.3374 29.5606 14.4129 29.5907 14.4399 29.6557C15.0469 31.1149 16.0229 33.6111 15.7397 33.9367C15.7028 33.9788 15.653 34.0011 15.5977 34.0011Z" fill="#1D1D1D"/>
<path d="M11.0629 31.7318C10.5022 31.732 9.99329 30.175 9.84843 29.6897C9.82813 29.6222 9.86672 29.5506 9.93454 29.5303C10.0024 29.5107 10.0738 29.5486 10.094 29.6167C10.3648 30.5233 10.8129 31.4757 11.0577 31.4757C11.0611 31.4757 11.0644 31.4757 11.0678 31.4753C11.2959 31.4499 11.3659 30.4165 11.286 29.5048C11.2798 29.4342 11.3319 29.3722 11.4025 29.366C11.4736 29.363 11.5351 29.4121 11.5413 29.4823C11.5861 29.9931 11.6864 31.6645 11.096 31.73C11.0848 31.7313 11.0737 31.7318 11.0629 31.7318Z" fill="#1D1D1D"/>
<path d="M16.4046 30.2952C15.8482 30.2952 15.0579 28.7852 14.8253 28.3147C14.7939 28.2512 14.82 28.1743 14.8834 28.1431C14.947 28.1116 15.0235 28.1381 15.055 28.2011C15.503 29.1073 16.1379 30.0679 16.4089 30.0387C16.6368 30.0134 16.7068 28.9799 16.627 28.0682C16.6209 27.9977 16.673 27.9356 16.7435 27.9294C16.8137 27.9257 16.876 27.9755 16.8824 28.0457C16.9271 28.5565 17.0277 30.2279 16.4371 30.2934C16.4263 30.2947 16.4155 30.2952 16.4046 30.2952Z" fill="#1D1D1D"/>
<path d="M5.37581 34.3396C6.25485 34.3396 6.96744 33.627 6.96744 32.748C6.96744 31.869 6.25485 31.1564 5.37581 31.1564C4.49678 31.1564 3.78418 31.869 3.78418 32.748C3.78418 33.627 4.49678 34.3396 5.37581 34.3396Z" fill="#EFA880"/>
<path d="M21.8303 29.1119C22.6501 29.1119 23.3147 28.4473 23.3147 27.6275C23.3147 26.8078 22.6501 26.1432 21.8303 26.1432C21.0105 26.1432 20.3459 26.8078 20.3459 27.6275C20.3459 28.4473 21.0105 29.1119 21.8303 29.1119Z" fill="#EFA880"/>
<path d="M6.1323 33.7636C6.06606 33.7636 6.01004 33.7128 6.00472 33.6457C5.97304 33.2468 5.84488 32.9768 5.6234 32.8435C5.23576 32.609 4.67545 32.8455 4.66998 32.8478C4.60504 32.8766 4.52972 32.8458 4.50164 32.7807C4.47371 32.7156 4.5038 32.6403 4.56889 32.6125C4.59683 32.6002 5.25635 32.3229 5.75574 32.624C6.05195 32.8027 6.22172 33.1395 6.26017 33.6252C6.26579 33.6958 6.21308 33.7576 6.14252 33.7632C6.13907 33.7633 6.13576 33.7636 6.1323 33.7636Z" fill="#1D1D1D"/>
<path d="M21.7519 28.8395C21.7037 28.8395 21.6576 28.8123 21.6358 28.7656C21.3559 28.168 21.3129 27.7019 21.5077 27.3805C21.731 27.0115 22.1764 26.9881 22.1953 26.9871C22.2713 26.9884 22.3259 27.039 22.3289 27.1097C22.3321 27.1803 22.2775 27.2399 22.2069 27.2431C22.2008 27.2435 21.8762 27.2644 21.7257 27.5151C21.5816 27.7553 21.6307 28.1503 21.8678 28.657C21.8979 28.7211 21.8703 28.7974 21.8062 28.8274C21.7886 28.8357 21.7701 28.8395 21.7519 28.8395Z" fill="#1D1D1D"/>
<path d="M9.97094 35.0887C10.8089 35.0887 11.4883 34.4094 11.4883 33.5714C11.4883 32.7334 10.8089 32.0541 9.97094 32.0541C9.13294 32.0541 8.45361 32.7334 8.45361 33.5714C8.45361 34.4094 9.13294 35.0887 9.97094 35.0887Z" fill="#EA7C71"/>
<path d="M18.5747 33.5714C19.4127 33.5714 20.092 32.8921 20.092 32.0541C20.092 31.2161 19.4127 30.5367 18.5747 30.5367C17.7367 30.5367 17.0574 31.2161 17.0574 32.0541C17.0574 32.8921 17.7367 33.5714 18.5747 33.5714Z" fill="#EA7C71"/>
<path d="M58.6489 54.4756L63.1496 53.2852L63.4309 54.505L61.9926 54.4307C61.9926 54.4307 63.9998 54.5313 63.5572 57.8608C63.5572 57.8608 61.2831 53.8823 59.0179 56.755L58.6489 54.4756Z" fill="#251426"/>
<path d="M67.2773 48.3451L71.9061 47.847L72.0001 49.0952L70.5895 48.8048C70.5895 48.8048 72.5585 49.207 71.6189 52.4316C71.6189 52.4316 69.9709 48.1558 67.2982 50.6539L67.2773 48.3451Z" fill="#251426"/>
<path d="M44.4141 43.1089V51.7L69.4259 52.7069L68.9502 46.0094L51.655 48.8268L48.3602 41.2727L44.4141 43.1089Z" fill="#757A91"/>
<path d="M40.2632 42.1523L40.4337 58.2155L60.6117 57.6878L59.5622 51.4704L46.006 51.0469L46.6746 40.9894L40.2632 42.1523Z" fill="#757A91"/>
<path d="M18.5114 37.3502L20.5145 40.316L21.5159 38.8824C21.5159 38.8824 24.1242 42.7 23.2118 43.9558C22.2994 45.2116 17.3647 42.6264 17.3647 42.6264L19.2748 41.3616L16.7439 38.9033L18.5114 37.3502Z" fill="#EFA880"/>
<path d="M12.5337 39.4602C12.5337 39.4602 9.52816 36.4258 9.15232 35.3606C8.77648 34.2956 8.49136 36.6683 9.59958 37.586C9.59958 37.586 8.33785 35.7784 8.17081 35.3397C8.00377 34.9011 7.79497 37.8249 9.08968 38.3053C9.08968 38.3053 7.37723 36.9896 7.18931 36.5093C7.00139 36.0289 7.16843 38.4097 7.98289 38.8692C8.79736 39.3287 10.2175 40.1432 10.5516 40.6234C10.8856 41.1036 13.7223 40.9909 12.5337 39.4602Z" fill="#EFA880"/>
<path d="M13.357 36.1084C13.357 36.1084 13.9823 35.0059 14.312 35.212C14.6418 35.4181 14.9916 36.1084 14.9916 36.1084C14.9916 36.1084 15.0127 34.4148 15.4661 34.6897C15.9194 34.9648 16.6201 36.2858 16.6201 36.2858C16.6201 36.2858 16.8673 38.1794 15.3012 38.5092C13.735 38.8389 12.402 37.2932 13.357 36.1084Z" fill="#EA7C71"/>
<path d="M15.0344 37.442C14.229 37.442 12.9732 35.4809 12.7137 35.061C12.6766 35.0009 12.6951 34.9219 12.7553 34.8846C12.8149 34.848 12.8941 34.866 12.9316 34.9263C13.5776 35.971 14.6816 37.3582 15.1069 37.1719C15.668 36.9266 16.6253 35.4692 16.9469 34.9282C16.983 34.8674 17.0617 34.8474 17.1224 34.8837C17.1832 34.9197 17.2032 34.9986 17.1671 35.0594C17.1181 35.1415 15.9603 37.0785 15.2094 37.4067C15.1542 37.4308 15.0956 37.442 15.0344 37.442Z" fill="#1D1D1D"/>
<path d="M16.6342 19.0377C16.6342 19.0377 21.7481 21.9828 18.5746 23.9201C15.4011 25.8574 4.33977 27.1558 5.46787 24.0192C6.59596 20.8826 10.0674 17.9306 16.6342 19.0377Z" fill="#F7C67C"/>
<path d="M4.98985 25.5884C4.98985 25.5884 4.20606 28.9895 7.09945 28.3405C9.99284 27.6915 8.54795 24.0111 7.75883 25.1941C6.96971 26.3771 9.14771 28.5165 11.2132 26.9868C13.2788 25.457 12.3782 22.9597 11.7113 23.2226C11.0445 23.4855 11.3064 26.7185 14.4574 26.4485C17.6084 26.1786 17.2219 21.4867 15.8627 22.3538C14.8599 22.9936 20.3482 29.1122 20.0747 21.9469" fill="#F7C67C"/>
<path d="M6.42412 28.5507C5.94474 28.551 5.56257 28.4099 5.28306 28.1288C4.47234 27.3132 4.84862 25.6308 4.86503 25.5596C4.88087 25.4904 4.94999 25.4472 5.01854 25.4635C5.08751 25.4792 5.13057 25.548 5.11473 25.6172C5.11098 25.6331 4.75386 27.2337 5.46508 27.9485C5.80406 28.2891 6.34434 28.3792 7.0714 28.2155C7.83042 28.0453 8.23708 27.666 8.4538 27.2861C8.31139 27.198 8.18034 27.0966 8.06342 26.9853C7.45847 26.4094 7.2933 25.6609 7.65215 25.123C7.87233 24.7926 8.12102 24.8142 8.24961 24.8567C8.67239 24.9964 8.98674 25.7148 8.95031 26.4586C8.94182 26.6335 8.90697 26.897 8.79263 27.179C9.44668 27.49 10.3085 27.4974 11.137 26.8839C11.574 26.5601 11.8692 26.1991 12.0603 25.8355C11.6886 25.4698 11.4592 25.0124 11.3525 24.5579C11.1897 23.863 11.3236 23.2376 11.6643 23.1035C11.9071 23.0074 12.1763 23.1612 12.3669 23.5044C12.6619 24.0365 12.7516 24.919 12.3697 25.7764C12.798 26.1387 13.4523 26.4056 14.4462 26.3209C15.9725 26.19 16.476 24.9859 16.6218 24.4741C16.6295 24.4469 16.6369 24.4195 16.6439 24.3923C16.2196 23.9544 15.8809 23.4659 15.7206 23.0773C15.5086 22.5638 15.6433 22.3419 15.7936 22.2457C16.053 22.0802 16.3139 22.0768 16.5283 22.2365C16.9527 22.5526 17.113 23.4361 16.9249 24.316C17.5278 24.9113 18.2828 25.3788 18.8922 25.2464C19.6577 25.0795 20.0222 23.9401 19.9464 21.9519C19.9437 21.8811 19.9989 21.8216 20.0696 21.8187C20.1377 21.8184 20.1997 21.8713 20.2025 21.9418C20.285 24.101 19.8625 25.2969 18.9469 25.4966C18.283 25.6422 17.4954 25.1951 16.8527 24.5972C16.5034 25.7558 15.6371 26.4761 14.468 26.5762C13.4925 26.66 12.765 26.4133 12.2547 26.0074C12.0424 26.392 11.7289 26.7644 11.2892 27.0897C10.3704 27.7701 9.41111 27.7599 8.68103 27.4102C8.43796 27.8427 7.98105 28.2741 7.12727 28.4658C6.87398 28.5225 6.63926 28.5507 6.42412 28.5507ZM8.10705 25.0888C8.04916 25.0888 7.96305 25.1186 7.86542 25.2649C7.57799 25.6959 7.72862 26.3125 8.24011 26.7994C8.33788 26.8927 8.44689 26.9781 8.56511 27.0528C8.65828 26.8147 8.68708 26.5939 8.69442 26.4457C8.72668 25.7851 8.44386 25.1905 8.1694 25.0999C8.15658 25.0959 8.13513 25.0888 8.10705 25.0888ZM11.8091 23.332C11.7914 23.332 11.7744 23.3353 11.7583 23.3415C11.5947 23.406 11.4562 23.8775 11.6021 24.4991C11.6548 24.7236 11.8018 25.1846 12.1742 25.5886C12.4979 24.7825 12.3503 24.0023 12.1429 23.6285C12.0393 23.4418 11.9137 23.332 11.8091 23.332ZM16.1836 22.3749C16.106 22.3749 16.0224 22.4037 15.9317 22.4617C15.8387 22.521 15.8483 22.7144 15.9578 22.9795C16.0907 23.3016 16.3634 23.7074 16.7073 24.0879C16.8281 23.3251 16.6573 22.6518 16.3757 22.4418C16.3155 22.3972 16.2518 22.3749 16.1836 22.3749Z" fill="#1D1D1D"/>
<path d="M40.2632 42.1523C40.2632 42.1523 44.9825 38.637 47.7159 40.3328C50.4493 42.0285 45.9136 56.72 45.9136 56.72L40.4338 58.2155L40.2632 42.1523Z" fill="#757A91"/>
<path d="M46.5036 53.0502C46.4911 53.0502 46.4783 53.0485 46.4658 53.0445C46.3982 53.0237 46.3603 52.9519 46.3812 52.8843C46.4093 52.7932 49.18 43.7638 47.9092 41.4605C47.8751 41.3988 47.8975 41.3207 47.9595 41.2866C48.0215 41.2517 48.0993 41.2746 48.1337 41.3368C49.4566 43.7347 46.7422 52.5844 46.626 52.9598C46.609 53.015 46.5583 53.0502 46.5036 53.0502Z" fill="#1D1D1D"/>
<path d="M44.3499 55.3203C44.3197 55.3203 44.2893 55.3095 44.2648 55.288C44.2118 55.2409 44.2071 55.1598 44.254 55.1071C44.3147 55.0389 45.5326 53.6687 46.1568 53.0619C45.5322 53.2091 44.192 53.6035 42.976 53.9845C42.9079 54.0055 42.8365 53.9678 42.8155 53.9004C42.7943 53.8329 42.8319 53.761 42.8994 53.7397C46.5311 52.6014 46.5873 52.7094 46.6463 52.8258C46.6593 52.8511 46.693 52.9407 46.5802 53.0248C46.1852 53.3198 44.4628 55.2578 44.4455 55.2772C44.4205 55.3057 44.3852 55.3203 44.3499 55.3203Z" fill="#1D1D1D"/>
<path d="M67.7822 52.5598C67.7194 52.5598 67.6643 52.5135 67.6556 52.4492L66.8118 46.3544C66.802 46.2843 66.8511 46.2198 66.9211 46.21C66.9893 46.2012 67.056 46.2493 67.0655 46.3193L67.9094 52.4141C67.9191 52.4842 67.87 52.5488 67.8001 52.5585C67.794 52.5594 67.7883 52.5598 67.7822 52.5598Z" fill="#1D1D1D"/>
<path d="M22.1159 50.8249C21.7843 50.8249 21.4764 50.7509 21.1939 50.6025C19.6607 49.7974 19.4496 47.113 19.4413 46.9991C19.4361 46.9286 19.4892 46.8672 19.5598 46.8621C19.6296 46.8559 19.6917 46.9102 19.6967 46.9807C19.6987 47.0072 19.9062 49.6374 21.3134 50.3758C21.9669 50.719 22.7926 50.602 23.7679 50.0289C23.8288 49.9929 23.9074 50.0134 23.9433 50.0744C23.9791 50.1352 23.9587 50.2138 23.8978 50.2495C23.246 50.633 22.6499 50.8249 22.1159 50.8249Z" fill="#1D1D1D"/>
<path d="M38.9179 51.175C38.8964 51.175 38.8751 51.1698 38.8554 51.1587C38.8038 51.1299 38.7785 51.0696 38.7943 51.0125C39.6642 47.8712 36.5412 43.7065 36.5095 43.6651C36.4667 43.6085 36.4777 43.5281 36.5341 43.4854C36.5904 43.4426 36.6706 43.4538 36.7137 43.5098C36.8358 43.671 39.486 47.2067 39.1818 50.3159C39.5081 49.5136 39.8494 47.9095 39.2042 45.2145C39.1876 45.1457 39.2302 45.0766 39.2991 45.0601C39.3677 45.0429 39.437 45.0862 39.4534 45.155C40.4885 49.4775 39.0727 51.0684 39.0119 51.1339C38.987 51.1607 38.9527 51.175 38.9179 51.175Z" fill="#1D1D1D"/>
<path d="M46.5035 52.8348C46.4381 52.8348 46.3824 52.785 46.3761 52.7188C46.3693 52.6485 46.421 52.5859 46.4914 52.5791L59.5504 51.3426C59.6162 51.3393 59.6833 51.3876 59.69 51.4582C59.6965 51.5285 59.645 51.5911 59.5744 51.5979L46.5158 52.8344C46.5117 52.8346 46.5076 52.8348 46.5035 52.8348Z" fill="#1D1D1D"/>
<path d="M31.4867 38.5022L35.4906 51.544L24.6102 51.4703C24.6102 51.4703 22.2377 53.0236 22.0455 52.9221C21.8532 52.8206 23.8329 50.7412 23.8329 50.7412C23.8329 50.7412 21.0176 52.6806 21.0817 51.9388C21.1457 51.1971 23.0108 50.1391 23.0108 50.1391C23.0108 50.1391 20.6 51.9154 20.3218 51.4703C20.0436 51.0252 23.0212 49.1069 23.4055 49.0429C23.7899 48.9788 31.8303 49.0429 31.8303 49.0429L28.7321 40.6129L31.4867 38.5022Z" fill="#EFA880"/>
<path d="M27.8378 44.2999L33.5903 41.2726C33.5903 41.2726 29.649 28.0864 22.4646 37.5969C22.4646 37.5969 25.2306 39.3776 27.8378 44.2999Z" fill="#E9546A"/>
<path d="M29.8143 44.4281C29.8089 44.4281 29.8032 44.4278 29.7975 44.4271C29.7274 44.4179 29.678 44.3535 29.6872 44.2833C30.0745 41.3389 26.4069 40.0046 26.3698 39.9915C26.3032 39.9677 26.2682 39.8946 26.2918 39.8277C26.3153 39.7609 26.3881 39.7261 26.4552 39.7497C26.4943 39.7635 30.3558 41.1657 29.9413 44.3167C29.9327 44.381 29.8777 44.4281 29.8143 44.4281Z" fill="#1D1D1D"/>
<path d="M22.107 56.7509C22.054 56.7509 22.0063 56.7184 21.9872 56.6684C20.723 53.3452 19.1604 51.5606 17.3426 51.3644C14.3604 51.0463 11.6428 55.1472 11.6157 55.1887C11.5771 55.248 11.4978 55.2645 11.4384 55.226C11.3793 55.1872 11.3626 55.1079 11.4012 55.0485C11.4082 55.038 12.1098 53.9703 13.1832 52.9595C14.6174 51.6087 16.0644 50.969 17.3697 51.1097C19.2192 51.3089 20.8025 53.0206 22.0789 56.1992C22.4134 54.924 23.6132 51.0422 25.9066 50.6457C27.3955 50.3893 29.0292 51.665 30.7634 54.44C30.801 54.4998 30.7827 54.579 30.7228 54.6164C30.6629 54.6541 30.5835 54.636 30.5462 54.5756C28.8727 51.8983 27.3276 50.6596 25.9506 50.8983C23.4293 51.3341 22.2438 56.5974 22.2323 56.6505C22.2202 56.7058 22.1731 56.7466 22.1165 56.7509C22.1132 56.7509 22.1101 56.7509 22.107 56.7509Z" fill="#1D1D1D"/>
<path d="M23.0106 56.7509C22.9891 56.7509 22.9674 56.7455 22.9475 56.7342C22.8905 56.702 22.867 56.6316 22.8933 56.5715C22.9707 56.3945 24.8101 52.239 26.6788 52.0793C28.5644 51.9194 29.8779 55.0524 29.9328 55.1858C29.9597 55.2513 29.9285 55.3262 29.8631 55.353C29.7977 55.3811 29.723 55.3489 29.6958 55.2834C29.6831 55.2525 28.4044 52.1984 26.7006 52.3344C25.5432 52.4335 24.3328 54.3484 23.66 55.6012C24.5597 54.5603 26.1007 53.0684 27.3677 53.2871C28.0822 53.4117 28.608 54.0551 28.9298 55.1998C28.949 55.268 28.9092 55.3387 28.8411 55.3579C28.7743 55.3772 28.7023 55.3374 28.6832 55.2693C28.3903 54.2275 27.9329 53.6457 27.3238 53.5396C25.5965 53.2385 23.1397 56.6624 23.1151 56.6969C23.0903 56.7319 23.0509 56.7509 23.0106 56.7509Z" fill="#1D1D1D"/>
<path d="M21.0819 56.9755C21.0405 56.9755 21 56.9552 20.9754 56.9186C20.9585 56.8932 19.2514 54.3816 17.1496 54.1055C16.2919 53.9936 15.475 54.2697 14.7226 54.9278C14.6695 54.9741 14.5884 54.9692 14.5417 54.9158C14.4952 54.8625 14.5006 54.7818 14.5538 54.7351C15.3641 54.0256 16.2486 53.7285 17.1837 53.8515C18.6221 54.0407 19.8493 55.1701 20.5536 55.9693C19.986 54.7581 18.928 52.7627 18.0281 52.5367C15.7264 51.9568 13.5038 54.4706 13.4816 54.4961C13.4353 54.5493 13.3542 54.5548 13.3008 54.5086C13.2475 54.4621 13.2419 54.3812 13.2884 54.3279C13.3831 54.219 15.6348 51.6719 18.0906 52.2878C19.5116 52.6452 21.1323 56.6296 21.2007 56.7992C21.2252 56.86 21.1999 56.9295 21.1418 56.96C21.1227 56.9707 21.1022 56.9755 21.0819 56.9755Z" fill="#1D1D1D"/>
<path d="M10.6328 55.4807L21.4206 58.9622L31.8302 55.6882L30.6549 53.2902L22.1069 56.6227L12.408 53.2902L10.6328 55.4807Z" fill="#3D9C91"/>
<path d="M58.2849 57.7711C58.2211 57.7711 58.1661 57.7235 58.158 57.6585L57.4253 51.6763C57.4165 51.6061 57.4666 51.5422 57.5369 51.5336C57.6062 51.5226 57.6708 51.5749 57.6796 51.6452L58.4123 57.6273C58.4211 57.6975 58.371 57.7614 58.3007 57.7701C58.2954 57.7708 58.2902 57.7711 58.2849 57.7711Z" fill="#1D1D1D"/>
<path d="M19.0292 37.4434C18.9638 37.4434 18.9081 37.3936 18.9017 37.3273C18.895 37.2571 18.9466 37.1944 19.0171 37.1877C19.8708 37.1069 20.2831 36.5205 20.4631 36.1379C20.3675 36.0771 20.2785 36.005 20.1974 35.9219C19.867 35.5838 19.7176 35.1035 19.834 34.7541C19.9051 34.5408 20.0647 34.4047 20.2837 34.3707C20.4644 34.3427 20.6255 34.4093 20.7402 34.5574C20.9736 34.8596 20.9887 35.4551 20.7881 36.0203C21.0545 36.1334 21.4278 36.1848 21.9256 36.0321C22.6358 35.8136 22.8577 35.1689 22.9186 34.6666C22.9346 34.5345 22.9411 34.4021 22.9392 34.2722C22.505 34.1932 22.1789 33.9534 21.9938 33.6444C21.7388 33.2187 21.7948 32.7405 22.127 32.5072C22.2572 32.4154 22.4067 32.4122 22.5479 32.497C22.8796 32.6957 23.1314 33.3518 23.1846 34.0473C23.4992 34.0629 23.8771 33.9808 24.3178 33.7583C24.7349 33.5478 25.0216 33.2749 25.1564 32.9667C24.861 32.982 24.6236 32.9414 24.496 32.9124C23.9386 32.7846 23.5195 32.4634 23.4531 32.1131C23.4278 31.9792 23.434 31.7213 23.7604 31.4979C24.0962 31.2684 24.4904 31.2445 24.8422 31.4331C25.2478 31.6503 25.5061 32.0952 25.5004 32.5667C25.4999 32.5968 25.4985 32.6292 25.4952 32.664C25.9373 32.569 26.4529 32.3143 26.899 31.7121C27.2868 31.1891 27.4062 30.7702 27.2542 30.467C26.9951 29.9502 25.9666 29.8339 25.5922 29.8327C25.5214 29.8324 25.4642 29.775 25.4645 29.7041C25.4648 29.6336 25.5221 29.5765 25.5927 29.5765H25.5931C25.6546 29.5768 27.1014 29.5904 27.4834 30.3523C27.6824 30.7488 27.5551 31.2576 27.1051 31.8647C26.5759 32.5787 25.9547 32.8502 25.4406 32.9358C25.3379 33.2618 25.074 33.6635 24.4332 33.9868C23.9718 34.2198 23.5555 34.3124 23.1949 34.2989C23.1957 34.4332 23.1886 34.5669 23.1728 34.6975C23.0737 35.5138 22.6574 36.0745 22.0007 36.2766C21.5221 36.4237 21.0681 36.4137 20.6903 36.256C20.3645 36.9429 19.7677 37.3736 19.0413 37.4427C19.0374 37.4433 19.0332 37.4434 19.0292 37.4434ZM20.364 34.6207C20.3509 34.6207 20.3373 34.6217 20.3231 34.624C20.2003 34.643 20.1175 34.7142 20.0773 34.8353C20.0036 35.0565 20.0844 35.4394 20.381 35.7432C20.4277 35.7907 20.4873 35.8439 20.5607 35.8948C20.7302 35.3884 20.6906 34.9123 20.5377 34.7145C20.4886 34.651 20.4329 34.6207 20.364 34.6207ZM22.3419 32.6926C22.315 32.6926 22.2936 32.7035 22.2745 32.717C22.0555 32.871 22.0298 33.2055 22.2139 33.5128C22.3488 33.7377 22.5877 33.9344 22.9252 34.0127C22.8646 33.3761 22.625 32.8416 22.4166 32.7167C22.3871 32.6993 22.3628 32.6926 22.3419 32.6926ZM24.3538 31.5629C24.2006 31.5629 24.048 31.6121 23.9053 31.7098C23.7482 31.8172 23.6808 31.9367 23.7051 32.0656C23.7514 32.3094 24.108 32.5604 24.5533 32.6625C24.68 32.6917 24.9273 32.733 25.2328 32.7042C25.24 32.658 25.2438 32.6112 25.2443 32.5635C25.2488 32.1924 25.0387 31.8288 24.7215 31.6589C24.6015 31.595 24.4774 31.5629 24.3538 31.5629Z" fill="#1D1D1D"/>
<path d="M12.7074 39.5268C12.6718 39.5268 12.6365 39.5119 12.6112 39.4833C12.2739 39.0999 9.31025 35.7198 9.10836 35.133C9.09584 35.0965 9.08086 35.0839 9.07611 35.0832C9.03723 35.0832 8.93384 35.1575 8.85305 35.3407C8.75758 35.5574 8.72345 35.8464 8.80294 36.1733C9.13313 36.7244 9.47254 37.2739 9.47816 37.2829C9.51243 37.3382 9.49961 37.4105 9.44849 37.4509C9.39737 37.4915 9.32408 37.4867 9.27828 37.4406C8.88243 37.0425 8.6624 36.6416 8.56491 36.2752C8.37857 35.9639 8.1967 35.6542 8.07948 35.4405C8.00964 35.6069 7.93073 36.0548 8.00518 36.6056C8.0275 36.7712 8.07156 36.9915 8.15796 37.2124C8.35049 37.4314 8.57988 37.6974 8.85377 38.0204C8.89308 38.0667 8.89438 38.1343 8.85708 38.1821C8.8195 38.2299 8.75355 38.2449 8.6994 38.2181C8.33955 38.0407 8.09792 37.725 7.9447 37.3617C7.53416 36.8975 7.18755 36.5254 7.0902 36.4603C7.04484 36.4498 7.00697 36.4149 6.99488 36.3667C6.9776 36.2981 7.01921 36.2283 7.0879 36.211C7.15068 36.1953 7.21808 36.1792 7.77651 36.7863C7.70638 36.4064 7.70652 36.0245 7.74872 35.725C7.80027 35.36 7.90092 35.1613 8.0478 35.1349C8.10123 35.1251 8.20347 35.1309 8.28339 35.2786C8.34113 35.3855 8.41947 35.5234 8.50904 35.6768C8.52315 35.5133 8.56217 35.3652 8.61848 35.2373C8.73324 34.9771 8.91353 34.8164 9.08792 34.8272C9.20801 34.8322 9.30377 34.9133 9.35057 35.0494C9.49097 35.4575 11.4926 37.8234 12.8035 39.3141C12.8502 39.3671 12.845 39.4481 12.7919 39.4948C12.7675 39.5162 12.7375 39.5268 12.7074 39.5268Z" fill="#1D1D1D"/>
<path d="M48.2768 57.2972C48.1286 57.2972 47.9911 57.2742 47.887 57.2134C47.8259 57.1776 47.8053 57.0994 47.841 57.038C47.8769 56.977 47.9552 56.9567 48.0163 56.9922C48.2382 57.1221 48.852 56.9705 49.187 56.8446C49.2534 56.8201 49.327 56.8531 49.352 56.9192C49.3771 56.9856 49.3437 57.0593 49.2774 57.0844C49.2034 57.1123 48.6972 57.2972 48.2768 57.2972Z" fill="#1D1D1D"/>
<path d="M49.5571 56.3164C49.409 56.3164 49.2716 56.2933 49.1675 56.2326C49.1064 56.1967 49.0858 56.1185 49.1215 56.0575C49.1572 55.9967 49.2357 55.9757 49.2968 56.0114C49.5193 56.1417 50.1331 55.9896 50.4675 55.8638C50.534 55.8393 50.6075 55.8723 50.6325 55.9384C50.6576 56.0048 50.6242 56.0785 50.5578 56.1035C50.4838 56.1313 49.9775 56.3164 49.5571 56.3164Z" fill="#1D1D1D"/>
<path d="M47.1206 56.2133C46.9724 56.2133 46.8351 56.1903 46.7309 56.1295C46.6699 56.0937 46.6493 56.0155 46.685 55.9544C46.7207 55.8934 46.7992 55.8726 46.8603 55.9084C47.0829 56.0385 47.6965 55.8869 48.031 55.7608C48.0974 55.736 48.1709 55.7693 48.196 55.8353C48.2211 55.9017 48.1877 55.9755 48.1213 56.0005C48.0474 56.0285 47.5409 56.2133 47.1206 56.2133Z" fill="#1D1D1D"/>
<path d="M29.1416 37.1775C29.1 37.1775 29.0591 37.1572 29.0344 37.1197C28.8931 36.9047 28.2759 36.7676 27.9201 36.7316C27.8497 36.7246 27.7984 36.6618 27.8053 36.5915C27.8122 36.5212 27.8754 36.4688 27.9456 36.4769C28.0521 36.4874 28.9943 36.5925 29.2485 36.9792C29.2872 37.0382 29.2709 37.1178 29.2118 37.1566C29.1902 37.1707 29.1658 37.1775 29.1416 37.1775Z" fill="#1D1D1D"/>
<path d="M28.7329 35.5671C28.6913 35.5671 28.6504 35.5468 28.6257 35.5094C28.4843 35.2941 27.8672 35.157 27.5114 35.121C27.441 35.114 27.3897 35.0512 27.3966 34.9809C27.4038 34.9107 27.4655 34.8582 27.5369 34.8663C27.6434 34.8768 28.5856 34.9819 28.8398 35.3689C28.8785 35.4279 28.8623 35.5075 28.8031 35.5463C28.7815 35.5604 28.7571 35.5671 28.7329 35.5671Z" fill="#1D1D1D"/>
<path d="M30.3262 36.9549C30.2669 36.9549 30.2138 36.9136 30.201 36.8533C30.1477 36.6013 29.6229 36.2486 29.3046 36.0858C29.2416 36.0535 29.2167 35.9762 29.249 35.9134C29.2812 35.8506 29.3586 35.8258 29.4213 35.8575C29.5168 35.9063 30.3559 36.3476 30.4517 36.8001C30.4664 36.8694 30.422 36.9372 30.3529 36.9521C30.344 36.9539 30.335 36.9549 30.3262 36.9549Z" fill="#1D1D1D"/>
<path d="M27.5242 36.0544C27.4968 36.0544 27.4691 36.0456 27.4457 36.0273C27.2423 35.8699 26.6142 35.9398 26.2657 36.0211C26.1968 36.0371 26.1278 35.9943 26.1118 35.9252C26.0957 35.8564 26.1384 35.7876 26.2074 35.7713C26.3118 35.7472 27.237 35.541 27.6028 35.8251C27.6586 35.8685 27.6689 35.949 27.6254 36.0048C27.6003 36.0372 27.5625 36.0544 27.5242 36.0544Z" fill="#1D1D1D"/>
<path d="M16.1875 44.4903C16.1545 44.4903 16.1215 44.4774 16.0964 44.4522C16.0466 44.4021 16.0471 44.3209 16.0972 44.2711C16.1732 44.1958 16.8535 43.5371 17.314 43.5862C17.3842 43.594 17.4351 43.6571 17.4274 43.7276C17.4197 43.7979 17.3569 43.8474 17.2862 43.841C17.0299 43.8137 16.5315 44.2015 16.2776 44.4533C16.2527 44.4779 16.22 44.4903 16.1875 44.4903Z" fill="#1D1D1D"/>
<path d="M14.082 45.651C14.049 45.651 14.016 45.6382 13.991 45.613C13.9412 45.5629 13.9416 45.4817 13.9917 45.4319C14.0677 45.3565 14.7481 44.6992 15.2085 44.747C15.2788 44.7548 15.3296 44.8178 15.322 44.8884C15.3142 44.9585 15.2514 45.0085 15.1807 45.0017C14.9225 44.9726 14.4261 45.3623 14.1721 45.614C14.1471 45.6388 14.1144 45.651 14.082 45.651Z" fill="#1D1D1D"/>
<path d="M15.6313 45.9764C15.5983 45.9764 15.5653 45.9636 15.5403 45.9384C15.4905 45.8883 15.4909 45.8071 15.541 45.7572C15.617 45.6819 16.2964 45.024 16.7578 45.0724C16.8281 45.0801 16.8789 45.1432 16.8713 45.2138C16.8637 45.2839 16.7997 45.3342 16.73 45.3271C16.474 45.2996 15.9753 45.688 15.7214 45.9394C15.6965 45.964 15.6638 45.9764 15.6313 45.9764Z" fill="#1D1D1D"/>
<path d="M30.6546 38.6824C30.5953 38.6824 30.5421 38.6411 30.5293 38.5808C30.4762 38.3288 29.9513 37.9764 29.6331 37.8135C29.57 37.7813 29.5451 37.704 29.5773 37.6412C29.6096 37.5784 29.6869 37.5536 29.7496 37.5853C29.845 37.6341 30.6843 38.075 30.7799 38.5278C30.7946 38.597 30.7502 38.6649 30.6811 38.6797C30.6722 38.6814 30.6634 38.6824 30.6546 38.6824Z" fill="#1D1D1D"/>
<path d="M31.8145 38.7217C31.7507 38.7217 31.6956 38.6742 31.6875 38.6094C31.6558 38.3533 31.1631 37.9579 30.8596 37.7686C30.7996 37.7313 30.7813 37.6522 30.8187 37.5922C30.8562 37.5321 30.9348 37.5138 30.9953 37.5514C31.0863 37.608 31.8849 38.1188 31.9417 38.578C31.9504 38.6482 31.9005 38.712 31.8303 38.7208C31.825 38.7214 31.8197 38.7217 31.8145 38.7217Z" fill="#1D1D1D"/>
<path d="M50.7626 57.2972C50.6143 57.2972 50.4769 57.2742 50.3728 57.2134C50.3117 57.1776 50.2911 57.0991 50.3269 57.038C50.3627 56.977 50.4413 56.9567 50.5021 56.9922C50.7244 57.1225 51.3379 56.9708 51.6728 56.8446C51.7389 56.8201 51.8128 56.8531 51.8378 56.9192C51.8629 56.9856 51.8295 57.0593 51.7633 57.0844C51.6891 57.1123 51.1829 57.2972 50.7626 57.2972Z" fill="#1D1D1D"/>
<path d="M52.5437 56.2133C52.3955 56.2133 52.2582 56.1903 52.154 56.1295C52.093 56.0937 52.0724 56.0155 52.1081 55.9544C52.1438 55.8934 52.2222 55.8726 52.2834 55.9084C52.5058 56.0385 53.1194 55.8869 53.4541 55.7608C53.5203 55.736 53.5939 55.7693 53.6191 55.8353C53.6442 55.9017 53.6107 55.9755 53.5444 56.0005C53.4703 56.0285 52.964 56.2133 52.5437 56.2133Z" fill="#1D1D1D"/>
<path d="M62.6653 51.7005C62.5175 51.7005 62.3801 51.6775 62.276 51.6167C62.2149 51.5809 62.1942 51.5027 62.2299 51.4416C62.2655 51.3801 62.3445 51.3595 62.405 51.3955C62.6275 51.5257 63.2414 51.3738 63.5757 51.2479C63.6422 51.2232 63.7161 51.2564 63.7409 51.3225C63.7659 51.3889 63.7324 51.4626 63.6663 51.4877C63.592 51.5155 63.0858 51.7005 62.6653 51.7005Z" fill="#1D1D1D"/>
<path d="M61.7403 50.631C61.5922 50.631 61.4548 50.6079 61.3507 50.5471C61.2896 50.5113 61.2689 50.4331 61.3046 50.372C61.3402 50.3107 61.4186 50.2897 61.4797 50.326C61.7022 50.4558 62.3158 50.3042 62.6504 50.1784C62.7175 50.1536 62.7905 50.1869 62.8156 50.253C62.8406 50.3193 62.8071 50.3931 62.741 50.4181C62.667 50.4461 62.1608 50.631 61.7403 50.631Z" fill="#1D1D1D"/>
<path d="M60.5941 51.5976C60.4462 51.5976 60.3088 51.5745 60.2047 51.5138C60.1436 51.4779 60.1229 51.3997 60.1586 51.3387C60.1942 51.2773 60.2732 51.2566 60.3337 51.2926C60.5565 51.4228 61.1701 51.2708 61.5044 51.145C61.571 51.1206 61.6448 51.1535 61.6696 51.2196C61.6947 51.286 61.6611 51.3597 61.595 51.3847C61.5207 51.4127 61.0145 51.5976 60.5941 51.5976Z" fill="#1D1D1D"/>
<path d="M59.0472 50.7628C58.8993 50.7628 58.7619 50.7397 58.6578 50.679C58.5968 50.6431 58.576 50.5649 58.6117 50.5039C58.6476 50.4425 58.7261 50.4218 58.7868 50.4578C59.0093 50.5877 59.6232 50.4361 59.9576 50.3102C60.0241 50.2857 60.098 50.3187 60.1227 50.3848C60.1478 50.4512 60.1142 50.5249 60.0481 50.55C59.9738 50.5779 59.4675 50.7628 59.0472 50.7628Z" fill="#1D1D1D"/>
<path d="M56.7185 50.9685C56.5706 50.9685 56.4333 50.9455 56.3294 50.8847C56.2684 50.8489 56.2477 50.7707 56.2834 50.7096C56.3192 50.6483 56.3977 50.6275 56.4585 50.6635C56.6807 50.7928 57.2942 50.6418 57.6292 50.5156C57.696 50.4912 57.7693 50.5241 57.7944 50.5902C57.8194 50.6566 57.7859 50.7303 57.7198 50.7554C57.6457 50.7833 57.139 50.9685 56.7185 50.9685Z" fill="#1D1D1D"/>
<path d="M53.8242 57.1947C53.676 57.1947 53.5387 57.1716 53.4346 57.1108C53.3735 57.075 53.3529 56.9968 53.3886 56.9357C53.4243 56.8747 53.5027 56.8539 53.5639 56.8897C53.7864 57.0198 54.4001 56.8679 54.7346 56.7421C54.801 56.7177 54.8746 56.7503 54.8996 56.8167C54.9247 56.883 54.8913 56.9568 54.8249 56.9818C54.7509 57.0098 54.2444 57.1947 53.8242 57.1947Z" fill="#1D1D1D"/>
<path d="M45.9817 57.4001C45.8335 57.4001 45.6961 57.3771 45.592 57.3163C45.531 57.2804 45.5104 57.2022 45.5461 57.1412C45.582 57.0804 45.6601 57.0591 45.7213 57.0951C45.944 57.2253 46.5576 57.0734 46.8921 56.9475C46.9584 56.9232 47.0322 56.9557 47.0571 57.0221C47.0821 57.0885 47.0487 57.1622 46.9824 57.1873C46.9083 57.2152 46.402 57.4001 45.9817 57.4001Z" fill="#1D1D1D"/>
<path d="M13.8316 21.48C13.7641 21.48 13.7075 21.4272 13.7037 21.3589C13.6026 19.4878 10.7473 19.3667 10.7186 19.3657C10.6479 19.3632 10.5925 19.3039 10.5951 19.233C10.5975 19.1625 10.6578 19.1117 10.7274 19.1095C10.7585 19.1108 13.846 19.2401 13.9598 21.345C13.9635 21.4158 13.9094 21.4761 13.8387 21.4799C13.8362 21.48 13.8339 21.48 13.8316 21.48Z" fill="#1D1D1D"/>
<path d="M15.8629 20.4229C15.8198 20.4229 15.7779 20.4012 15.7536 20.3618C15.7055 20.2842 14.5487 18.4632 12.0055 18.9262C11.9358 18.9371 11.8694 18.8926 11.8566 18.8231C11.8438 18.7532 11.89 18.6867 11.9597 18.6739C14.6806 18.1784 15.9593 20.2072 15.972 20.2276C16.0089 20.288 15.9901 20.3667 15.93 20.4037C15.9088 20.4167 15.8857 20.4229 15.8629 20.4229Z" fill="#1D1D1D"/>
<path d="M9.97115 22.4817C9.92767 22.4817 9.88519 22.4596 9.86114 22.4196C9.80987 22.3341 8.6151 20.3137 9.59834 19.2379C9.64629 19.1854 9.72693 19.1819 9.77935 19.2297C9.83147 19.2775 9.83522 19.3586 9.78741 19.4106C8.93176 20.347 10.0691 22.2681 10.0807 22.2874C10.1172 22.3482 10.0974 22.4268 10.0368 22.4634C10.0164 22.4758 9.99362 22.4817 9.97115 22.4817Z" fill="#1D1D1D"/>
<path d="M6.76183 23.0753C6.69487 23.0753 6.63843 23.0233 6.63411 22.9555C6.63252 22.9301 6.49241 20.4055 8.55607 19.3942C8.61958 19.3634 8.69647 19.3892 8.72758 19.453C8.75854 19.5165 8.73233 19.5931 8.66883 19.6243C6.75751 20.561 6.88812 22.915 6.88971 22.9388C6.89431 23.0093 6.84075 23.0704 6.77019 23.0749C6.76759 23.0753 6.76471 23.0753 6.76183 23.0753Z" fill="#1D1D1D"/>
<path d="M22.0968 50.8694C22.0623 50.8694 22.0278 50.8554 22.0028 50.828C21.9547 50.776 21.958 50.6951 22.01 50.6472C22.0287 50.6299 22.4727 50.2228 22.962 50.0208C23.0272 49.9937 23.1024 50.0248 23.1293 50.0903C23.1564 50.1557 23.1253 50.2304 23.0599 50.2575C22.6136 50.442 22.1881 50.8316 22.1839 50.8354C22.1589 50.8581 22.1279 50.8694 22.0968 50.8694Z" fill="#251426"/>
<path d="M22.8605 51.4958C22.8188 51.4958 22.7779 51.4752 22.7531 51.4377C22.7144 51.3787 22.7309 51.2991 22.7901 51.2606C22.8869 51.1973 23.744 50.6406 24.0488 50.572C24.1178 50.556 24.1865 50.5998 24.202 50.6689C24.2176 50.7378 24.1742 50.8063 24.1051 50.8219C23.908 50.8664 23.2947 51.2367 22.9305 51.475C22.9089 51.489 22.8846 51.4958 22.8605 51.4958Z" fill="#251426"/>
<path d="M17.2251 39.3532C17.1719 39.3532 17.1224 39.3196 17.1041 39.2667C17.0812 39.1998 17.1169 39.127 17.1836 39.1039C17.1924 39.1009 18.0712 38.7851 18.7258 37.5627C18.7594 37.5003 18.837 37.4763 18.8993 37.5104C18.9617 37.5437 18.9852 37.6213 18.9518 37.6838C18.246 39.0011 17.3058 39.3329 17.2662 39.3464C17.2526 39.3509 17.2387 39.3532 17.2251 39.3532Z" fill="#1D1D1D"/>
</g>
<defs>
<clipPath id="clip0_571_10907">
<rect width="72" height="72" fill="white"/>
</clipPath>
</defs>
</svg>
