<svg width="32" height="32" viewBox="0 0 32 32" fill="none" xmlns="http://www.w3.org/2000/svg">
<g clip-path="url(#clip0_423_4871)">
<path d="M19.9786 30.0573C19.8752 30.0573 19.7661 30.0543 19.6545 30.0481C19.6219 30.0468 19.5833 30.0438 19.5448 30.0406C18.6508 29.9794 17.694 29.7483 17.1119 29.5866C17.0121 29.7538 16.8296 29.8605 16.6291 29.8605C16.5641 29.8605 16.5001 29.8494 16.439 29.8273C16.4227 29.8217 16.4068 29.8152 16.3912 29.8081C16.1094 29.8256 15.8285 29.8344 15.5536 29.8344C13.7993 29.8344 12.1426 29.4691 10.7531 28.7769H10.3797C10.1685 28.9481 9.90601 29.0429 9.63058 29.0429C9.62939 29.0429 9.0642 29.0391 9.0642 29.0391L8.67264 29.4361C8.44551 29.6664 8.14214 29.7934 7.81851 29.7934C7.49489 29.7934 7.19151 29.6665 6.96433 29.436L6.57351 29.0397C6.57295 29.0395 6.57239 29.0393 6.57183 29.0391L6.01476 29.0429C5.73301 29.0429 5.46895 28.9481 5.25739 28.7769H4.19033C4.04395 28.7769 3.90514 28.7116 3.8117 28.5988C1.9057 26.2962 2.39095 22.4479 2.68801 20.9003C2.76195 20.5153 2.85464 20.1177 2.96926 19.6942C2.95901 19.6887 2.94889 19.6831 2.93883 19.6776C2.93264 19.6742 2.92651 19.6707 2.92045 19.6671L2.77126 19.5843C2.76176 19.5791 2.75245 19.5736 2.74339 19.5678C2.60308 19.4859 2.46583 19.4012 2.3352 19.3156C1.7117 18.9074 1.14726 18.4264 0.657764 17.8861C0.657764 17.8861 0.532264 17.7443 0.527827 17.7392C0.368702 17.5558 0.192077 17.3313 0.0886393 17.0559C-0.0492982 16.6914 -0.0254232 16.3098 0.154514 16.0099C0.182452 15.9639 0.211702 15.9228 0.242639 15.8859C0.286889 15.8306 0.337202 15.7801 0.392452 15.7356C0.602327 15.564 0.885389 15.4681 1.18645 15.4681C1.27733 15.4681 1.36808 15.4769 1.45614 15.4945C1.8422 15.5703 2.1512 15.7824 2.43451 15.9931C2.69745 16.1889 2.96101 16.4014 3.21826 16.6249L3.22876 16.6339C3.29076 16.6878 3.3527 16.7416 3.41364 16.7964C3.54251 16.9112 3.67083 17.0291 3.7997 17.1514C3.91508 16.8366 4.03214 16.5238 4.14701 16.2168C4.21564 16.0334 4.28426 15.8501 4.35245 15.6664C4.3367 15.6505 4.32051 15.6336 4.3037 15.6158C4.26176 15.5708 4.22139 15.5283 4.18145 15.4861C3.98595 15.2801 3.78383 15.067 3.60876 14.7941C3.34145 14.3749 3.10845 13.9358 2.91551 13.4878C2.91251 13.4808 2.90964 13.4738 2.90701 13.4666L2.84095 13.3113C2.83658 13.3011 2.83264 13.2909 2.82895 13.2806C2.76895 13.1306 2.71295 12.9793 2.66245 12.8309C2.4222 12.1256 2.2732 11.3991 2.2197 10.6719C2.2197 10.6719 2.20801 10.4826 2.2077 10.4762C2.19508 10.2338 2.19395 9.948 2.28189 9.66731C2.39751 9.29494 2.6512 9.00881 2.97745 8.88319C3.0287 8.86394 3.07683 8.84963 3.12351 8.83956C3.19251 8.82325 3.2632 8.81438 3.33383 8.81338L3.3547 8.81313C3.70864 8.81313 4.06976 8.98681 4.3207 9.27775C4.57826 9.57481 4.69145 9.93206 4.78514 10.2727C4.87201 10.5893 4.94901 10.919 5.0142 11.2529C5.03133 11.3406 5.0477 11.4244 5.06258 11.5083C5.14695 11.9701 5.21408 12.4504 5.26533 12.9643C5.35189 12.6743 5.43626 12.3845 5.51926 12.0991C6.01539 10.3943 6.52845 8.63138 7.4442 7.04913C8.80401 4.69975 10.9795 2.95738 13.4126 2.26869C14.1773 2.05231 14.9743 1.94263 15.7814 1.94263C16.9242 1.94263 18.051 2.16525 19.0718 2.58956C19.1718 2.43169 19.3475 2.33075 19.542 2.33075C19.7621 2.33075 19.9624 2.46081 20.0522 2.66225C20.1743 2.93613 20.4206 3.17144 20.7458 3.32488C20.9226 3.40838 21.0408 3.57431 21.0618 3.76869C21.0626 3.77656 21.0633 3.78444 21.0638 3.79225C21.9829 4.56319 22.7387 5.55175 23.3628 6.79994C23.4213 6.79069 23.4808 6.786 23.5405 6.786C23.8468 6.786 24.134 6.90613 24.3491 7.12425L24.6393 7.41844C24.6575 7.42375 24.6756 7.43 24.6934 7.43731C24.7201 7.44831 24.7455 7.46125 24.7695 7.476L25.1915 7.47313C25.5057 7.47313 25.7933 7.59281 26.0092 7.81019C26.2251 8.02756 26.3428 8.31588 26.3407 8.62225L26.3376 9.07356C26.3401 9.07906 26.3424 9.08456 26.3446 9.09013C26.3518 9.1075 26.3581 9.12506 26.3633 9.143L26.6894 9.46463C26.9086 9.68075 27.0293 9.96938 27.0293 10.2773C27.0293 10.5851 26.9086 10.8737 26.6895 11.0899L26.3373 11.4373L26.3406 11.9323C26.3427 12.2387 26.225 12.5271 26.0091 12.7444C25.8023 12.9528 25.5296 13.0713 25.2376 13.0809C25.4788 13.9953 25.8059 14.9126 26.3746 15.6963C26.6951 16.1381 27.0843 16.5271 27.4964 16.939C27.8896 17.3321 28.2962 17.7385 28.6468 18.2021C28.7825 18.3815 28.91 18.5713 29.0341 18.7788C29.3016 18.9194 29.5568 19.0669 29.7959 19.219C30.0309 19.1693 30.2746 19.1307 30.5148 19.1307C30.6702 19.1307 30.8155 19.1473 30.9466 19.1798C31.097 19.2166 31.2415 19.2761 31.3744 19.3563C31.4371 19.3935 31.4935 19.433 31.5444 19.4756C31.8231 19.7007 31.9845 20.0004 31.9987 20.32C32.0141 20.6174 31.893 20.8831 31.8278 21.0259C31.5619 21.6079 31.2263 22.1543 30.9017 22.6828C30.6328 23.1204 30.378 23.5355 30.1607 23.9667C30.0908 25.3595 29.8008 26.7378 29.5201 28.0718L29.4539 28.3864C29.4063 28.6141 29.2055 28.7772 28.9729 28.7772H28.2954C28.2677 28.8719 28.2333 28.965 28.1925 29.0565C28.1715 29.1036 28.118 29.2092 28.1149 29.2146C28.0862 29.2649 28.055 29.3096 28.0198 29.3509C27.8485 29.5567 27.5819 29.6793 27.3053 29.6793C27.2371 29.6793 27.1689 29.6719 27.1024 29.6574C26.342 29.4943 25.635 29.1911 25.0478 28.7773H21.9965C21.9937 28.8127 21.9893 28.8458 21.984 28.8764C21.8888 29.4151 21.4638 30.0573 19.9786 30.0573Z" fill="white"/>
<path d="M4.26277 28.2854H29.0453C29.3914 26.6325 29.7698 24.9563 29.7579 23.2676C29.746 21.5789 29.3458 19.8451 28.3272 18.4982C27.6445 17.5954 26.714 16.9008 26.0493 15.9847C24.9758 14.5053 24.7016 12.6159 24.2969 10.8334C23.7187 8.28707 22.7218 5.68419 20.6814 4.05476C18.738 2.50288 16.012 2.06419 13.619 2.74144C11.226 3.41869 9.18783 5.14269 7.94202 7.29513C6.72071 9.40532 6.23989 11.8476 5.47877 14.1638C4.7302 16.4418 3.6952 18.6381 3.24314 20.9929C2.79114 23.3477 2.73383 26.4383 4.26277 28.2854Z" fill="#FFDBAF"/>
<path d="M10.3582 27.8849C10.3484 27.8849 10.3387 27.8802 10.3327 27.8713C7.65856 23.8976 5.72449 19.3195 4.73968 14.6322C4.73618 14.6156 4.74681 14.5993 4.76343 14.5958C4.78006 14.5926 4.79637 14.603 4.79981 14.6196C5.78299 19.2992 7.71393 23.8697 10.3837 27.8371C10.3932 27.8511 10.3894 27.8702 10.3754 27.8797C10.3701 27.8832 10.3641 27.8849 10.3582 27.8849Z" fill="#703427"/>
<path d="M4.96565 15.0273C4.96965 15.1791 4.99634 15.3302 4.98309 15.4026L4.98322 15.404C4.97491 15.4532 4.94765 15.4656 4.87909 15.4165C4.84397 15.3898 4.79565 15.3445 4.73415 15.279C4.50215 15.0302 4.2774 14.8133 4.09478 14.5286C3.84378 14.135 3.62365 13.7214 3.43922 13.2932L3.43909 13.2918C3.41378 13.233 3.38997 13.1754 3.36465 13.1166L3.36453 13.1152C3.30553 12.9684 3.25072 12.8213 3.20003 12.6723C2.9759 12.0145 2.83309 11.3279 2.78215 10.6357C2.77953 10.5918 2.7769 10.548 2.7744 10.5055C2.77272 10.4872 2.77247 10.4687 2.77078 10.4504C2.75965 10.2367 2.7594 10.0177 2.82315 9.8141C2.88678 9.6091 3.02709 9.41841 3.22628 9.34178C3.25103 9.33241 3.27728 9.32428 3.30384 9.31897C3.33997 9.30997 3.37653 9.30516 3.41347 9.3046C3.63915 9.29947 3.86959 9.42335 4.02084 9.5986C4.21497 9.82253 4.30453 10.1158 4.38359 10.4029C4.46922 10.715 4.54228 11.0298 4.60415 11.3469C4.62028 11.4293 4.6364 11.5118 4.65109 11.5943C4.85753 12.7245 4.93834 13.8805 4.96565 15.0273Z" fill="#96976A"/>
<path d="M4.98286 15.4027C4.84304 14.4399 4.64986 13.4691 4.41467 12.5208L4.65086 11.5944C4.63617 11.5119 4.62004 11.4294 4.60392 11.347L4.36055 12.3039C4.30055 12.069 4.23798 11.8372 4.17267 11.6072C4.17429 11.5942 4.17036 11.5818 4.16236 11.5726C3.94079 10.7879 3.69004 10.0259 3.41317 9.30469C3.37623 9.30525 3.33973 9.31 3.30354 9.319C3.56342 9.99488 3.80105 10.7069 4.01361 11.4397C3.6238 11.0987 3.20954 10.7856 2.77417 10.5056C2.77667 10.548 2.77929 10.5919 2.78192 10.6357C3.23461 10.934 3.66636 11.2669 4.06811 11.6296L4.06823 11.631C4.15205 11.9234 4.23048 12.2191 4.30492 12.5181L4.30505 12.5195L4.30298 12.5282C4.29773 12.5486 4.30548 12.5706 4.3223 12.5833C4.4203 12.9839 4.51167 13.3894 4.59461 13.7957C4.16486 13.6077 3.75273 13.3796 3.36442 13.1167C3.38973 13.1755 3.41355 13.2331 3.43886 13.2919L3.43898 13.2933C3.81404 13.5361 4.21036 13.7471 4.62048 13.9227L4.62061 13.9241C4.72042 14.4212 4.80755 14.9196 4.87886 15.4165C4.94742 15.4657 4.97467 15.4532 4.98298 15.4041L4.98286 15.4027Z" fill="#703427"/>
<path d="M5.51765 19.6745C5.61421 19.7917 5.72828 19.8944 5.76234 19.9595L5.76334 19.9606C5.78703 20.0044 5.77321 20.031 5.6889 20.0345C5.64478 20.0351 5.57884 20.029 5.49009 20.0153C5.15409 19.9619 4.84346 19.9292 4.52428 19.8172C4.08421 19.6613 3.65621 19.4707 3.24734 19.2467L3.24634 19.2457C3.19021 19.2149 3.13603 19.1842 3.07984 19.1534L3.0789 19.1523C2.94209 19.0729 2.80834 18.9907 2.67678 18.9044C2.09534 18.5237 1.56028 18.0704 1.09421 17.556C1.06521 17.523 1.03615 17.49 1.00809 17.4582C0.995464 17.4448 0.983901 17.4304 0.971276 17.417C0.830964 17.2554 0.696026 17.0829 0.621026 16.8832C0.545026 16.6824 0.538339 16.4457 0.648151 16.2628C0.661901 16.2402 0.677589 16.2176 0.695276 16.1971C0.718214 16.1677 0.744089 16.1415 0.772839 16.1184C0.947589 15.9755 1.20546 15.9313 1.43253 15.9764C1.72334 16.0335 1.9744 16.2095 2.2134 16.3873C2.47296 16.5807 2.72421 16.7838 2.96815 16.9957C3.03159 17.0508 3.09503 17.1059 3.1574 17.1619C4.01559 17.9258 4.79059 18.7874 5.51765 19.6745Z" fill="#96976A"/>
<path d="M5.76237 19.9597L5.76337 19.9608C5.78706 20.0046 5.77325 20.0312 5.68894 20.0347C5.32694 19.6868 4.95169 19.3476 4.56706 19.0171L4.56606 19.0161C4.53287 18.987 4.50169 18.96 4.4675 18.9319C4.15219 18.6627 3.83063 18.3993 3.50688 18.1438L3.50594 18.1428C3.48831 18.1302 3.47169 18.1167 3.454 18.1041L3.45306 18.103C3.21044 17.9132 2.96662 17.7283 2.72069 17.5494L2.71969 17.5484C2.66681 17.5087 2.61387 17.471 2.55994 17.4323C1.9415 16.9853 1.31606 16.5702 0.695312 16.1974C0.71825 16.168 0.744125 16.1418 0.772875 16.1187C1.43494 16.5168 2.10144 16.9632 2.75887 17.4455C2.76869 17.4518 2.7785 17.4581 2.78825 17.4664C2.98125 17.6077 3.17319 17.7518 3.36506 17.9L3.366 17.9011C3.42375 17.946 3.48244 17.9918 3.54019 18.0367L3.54119 18.0378C4.31019 18.6404 5.05975 19.2867 5.76237 19.9597Z" fill="#703427"/>
<path d="M2.78831 17.4662C2.79506 17.4754 2.79868 17.4876 2.79724 17.5006C2.79681 17.5146 2.79043 17.5264 2.78112 17.5351C2.77081 17.5448 2.75662 17.5504 2.74062 17.5499C2.73462 17.5497 2.72762 17.5486 2.72062 17.5493L2.71962 17.5483C2.17974 17.5096 1.63462 17.5128 1.09418 17.5562C1.06518 17.5233 1.03612 17.4903 1.00806 17.4584C1.52356 17.4112 2.04281 17.4032 2.55987 17.4322C2.62293 17.4351 2.68593 17.4381 2.74893 17.443C2.75293 17.4431 2.75587 17.4442 2.75887 17.4453C2.77081 17.4476 2.78162 17.4549 2.78831 17.4662Z" fill="#703427"/>
<path d="M3.15745 17.1618L3.54126 18.0373L3.55532 18.0688C3.5637 18.0901 3.55895 18.114 3.54245 18.1295C3.53832 18.1334 3.53326 18.1362 3.52814 18.139C3.52101 18.1419 3.51395 18.1446 3.50695 18.1434C3.48589 18.1438 3.46626 18.1312 3.45782 18.1119L3.45407 18.1037L3.3652 17.8996L2.96826 16.9956C3.03157 17.0507 3.09501 17.1057 3.15745 17.1618Z" fill="#703427"/>
<path d="M4.60608 18.9511C4.61052 18.9703 4.6039 18.9901 4.58946 19.0038C4.58327 19.0096 4.57608 19.0144 4.56802 19.0161L4.56702 19.0171L4.56602 19.0161C4.13465 19.1301 3.6924 19.2076 3.24733 19.247L3.24633 19.2459C3.19021 19.2151 3.13602 19.1844 3.07983 19.1536C3.54771 19.122 4.0129 19.0481 4.4674 18.9319C4.49158 18.9266 4.51683 18.9204 4.54008 18.9141C4.5694 18.906 4.59796 18.9238 4.60608 18.9511Z" fill="#703427"/>
<path d="M6.87982 21.4294C6.86932 21.4294 6.85907 21.4239 6.85332 21.4143C6.48863 20.7959 6.02225 20.2515 5.46732 19.7964C5.45419 19.7856 5.45225 19.7663 5.463 19.7531C5.47388 19.74 5.49319 19.7382 5.50625 19.7489C6.06682 20.2086 6.53782 20.7584 6.90625 21.3831C6.91482 21.3977 6.91001 21.4165 6.89538 21.4251C6.89051 21.4281 6.88513 21.4294 6.87982 21.4294Z" fill="#703427"/>
<path d="M6.41583 17.1033C6.39064 17.2531 6.34302 17.399 6.34602 17.4725L6.3457 17.4739C6.34702 17.5237 6.37233 17.5399 6.44708 17.5007C6.48564 17.4793 6.53977 17.4412 6.60983 17.3849C6.87433 17.1709 7.12727 16.9877 7.34795 16.7313C7.65152 16.3767 7.92733 15.998 8.16995 15.5998L8.17027 15.5984C8.20358 15.5437 8.23514 15.4901 8.26852 15.4354L8.26883 15.434C8.34783 15.2969 8.42264 15.1589 8.49364 15.0186C8.80758 14.3986 9.04508 13.7386 9.19233 13.0604C9.20108 13.0173 9.20977 12.9742 9.21814 12.9326C9.22239 12.9146 9.22527 12.8964 9.22945 12.8785C9.27039 12.6684 9.30127 12.4516 9.26664 12.2411C9.23233 12.0292 9.12002 11.8208 8.93358 11.7171C8.91039 11.7043 8.88552 11.6926 8.85995 11.6837C8.82545 11.6697 8.78989 11.6599 8.75345 11.6541C8.5307 11.6175 8.2852 11.7079 8.11095 11.8602C7.88739 12.0548 7.7577 12.3327 7.6392 12.6059C7.51077 12.903 7.39439 13.2044 7.2887 13.5098C7.2612 13.5892 7.2337 13.6686 7.20764 13.7482C6.84508 14.8383 6.60333 15.9717 6.41583 17.1033Z" fill="#96976A"/>
<path d="M7.77915 13.8658L7.77946 13.8644C8.22802 13.5616 8.70208 13.2923 9.19208 13.0603C9.20083 13.0172 9.20952 12.9742 9.2179 12.9326C8.74765 13.1489 8.29365 13.401 7.85996 13.6841C8.1729 12.9882 8.50783 12.3164 8.85971 11.6836C8.82515 11.6697 8.78965 11.6597 8.75321 11.6541C8.37815 12.3294 8.02321 13.0489 7.69408 13.7948C7.6849 13.8028 7.67921 13.8146 7.67902 13.8276C7.58221 14.0463 7.48777 14.2671 7.39552 14.4912L7.28846 13.5097C7.26096 13.5891 7.23346 13.6684 7.20733 13.7481L7.31158 14.6984C6.94602 15.6045 6.61896 16.5386 6.34577 17.4724L6.34546 17.4738C6.34677 17.5236 6.37208 17.5398 6.44683 17.5007C6.58702 17.0186 6.74296 16.5374 6.91133 16.0591L6.91165 16.0577C7.34233 15.9412 7.76427 15.7877 8.16965 15.5997L8.16996 15.5984C8.20327 15.5437 8.23483 15.49 8.26821 15.4353C7.8469 15.6413 7.40696 15.8095 6.95508 15.9356C7.09402 15.5449 7.24121 15.1562 7.39433 14.7732C7.41277 14.7631 7.42346 14.7423 7.42115 14.7214L7.42033 14.7124L7.42065 14.7111C7.53627 14.4254 7.65527 14.1436 7.77915 13.8658Z" fill="#703427"/>
<path d="M6.09545 19.3076C6.09532 19.3076 6.09526 19.3076 6.09514 19.3076C6.0782 19.3074 6.06457 19.2935 6.0647 19.2765C6.07232 18.5515 6.20614 17.84 6.46257 17.1618C6.46857 17.1458 6.4862 17.1378 6.5022 17.1438C6.51807 17.1498 6.52607 17.1676 6.52007 17.1834C6.2662 17.855 6.1337 18.5593 6.1262 19.2772C6.12595 19.294 6.11226 19.3076 6.09545 19.3076Z" fill="#703427"/>
<path d="M31.5799 20.3416C31.5885 20.5069 31.5228 20.6683 31.4528 20.8216C30.886 22.0621 29.9721 23.1544 29.4909 24.4253C29.271 25.0033 29.1453 25.6103 28.934 26.1908C28.7213 26.7727 28.4085 27.344 27.8945 27.7314C28.0101 28.1057 27.9744 28.5011 27.816 28.8556C27.7988 28.8939 27.7803 28.9323 27.7603 28.9706C27.7474 28.9931 27.7331 29.0143 27.716 29.0341C27.6161 29.1558 27.4433 29.2127 27.2791 29.1769C26.478 29.005 25.707 28.6586 25.1044 28.1468C23.4451 28.4205 21.686 28.2883 20.071 27.8373C19.8511 27.9233 19.6869 28.0648 19.4713 28.16C19.2571 28.2552 18.9958 28.3042 18.7831 28.205C18.596 28.1164 18.4861 27.9326 18.4232 27.7474C18.3618 27.5623 18.339 27.4406 18.3147 27.2476C18.1376 25.8907 18.5646 24.5313 19.0658 23.2445C19.567 21.9591 20.1524 20.6789 20.3109 19.3194C20.3566 18.9241 20.3666 18.5207 20.4694 18.1332C20.5693 17.7576 20.7721 17.386 21.1134 17.1652C21.2248 17.0924 21.3704 17.0819 21.499 17.1242C21.9916 17.2882 22.42 17.6082 22.7027 18.0168C25.1758 17.7695 27.7575 18.3951 29.7737 19.7439C30.1207 19.6619 30.5548 19.5707 30.9003 19.6567C31.0031 19.6818 31.1031 19.7228 31.1931 19.777C31.2331 19.8008 31.2701 19.8259 31.3045 19.8551C31.4614 19.9806 31.5713 20.1498 31.5799 20.3416Z" fill="#96976A"/>
<path d="M29.1771 21.3053C29.1271 21.459 29.1074 21.6625 29.2438 21.7493C29.3781 21.8348 29.5529 21.7348 29.6674 21.6241C29.9436 21.3572 30.1363 21.0051 30.2123 20.6285C30.2836 20.2747 30.0418 20.0817 29.7542 20.3213C29.4782 20.5512 29.2856 20.9725 29.1771 21.3053Z" fill="#FFF1E3"/>
<path d="M28.9488 22.9335C29.1352 22.9335 29.2863 22.7824 29.2863 22.596C29.2863 22.4096 29.1352 22.2585 28.9488 22.2585C28.7624 22.2585 28.6113 22.4096 28.6113 22.596C28.6113 22.7824 28.7624 22.9335 28.9488 22.9335Z" fill="#FFF1E3"/>
<path d="M31.3045 19.855C31.3174 20.1763 31.2217 20.4726 31.1445 20.659C31.0175 20.9645 30.8319 21.2489 30.6534 21.5239C30.5777 21.639 30.5034 21.754 30.432 21.8704C29.9894 22.6004 29.6924 23.4124 29.4068 24.1993C29.0855 25.0787 28.7542 25.9885 28.2145 26.7887C28.1816 26.8376 28.1474 26.8865 28.1131 26.9355C27.8904 27.2569 27.6605 27.5888 27.6562 27.9577C27.6547 28.1257 27.699 28.3055 27.7404 28.4801C27.7704 28.6057 27.8018 28.7327 27.8161 28.8557C27.799 28.894 27.7804 28.9324 27.7604 28.9707C27.7475 28.9932 27.7333 29.0144 27.7162 29.0342C27.7262 28.8689 27.6819 28.6877 27.6362 28.5013C27.5934 28.3214 27.5477 28.135 27.5491 27.9564C27.5548 27.5584 27.7919 27.2145 28.0232 26.8826C28.056 26.8337 28.0902 26.7847 28.1231 26.7358C28.6572 25.9463 28.9855 25.0417 29.304 24.1676C29.5924 23.3768 29.8909 22.5595 30.3392 21.8216C30.4106 21.7039 30.4863 21.5889 30.5605 21.4725C30.7376 21.2014 30.9204 20.921 31.0446 20.6235C31.126 20.429 31.2245 20.1117 31.1931 19.7771C31.2331 19.8007 31.2702 19.8258 31.3045 19.855Z" fill="#703427"/>
<path d="M22.3321 14.3765H21.4532C21.4459 13.9517 21.2716 13.5665 21.0313 13.2076C21.0049 13.609 20.9141 14.0045 20.7632 14.3765H10.4975C10.2572 14.0074 10.039 13.6222 9.89986 13.2047C9.79586 13.5855 9.77824 13.9883 9.84711 14.3765C9.41205 14.3765 9.15861 14.3765 9.15861 14.3765C9.05899 14.3575 8.94911 14.3853 8.84955 14.3663C8.60055 13.8345 8.52436 13.1285 8.68405 12.5616C8.84374 11.9933 9.21143 11.4908 9.69774 11.1744C10.0215 10.965 10.4052 10.8258 10.6367 10.5138C10.956 10.0832 10.8799 9.48253 10.8608 8.94203C10.8198 7.82285 11.0014 6.53528 11.561 5.57435C12.1206 4.61341 12.9072 3.86928 14.0351 3.48547C15.5864 2.95666 17.2549 3.07828 18.6861 3.88828C20.1201 4.69978 20.8262 6.75941 20.8101 8.43372C20.8042 9.02697 20.5684 9.60266 20.6079 10.1989C20.6416 10.7248 20.9991 11.0295 21.3682 11.3385C21.7637 11.6696 22.0713 12.0973 22.2486 12.591C22.3452 12.862 22.4009 13.152 22.4214 13.4392C22.4272 13.5269 22.4302 14.375 22.3321 14.3765Z" fill="#FF5B44"/>
<path d="M16.6723 12.0607L16.6741 12.0618V11.9123C16.9249 11.8623 17.1675 11.7878 17.3991 11.6904C18.2956 11.3118 19.0301 10.5956 19.4606 9.6905C19.7695 9.78563 20.113 9.77763 20.405 9.63994C20.7143 9.49413 20.9557 9.19819 21.0072 8.86013C21.0587 8.52213 20.9045 8.154 20.612 7.97707C20.5075 7.91394 20.3995 7.883 20.291 7.87525C20.2888 8.01475 20.2285 8.15307 20.1723 8.27757C20.1091 8.41725 19.9278 8.98332 19.7344 8.76232C19.5664 8.57032 19.4371 8.34463 19.3566 8.10257C19.3315 8.02694 19.3116 7.94732 19.3038 7.86782C19.0049 7.843 18.7141 7.80513 18.4313 7.74925C17.6546 7.30988 16.9771 6.68488 16.5491 5.90957C16.6185 6.41975 16.8099 6.91163 17.1004 7.33675C16.3549 7.015 15.642 6.54307 14.9149 5.88407C14.7481 5.73269 14.5693 5.48607 14.4195 5.25244C14.1317 6.24094 13.5905 7.15507 12.8591 7.87988C12.7481 7.98988 12.628 8.09088 12.4992 8.175C12.4111 8.34057 12.2994 8.4935 12.1675 8.62669C11.9608 8.83532 11.8148 8.25913 11.7604 8.11582C11.7305 8.037 11.6995 7.95282 11.6814 7.86719C11.5136 7.83982 11.343 7.86357 11.181 7.96157C10.8883 8.13844 10.7341 8.50657 10.7857 8.84463C10.8372 9.18269 11.0786 9.47863 11.388 9.62444C11.6973 9.77025 12.065 9.77207 12.3874 9.65825C12.3923 9.6565 12.3972 9.65425 12.4021 9.65244C12.8192 10.5517 13.5338 11.2691 14.4114 11.6596C14.657 11.7689 14.9152 11.852 15.183 11.9071V12.0721C15.3391 12.4801 16.47 12.528 16.6723 12.0607Z" fill="#FFAAAD"/>
<path d="M20.4441 14.3545C20.0661 13.6997 19.5095 13.2529 18.9602 12.9497C18.6526 13.0169 18.3807 13.1215 18.1401 13.2539C18.0177 12.9226 17.8435 12.636 17.6374 12.4385C17.3136 12.3579 17.1027 12.3345 17.1027 12.3345L16.6738 12.0617L16.672 12.0605C15.8216 12.327 15.2463 12.0992 15.1828 12.0721C15.0788 12.1395 14.9465 12.3213 14.7838 12.3447C14.6081 12.3697 14.4352 12.3945 14.2653 12.4268C14.0858 12.5599 13.9158 12.7854 13.7787 13.0646C13.5332 12.9805 13.2646 12.9144 12.9703 12.8706C12.0138 13.3716 11.2462 14.1773 10.6778 15.0972C10.275 15.7491 9.96883 16.4595 9.74915 17.192C9.73302 17.2447 9.48108 18.1309 9.52208 18.1441C9.52233 18.1441 9.58846 18.1649 9.69921 18.1998C10.2185 19.0894 12.3813 19.1825 13.4351 18.7765L15.9279 17.997L19.4351 19.6312L19.44 19.6281L19.44 19.6279C19.44 19.6281 19.9564 19.7106 20.1346 19.6002L21.4368 18.7925C21.5097 18.743 21.5863 18.2705 21.5863 18.2705L22.0518 17.976C22.0518 17.9759 21.4666 16.124 20.4441 14.3545Z" fill="#1D1D1D"/>
<path d="M28.6946 22.3666C28.6707 22.3071 28.5635 22.2468 28.4761 22.2342C28.0865 22.1783 27.6659 22.1553 27.2764 22.0993C27.7657 21.7459 27.9386 21.0183 27.6606 20.4826C27.5857 20.3385 27.4462 20.1939 27.2872 20.2266C27.1796 20.2488 27.1026 20.3498 27.0741 20.456C27.0456 20.5622 27.0559 20.6744 27.063 20.7841C27.0726 20.9328 27.0754 21.0858 27.0269 21.2268C26.9786 21.3678 26.8696 21.4961 26.7242 21.5294C26.6161 21.5543 26.4926 21.5103 26.4266 21.4255L26.3907 21.4163V21.3551C26.3875 21.3451 26.3834 21.3356 26.3817 21.3251C26.3616 21.2013 26.4437 21.0845 26.5327 20.9961C26.6753 20.8546 26.8511 20.7389 26.9463 20.562C27.0414 20.3851 27.0072 20.1143 26.8174 20.0485C26.6976 20.007 26.5671 20.0624 26.457 20.1253C26.1857 20.2806 25.9456 20.4899 25.7549 20.7376C25.5878 20.9548 25.4524 21.2066 25.226 21.3608C24.9301 21.5623 24.53 21.5532 24.1953 21.4263C23.8606 21.2993 23.5651 21.0614 23.2812 20.8434C22.2861 20.0793 21.6392 18.4098 21.5864 18.2705L21.3583 18.4148C20.8879 18.7343 20.4898 18.9703 20.0151 19.2644L19.4402 19.6281C19.6214 20.3378 19.9674 21.0361 20.4247 21.6406C20.6091 22.199 21.4849 22.9163 21.8833 23.1434C22.0078 23.2137 23.5107 23.5179 24.0697 23.5852C24.3422 23.5779 24.612 23.5388 24.8722 23.4589C25.6973 23.7468 26.556 23.9382 27.4252 24.028C27.5673 24.0427 27.7284 24.0103 27.7806 23.8773C27.8186 23.7806 27.7767 23.6937 27.7265 23.6375C27.5802 23.4739 27.0941 23.3581 26.8874 23.2846C27.0625 23.3106 27.4794 23.3976 27.6517 23.4383C27.8914 23.495 28.1422 23.5516 28.3811 23.4916C28.4649 23.4705 28.5498 23.4313 28.5955 23.358C28.6633 23.2494 28.6197 23.0993 28.5302 23.0078C28.4571 22.933 28.3499 22.8785 28.2476 22.8369L28.2262 22.8179L28.2564 22.8111C28.3776 22.8109 28.5002 22.8003 28.6015 22.7369C28.7244 22.66 28.7484 22.501 28.6946 22.3666Z" fill="#FFAAAD"/>
<path d="M21.3584 18.4149L21.5865 18.2705C21.5095 18.3247 21.4313 18.3653 21.3584 18.4149Z" fill="#FFAAAD"/>
<path d="M19.4402 19.6281L20.0152 19.2644C19.837 19.3748 19.6481 19.4934 19.4402 19.6279L19.4402 19.6281Z" fill="#FFAAAD"/>
<path d="M26.4329 21.3875C26.4354 21.3707 26.4238 21.355 26.4069 21.3526C26.4012 21.3517 26.3957 21.353 26.3906 21.3551C26.3988 21.3806 26.4102 21.4046 26.4265 21.4255C26.4286 21.4128 26.4309 21.4005 26.4329 21.3875Z" fill="#1D1D1D"/>
<path d="M26.372 21.3783C26.2894 21.931 26.0857 22.2831 25.7114 22.5198C25.697 22.5289 25.6927 22.5479 25.7018 22.5623C25.7077 22.5715 25.7176 22.5766 25.7278 22.5766C25.7334 22.5766 25.7391 22.575 25.7442 22.5719C26.1261 22.3304 26.3372 21.9754 26.4265 21.4254C26.4102 21.4045 26.3988 21.3805 26.3906 21.355C26.3812 21.359 26.3736 21.3674 26.372 21.3783Z" fill="#1D1D1D"/>
<path d="M28.1799 22.8105C28.202 22.8187 28.2249 22.8276 28.2479 22.837C28.2529 22.8322 28.2566 22.8259 28.2574 22.8184C28.2576 22.8159 28.257 22.8136 28.2567 22.8112C28.2309 22.8113 28.2053 22.811 28.1799 22.8105Z" fill="#1D1D1D"/>
<path d="M28.2297 22.7845L26.9636 22.6509C26.9605 22.6712 26.9576 22.6914 26.9541 22.7117L28.2233 22.8457C28.2244 22.8459 28.2255 22.8459 28.2265 22.8459C28.2348 22.8459 28.242 22.8424 28.2476 22.8369C28.2246 22.8276 28.2017 22.8186 28.1797 22.8105C28.205 22.811 28.2307 22.8113 28.2564 22.8112C28.2545 22.7974 28.2441 22.786 28.2297 22.7845Z" fill="#1D1D1D"/>
<path d="M26.91 22.6763C26.9118 22.6595 26.9273 22.6463 26.9438 22.649L26.9636 22.6511C26.984 22.5152 26.9941 22.3777 26.9919 22.24C26.9916 22.2232 26.9779 22.2097 26.9611 22.2097C26.961 22.2097 26.9608 22.2097 26.9606 22.2098C26.9436 22.21 26.9301 22.224 26.9304 22.241C26.9369 22.6345 26.8466 23.0283 26.6693 23.3797C26.6616 23.3948 26.6678 23.4133 26.683 23.421C26.6874 23.4232 26.6921 23.4243 26.6968 23.4243C26.708 23.4243 26.7188 23.4181 26.7243 23.4073C26.8348 23.1883 26.9118 22.9532 26.9541 22.7118L26.9374 22.7101C26.9205 22.7083 26.9083 22.6932 26.91 22.6763Z" fill="#1D1D1D"/>
<path d="M26.9441 22.6488C26.9276 22.6461 26.9121 22.6593 26.9103 22.6761C26.9085 22.693 26.9208 22.7082 26.9377 22.7099L26.9544 22.7117C26.958 22.6914 26.9609 22.6712 26.9639 22.6508L26.9441 22.6488Z" fill="#1D1D1D"/>
<path d="M16.0541 21.4636C15.9649 21.4636 15.8744 21.4636 15.7837 21.4607C15.7832 21.9433 15.7864 22.4341 15.7931 22.9197C15.7942 22.9994 15.7955 23.0898 15.8286 23.161C15.8537 23.2146 15.9126 23.2688 15.9699 23.2601C16.0168 23.2541 16.0545 23.2118 16.0741 23.1743C16.1018 23.1212 16.1121 23.0538 16.1212 22.9944C16.1972 22.4961 16.252 21.9887 16.2837 21.4861C16.2843 21.4775 16.2869 21.4696 16.2901 21.4621C16.29 21.4621 16.2899 21.4621 16.2898 21.4621C16.2123 21.4636 16.1332 21.4636 16.0541 21.4636Z" fill="#AFCBD3"/>
<path d="M15.9121 19.962C16.4922 19.9942 17.0928 19.7452 17.4751 19.3101C17.9673 18.7505 18.0039 18.0152 18.042 17.2359L18.0493 17.1128H13.8071C13.8496 17.8042 13.9624 18.5747 14.4092 19.1548C14.7739 19.6265 15.3349 19.9283 15.9121 19.962Z" fill="#AFCBD3"/>
<path d="M14.6877 21.4091C14.6409 21.4055 14.5937 21.4016 14.5461 21.3975C14.5933 21.4016 14.6405 21.4056 14.6877 21.4091Z" fill="#AFCBD3"/>
<path d="M14.9143 21.4237C14.8417 21.419 14.7698 21.4154 14.6965 21.4097C14.7692 21.4152 14.8418 21.4198 14.9143 21.4237Z" fill="#AFCBD3"/>
<path d="M24.0698 23.585C23.9523 23.2345 23.7493 22.9094 23.4516 22.6382C23.4164 22.6616 23.3174 22.6588 23.3174 22.6588L23.3358 22.5386C23.2318 22.4551 23.119 22.3774 22.9945 22.3071C22.5961 22.0801 22.1493 21.9453 21.7025 21.8501C21.4652 21.7988 21.2264 21.7608 20.9876 21.727C20.8899 21.7127 20.5619 21.6221 20.4246 21.6404C20.4076 21.6426 20.393 21.6463 20.3826 21.6523L19.2723 21.4355L19.2986 21.0928C19.2633 21.0498 19.2435 21.0649 19.2093 21.0269C19.2373 21.0175 19.2508 20.9744 19.2794 20.9673C19.2901 20.9646 19.3011 20.9417 19.3118 20.939V20.9302L19.4353 19.6311L19.5828 18.0781C19.5828 18.0781 19.1346 17.8071 18.9295 17.06C18.742 16.3818 18.8958 13.496 18.9603 12.9496C18.471 12.6801 17.9876 12.5248 17.6375 12.4384C17.6756 13.1123 17.7108 15.7754 15.8811 15.7754C14.0618 15.7754 14.198 13.1255 14.2654 12.4268C14.0134 12.4721 13.7659 12.5337 13.5183 12.626C13.4238 12.6611 13.3308 12.6993 13.2394 12.7401C13.1481 12.7809 13.0584 12.8244 12.9704 12.8706C13.0803 13.8374 13.3806 17.1846 12.3156 17.6959L12.2738 18.9907C12.2761 18.9916 12.2783 18.9924 12.2805 18.9933C12.2795 18.9998 12.2781 19.0062 12.2771 19.0126C12.2756 19.0218 12.2738 19.0309 12.2722 19.0401L12.2219 20.608C12.2666 20.6348 12.4679 20.7413 12.617 20.9016C12.4852 20.8512 12.2649 20.8029 12.216 20.775L12.1911 21.5601C12.1911 21.5601 11.8099 21.5308 11.2635 21.5543C11.0794 21.8112 10.7752 21.7224 10.5428 21.9389C10.1129 22.3396 9.58825 22.6722 9.02607 22.8851C9.04057 22.971 8.89294 23.0049 8.88175 22.9365C8.40488 23.0978 8.00157 23.4999 7.51219 23.4549C7.49988 23.4959 7.48857 23.5375 7.47863 23.5801C7.32482 24.2334 7.48007 25.0201 7.92394 25.8008C7.93244 25.7945 7.94057 25.7877 7.949 25.7813C7.96275 25.8287 7.97894 25.8779 7.99863 25.9298C9.18957 27.8956 12.1911 29.7882 16.6544 29.4454H16.6549C16.6541 29.4355 16.6551 29.4254 16.6586 29.4154L17.7758 26.6683C18.0759 26.7374 19.4179 27.0624 20.4645 27.5602C20.4982 27.5763 20.5319 27.5924 20.5641 27.6086C20.6926 27.672 20.8153 27.7383 20.9306 27.8068C21.7597 27.4951 22.5769 27.0827 23.2199 26.4967C23.2741 26.4469 23.3254 26.3971 23.3738 26.3443C23.3893 26.2934 23.4019 26.2445 23.4131 26.1967C23.4336 26.2099 23.4537 26.223 23.4734 26.2359C24.1222 25.4839 24.3615 24.4558 24.0698 23.585Z" fill="#AFCBD3"/>
<path d="M20.931 27.807C20.8157 27.7384 20.693 27.6722 20.5645 27.6088C20.5403 27.6105 20.5174 27.613 20.494 27.6151C20.4842 27.5967 20.4753 27.5795 20.4649 27.5604C19.4183 27.0627 18.0762 26.7376 17.7761 26.6685L17.2184 27.9908L16.9185 29.1175C17.27 29.2274 18.6001 29.62 19.7793 29.7005C19.7946 29.6816 19.809 29.6651 19.8238 29.6474C19.8439 29.6677 19.8637 29.6881 19.8848 29.7078C20.8238 29.7591 21.6455 29.5965 21.7656 28.9153C21.8381 28.5026 21.4706 28.1278 20.931 27.807Z" fill="#1D1D1D"/>
<path d="M14.6903 21.4092C14.6924 21.4094 14.6944 21.4094 14.6966 21.4096C14.6936 21.4093 14.6907 21.4092 14.6877 21.4089C14.6886 21.4091 14.6894 21.4091 14.6903 21.4092Z" fill="#FFF1E3"/>
<path d="M14.5461 21.3974C14.0377 21.3518 13.5323 21.2678 13.0552 21.1313C13.5546 21.2845 14.0676 21.3555 14.5461 21.3974Z" fill="#FFF1E3"/>
<path d="M19.3119 20.939C19.3011 20.9417 19.2902 20.944 19.2794 20.9467C17.9091 21.2875 16.3705 21.3935 14.7019 21.2627C13.9525 21.2047 13.1004 21.0867 12.3574 20.6848C12.3119 20.6602 12.2666 20.6347 12.2219 20.6079L12.2161 20.7749C12.2598 20.7998 12.3041 20.8235 12.3485 20.8464V20.8468C12.3508 20.8479 12.3531 20.849 12.3554 20.8501C12.3584 20.8516 12.3613 20.8533 12.3643 20.8549V20.8544C12.584 20.9655 12.8256 21.0608 13.0551 21.1312C13.5323 21.2677 14.0376 21.3517 14.5461 21.3973C14.5936 21.4015 14.6408 21.4053 14.6876 21.409C14.6906 21.4092 14.6935 21.4093 14.6964 21.4096C14.7696 21.4152 14.8416 21.4189 14.9143 21.4237C15.1577 21.4395 15.3989 21.452 15.6366 21.4576C15.6368 21.4576 15.637 21.4576 15.6373 21.4576C15.6368 21.9418 15.6399 22.4343 15.6466 22.9215C15.6479 23.0113 15.6494 23.123 15.6958 23.2227C15.7481 23.3347 15.8534 23.407 15.9596 23.407C15.9691 23.407 15.9788 23.4065 15.9883 23.4052C16.0757 23.3941 16.1563 23.3331 16.2039 23.2419C16.2429 23.1673 16.2558 23.0837 16.266 23.0165C16.3428 22.5138 16.3979 22.0021 16.4299 21.4953L16.4313 21.4588C17.4523 21.4354 18.4051 21.314 19.2987 21.0928L19.3119 20.939ZM16.2838 21.4859C16.252 21.9884 16.1973 22.4958 16.1213 22.9942C16.1121 23.0535 16.1018 23.1209 16.0741 23.174C16.0545 23.2115 16.0168 23.2539 15.9699 23.2598C15.9126 23.2685 15.8536 23.2143 15.8286 23.1607C15.7955 23.0895 15.7942 22.9992 15.7931 22.9194C15.7864 22.4338 15.7833 21.943 15.7838 21.4604C15.8743 21.4633 15.9649 21.4633 16.0541 21.4633C16.1331 21.4633 16.2079 21.4632 16.2856 21.4617C16.2856 21.4617 16.2838 21.4859 16.2838 21.4859Z" fill="#FFF1E3"/>
<path d="M20.9186 22.3859C20.9057 22.3475 20.864 22.3267 20.8258 22.3399C20.2415 22.5372 19.6798 22.7906 19.1474 23.0939C19.2178 22.9207 19.3022 22.7533 19.4002 22.5944C19.4213 22.56 19.4107 22.5149 19.3762 22.4936C19.3416 22.4723 19.2967 22.4831 19.2754 22.5176C19.1408 22.7357 19.0309 22.9694 18.9468 23.2119C18.106 23.7183 17.3438 24.3522 16.6914 25.0942C15.7548 24.4531 14.7543 23.8988 13.7128 23.4437C13.7153 23.4267 13.7125 23.4088 13.7023 23.3933C13.4924 23.0744 13.2113 22.7972 12.8892 22.5916C12.8552 22.5699 12.8098 22.5799 12.7881 22.6139C12.7663 22.6481 12.7763 22.6934 12.8104 22.7151C13.0723 22.8821 13.3052 23.0995 13.4915 23.3487C12.8141 23.0634 12.1207 22.8189 11.4171 22.6207C11.3785 22.6102 11.3378 22.6326 11.3267 22.6714C11.3158 22.7104 11.3385 22.7507 11.3773 22.7618C13.7122 23.4195 15.9368 24.5789 17.814 26.1164L16.6587 29.4153C16.6552 29.4253 16.6543 29.4354 16.655 29.4454C16.6573 29.4733 16.6754 29.4987 16.7036 29.5086C16.7116 29.5114 16.7198 29.5127 16.7278 29.5127C16.758 29.5127 16.7863 29.4938 16.7969 29.4636L16.9182 29.1172L17.0106 28.8535L17.7759 26.6681L17.9691 26.1164C17.9793 26.0874 17.9702 26.0552 17.9465 26.0357C17.5815 25.7349 17.2032 25.4487 16.8136 25.1773C17.4526 24.4532 18.1978 23.8342 19.0195 23.3389C19.0353 23.3355 19.0497 23.3271 19.0602 23.3145C19.6313 22.9742 20.2383 22.6926 20.8726 22.4786C20.911 22.4657 20.9316 22.4242 20.9186 22.3859Z" fill="#FFF1E3"/>
<path d="M13.6575 17.0454C13.6985 17.7764 13.807 18.6099 14.2947 19.2427C14.6843 19.7481 15.285 20.0703 15.9031 20.107C15.9427 20.1085 15.9808 20.1099 16.0203 20.1099C16.6136 20.1099 17.1922 19.8521 17.5833 19.4053C18.1092 18.8076 18.1488 18.0122 18.1868 17.2431L18.2015 16.9678H13.6531L13.6575 17.0454ZM18.0491 17.1128L18.0418 17.2358C18.0038 18.0151 17.9671 18.7505 17.475 19.3101C17.0926 19.7451 16.492 19.9942 15.912 19.962C15.3348 19.9283 14.7738 19.6265 14.409 19.1548C13.9623 18.5748 13.8495 17.8042 13.807 17.1128L18.0491 17.1128Z" fill="#FFF1E3"/>
<path d="M13.8144 16.3303C14.0055 16.3303 14.1604 16.1754 14.1604 15.9844C14.1604 15.7933 14.0055 15.6384 13.8144 15.6384C13.6234 15.6384 13.4685 15.7934 13.4685 15.9844C13.4685 16.1754 13.6234 16.3303 13.8144 16.3303Z" fill="#FFF1E3"/>
<path d="M17.9661 16.3303C18.1571 16.3303 18.312 16.1754 18.312 15.9844C18.312 15.7933 18.1571 15.6384 17.9661 15.6384C17.775 15.6384 17.6201 15.7934 17.6201 15.9844C17.6201 16.1754 17.775 16.3303 17.9661 16.3303Z" fill="#FFF1E3"/>
<path d="M22.4847 24.5574C22.4607 24.1484 22.5668 23.7376 22.7688 23.3811C22.9364 23.0851 23.1698 22.8264 23.4515 22.6384C23.4149 22.6033 23.3753 22.5696 23.3358 22.5388C23.043 22.7429 22.8013 23.0191 22.6285 23.333C22.4216 23.7084 22.3135 24.1379 22.3382 24.5647C22.3806 25.2751 22.785 25.949 23.3738 26.3445C23.409 26.3094 23.4426 26.2728 23.4734 26.2361C22.9125 25.8669 22.5243 25.2298 22.4847 24.5574Z" fill="#FFF1E3"/>
<path d="M9.1282 24.1076C9.17576 23.8096 9.17232 23.5073 9.12276 23.2134C9.04263 23.0888 8.9707 23.1662 8.97845 23.2649C9.0227 23.5367 9.02613 23.8141 8.98313 24.0841C8.8747 24.7609 8.47632 25.3922 7.92407 25.8009C7.94751 25.8449 7.97238 25.8874 7.99876 25.9299C8.59351 25.5007 9.01101 24.8386 9.1282 24.1076Z" fill="#FFF1E3"/>
<path d="M12.2733 19.0113L12.274 18.9906C11.3897 18.6263 10.5624 18.4334 9.69946 18.1997C10.2757 18.3811 12.0755 18.9486 12.2733 19.0113Z" fill="#FFAAAD"/>
<path d="M12.2734 19.0115L12.2725 19.0403C12.274 19.0312 12.2758 19.022 12.2773 19.0128C12.2759 19.0123 12.2751 19.0121 12.2734 19.0115Z" fill="#FFAAAD"/>
<path d="M12.2774 19.0127C12.2784 19.0062 12.2798 18.9998 12.2808 18.9933C12.2786 18.9924 12.2764 18.9917 12.2741 18.9907L12.2734 19.0113C12.2752 19.012 12.2759 19.0122 12.2774 19.0127Z" fill="#FFAAAD"/>
<path d="M9.69929 18.1999C9.69235 18.198 9.68547 18.1962 9.67847 18.1943C9.67847 18.1943 9.55822 19.647 8.56591 20.5658C8.29472 20.8168 8.01354 21.0894 7.6816 21.2518C7.34966 21.4141 6.93916 21.4615 6.61585 21.2825C6.36841 21.1455 6.20529 20.8994 6.01285 20.6921C5.79335 20.4556 5.5266 20.2632 5.23291 20.1293C5.11379 20.0751 4.97435 20.0306 4.8551 20.0847C4.66622 20.1703 4.65679 20.452 4.77147 20.6248C4.8861 20.7976 5.07785 20.8998 5.23785 21.0316C5.33785 21.114 5.43329 21.2263 5.42435 21.3556C5.4236 21.3666 5.42029 21.3768 5.41797 21.3874C5.42816 21.3907 5.44179 21.4452 5.44179 21.4452L5.38785 21.463C5.32804 21.5564 5.20522 21.6134 5.09166 21.5982C4.93916 21.5778 4.81485 21.4561 4.75172 21.3158C4.6886 21.1755 4.67691 21.0181 4.67266 20.8643C4.66954 20.7508 4.66947 20.6345 4.6301 20.528C4.59072 20.4215 4.50197 20.325 4.3891 20.3124C4.22254 20.2939 4.09279 20.4558 4.02966 20.611C3.79472 21.1883 4.0416 21.9197 4.57822 22.2365C4.1831 22.3311 3.75291 22.3947 3.35779 22.4892C3.2691 22.5105 3.16454 22.5827 3.14572 22.646C3.1031 22.7894 3.14297 22.9506 3.27654 23.0178C3.38672 23.0733 3.51372 23.0727 3.63829 23.0614C3.64672 23.0607 3.6776 23.0625 3.6776 23.0625C3.6776 23.0625 3.65916 23.0793 3.64941 23.0873C3.54835 23.1398 3.4436 23.2058 3.37566 23.2896C3.29235 23.3922 3.26179 23.5506 3.34185 23.6558C3.39579 23.7268 3.48685 23.759 3.57491 23.7728C3.82616 23.8118 4.07872 23.7297 4.31972 23.6487C4.49291 23.5905 4.91329 23.4615 5.09079 23.418C4.88529 23.5133 4.39654 23.6785 4.26172 23.8606C4.21541 23.9231 4.18066 24.0165 4.22885 24.1122C4.29516 24.2439 4.46391 24.262 4.6086 24.2333C5.49366 24.0585 6.35816 23.7801 7.17904 23.4057C7.28929 23.4287 7.40054 23.445 7.51235 23.4552C8.00179 23.5001 8.5016 23.4263 8.97847 23.2651C9.02679 23.2488 9.07497 23.2317 9.12279 23.2137C9.68497 23.0008 10.2096 22.6681 10.6395 22.2675C10.8718 22.051 11.0795 21.8115 11.2636 21.5546C11.7913 20.8185 12.123 19.9386 12.2723 19.0404L12.2732 19.0115C12.0753 18.9488 10.2755 18.3813 9.69929 18.1999Z" fill="#FFAAAD"/>
<path d="M5.40119 21.3859C5.38413 21.3901 5.37369 21.4073 5.37788 21.4243C5.38113 21.4375 5.38469 21.4499 5.388 21.4628C5.40275 21.4398 5.41219 21.4141 5.41813 21.3871C5.41282 21.3855 5.40713 21.3846 5.40119 21.3859Z" fill="#1D1D1D"/>
<path d="M6.19831 22.5766C6.20294 22.579 6.20788 22.5801 6.21275 22.5801C6.22431 22.5801 6.2355 22.5738 6.24106 22.5627C6.249 22.5471 6.24281 22.528 6.22719 22.52C5.81988 22.3122 5.57694 21.9696 5.4395 21.4093C5.43675 21.3981 5.42825 21.3905 5.41806 21.3872C5.41206 21.4141 5.40269 21.4398 5.38794 21.4628C5.53194 22.0198 5.78275 22.3646 6.19831 22.5766Z" fill="#1D1D1D"/>
<path d="M3.63844 23.0612C3.63831 23.0637 3.63794 23.0661 3.63844 23.0687C3.63994 23.0762 3.644 23.0826 3.64956 23.0871C3.6725 23.0752 3.69531 23.0638 3.71731 23.0532C3.69125 23.0562 3.66487 23.0588 3.63844 23.0612Z" fill="#1D1D1D"/>
<path d="M3.66949 23.0943C3.67155 23.0943 3.67368 23.0941 3.6758 23.0937L4.9678 22.8353C4.96224 22.8149 4.9573 22.7942 4.95224 22.7737L3.66337 23.0314C3.64868 23.0344 3.63899 23.0471 3.63843 23.0614C3.66487 23.059 3.69124 23.0563 3.7173 23.0534C3.69524 23.0639 3.67243 23.0753 3.64955 23.0872C3.65505 23.0917 3.66212 23.0943 3.66949 23.0943Z" fill="#1D1D1D"/>
<path d="M5.00963 22.7946C5.01307 22.8118 5.00188 22.8286 4.98469 22.832L4.96769 22.8354C5.03413 23.0794 5.13563 23.3139 5.27 23.5285C5.276 23.5381 5.28638 23.5434 5.29694 23.5434C5.30269 23.5434 5.3085 23.5418 5.31375 23.5385C5.32863 23.5292 5.33313 23.5096 5.32375 23.4947C5.10819 23.1504 4.97794 22.7541 4.94725 22.349C4.94594 22.3315 4.93063 22.3182 4.91319 22.3197C4.89569 22.3211 4.88257 22.3363 4.88388 22.3538C4.89463 22.4954 4.91813 22.6359 4.95207 22.7737L4.97219 22.7697C4.98925 22.7659 5.00619 22.7773 5.00963 22.7946Z" fill="#1D1D1D"/>
<path d="M4.98471 22.8318C5.0019 22.8284 5.01302 22.8117 5.00965 22.7945C5.00615 22.7772 4.98921 22.7657 4.97227 22.7695L4.95215 22.7735C4.95721 22.7942 4.96215 22.8147 4.96771 22.8352L4.98471 22.8318Z" fill="#1D1D1D"/>
<path d="M20.5644 27.6087C20.5322 27.5926 20.4985 27.5764 20.4648 27.5603C20.3252 27.7206 20.2052 27.8982 20.1052 28.0869C19.8444 28.5791 19.7242 29.1487 19.7792 29.7005C19.8143 29.7034 19.8495 29.7064 19.8847 29.7079C19.8253 29.1346 19.9608 28.5412 20.252 28.0412C20.3419 27.8871 20.446 27.7416 20.5644 27.6087Z" fill="#FFF1E3"/>
<path d="M26.4167 10.7399L25.9167 11.233L25.9215 11.9356C25.924 12.2981 25.6296 12.5924 25.2672 12.5899L24.5647 12.5851L24.0716 13.0851C23.8171 13.3432 23.4007 13.3432 23.1462 13.0851L22.6531 12.5851L21.9505 12.5899C21.5881 12.5924 21.2937 12.298 21.2962 11.9356L21.301 11.2331L20.801 10.74C20.5429 10.4855 20.5429 10.0691 20.801 9.81455L21.301 9.32149L21.2962 8.61886C21.2937 8.25649 21.5881 7.96205 21.9505 7.96455L22.6531 7.96936L23.1462 7.46943C23.4007 7.21136 23.8171 7.21136 24.0716 7.46943L24.5647 7.96943L25.2672 7.96461C25.6297 7.96211 25.924 8.25655 25.9215 8.61893L25.9167 9.32149L26.4167 9.81455C26.6748 10.069 26.6748 10.4854 26.4167 10.7399Z" fill="#FFF1E3"/>
<path d="M25.9496 9.28121C25.9456 9.27159 25.9347 9.26715 25.9251 9.27103L23.635 10.2183L24.5845 7.92915C24.5885 7.91959 24.5839 7.90859 24.5743 7.90465C24.5648 7.90078 24.5537 7.90528 24.5497 7.91484L23.6002 10.204L22.6528 7.9139C22.6489 7.90428 22.6379 7.8999 22.6283 7.90371C22.6187 7.90771 22.6142 7.91871 22.6182 7.92821L23.5654 10.2183L21.2763 9.26884C21.2668 9.26497 21.2557 9.2694 21.2517 9.27903C21.2477 9.28859 21.2523 9.29959 21.2618 9.30353L23.551 10.253L21.2609 11.2003C21.2513 11.2043 21.2467 11.2153 21.2507 11.2248C21.2537 11.232 21.2607 11.2364 21.2681 11.2364C21.2705 11.2364 21.2729 11.2359 21.2753 11.235L23.5655 10.2877L22.6159 12.5769C22.6119 12.5865 22.6165 12.5975 22.626 12.6014C22.6284 12.6023 22.6308 12.6028 22.6332 12.6028C22.6406 12.6028 22.6476 12.5985 22.6506 12.5912L23.6001 10.3021L24.5473 12.5922C24.5503 12.5995 24.5573 12.6038 24.5647 12.6038C24.5671 12.6038 24.5695 12.6033 24.5719 12.6024C24.5815 12.5984 24.5861 12.5875 24.5821 12.5779L23.6348 10.2878L25.924 11.2373C25.9263 11.2383 25.9288 11.2388 25.9312 11.2388C25.9385 11.2388 25.9455 11.2344 25.9485 11.2272C25.9525 11.2176 25.948 11.2066 25.9384 11.2027L23.6492 10.2531L25.9393 9.30578C25.949 9.30178 25.9536 9.29078 25.9496 9.28121Z" fill="#DFA76D"/>
<path d="M24.4993 10.2439C24.4993 10.7021 24.1279 11.0736 23.6697 11.0736C23.2115 11.0736 22.8401 10.7021 22.8401 10.2439C22.8401 9.78574 23.2115 9.41431 23.6697 9.41431C24.1278 9.41431 24.4993 9.78574 24.4993 10.2439Z" fill="#DFA76D"/>
<path d="M10.9505 26.5355L10.4057 27.0728L10.4109 27.8384C10.4136 28.2333 10.0928 28.5541 9.69788 28.5514L8.93231 28.5462L8.39506 29.091C8.11775 29.3722 7.66394 29.3722 7.38663 29.091L6.84938 28.5462L6.08375 28.5514C5.68881 28.5541 5.36806 28.2333 5.37075 27.8384L5.37606 27.0729L4.83125 26.5356C4.55006 26.2582 4.55006 25.8044 4.83125 25.5271L5.37606 24.9898L5.37081 24.2242C5.36813 23.8293 5.68894 23.5085 6.08388 23.5112L6.84944 23.5165L7.38669 22.9717C7.664 22.6904 8.11781 22.6904 8.39513 22.9717L8.93244 23.5165L9.698 23.5112C10.0929 23.5086 10.4138 23.8294 10.411 24.2242L10.4057 24.9898L10.9505 25.5271C11.2317 25.8044 11.2317 26.2582 10.9505 26.5355Z" fill="#FFF1E3"/>
<path d="M7.93476 26.0052L10.4301 24.973C10.4406 24.9687 10.4455 24.9567 10.4412 24.9463C10.4368 24.9358 10.425 24.9308 10.4145 24.9352L7.91901 25.9673L8.95364 23.473C8.95795 23.4625 8.95301 23.4505 8.94258 23.4462C8.9322 23.442 8.92014 23.4467 8.91583 23.4572L7.88114 25.9517L6.84895 23.4563C6.84464 23.4458 6.8327 23.4408 6.8222 23.4452C6.81176 23.4495 6.80683 23.4615 6.81114 23.4719L7.84333 25.9673L5.34889 24.9327C5.33858 24.9284 5.32645 24.9332 5.32214 24.9437C5.31783 24.9542 5.3227 24.9662 5.3332 24.9705L7.82758 26.0052L5.3322 27.0374C5.32176 27.0418 5.31683 27.0537 5.32114 27.0642C5.32439 27.072 5.33201 27.0768 5.34001 27.0768C5.34264 27.0768 5.34526 27.0763 5.34789 27.0753L7.84333 26.0432L6.8087 28.5375C6.80433 28.548 6.80926 28.56 6.81976 28.5643C6.82233 28.5653 6.82501 28.5658 6.82764 28.5658C6.8357 28.5658 6.84326 28.5612 6.84651 28.5533L7.8812 26.0588L8.91339 28.5543C8.91664 28.5622 8.92426 28.5669 8.93233 28.5669C8.93495 28.5669 8.93758 28.5664 8.9402 28.5654C8.95064 28.561 8.95558 28.5491 8.95126 28.5387L7.91908 26.0432L10.4135 27.0779C10.4161 27.0789 10.4187 27.0794 10.4214 27.0794C10.4295 27.0794 10.437 27.0747 10.4403 27.0668C10.4446 27.0563 10.4397 27.0444 10.4293 27.04L7.93476 26.0052Z" fill="#DFA76D"/>
<path d="M8.86129 25.9953C8.86129 26.4946 8.45654 26.8994 7.95729 26.8994C7.45804 26.8994 7.05322 26.4946 7.05322 25.9953C7.05322 25.496 7.45797 25.0913 7.95729 25.0913C8.4566 25.0913 8.86129 25.4961 8.86129 25.9953Z" fill="#DFA76D"/>
<path d="M9.34312 9.19328C9.09293 8.70722 8.65249 8.34859 8.12018 8.2344C8.0468 8.21872 8.02055 8.12921 8.07555 8.07821C8.51662 7.66971 8.83699 7.13197 8.98793 6.55009C9.00968 6.46628 9.12405 6.45922 9.1593 6.53834C9.4078 7.09584 9.88199 7.5229 10.445 7.78859C10.5061 7.81746 10.5149 7.9009 10.4613 7.94209C10.0508 8.25803 9.68624 8.69928 9.50862 9.18347C9.48155 9.25728 9.37912 9.26322 9.34312 9.19328Z" fill="#FFF1E3"/>
<path d="M7.87592 11.1769C7.69442 10.8243 7.37492 10.5641 6.98873 10.4813C6.93554 10.4698 6.91648 10.4049 6.95642 10.368C7.27636 10.0716 7.50873 9.68153 7.61829 9.25941C7.63404 9.1986 7.71704 9.19353 7.74261 9.25091C7.92292 9.65535 8.26686 9.96516 8.67529 10.1578C8.71967 10.1788 8.72598 10.2393 8.68717 10.2692C8.38936 10.4984 8.12492 10.8185 7.99604 11.1698C7.97636 11.2233 7.90204 11.2277 7.87592 11.1769Z" fill="#FFF1E3"/>
<path d="M23.5336 16.1069C23.3521 15.7542 23.0326 15.4941 22.6464 15.4112C22.5933 15.3998 22.5742 15.3349 22.6141 15.2979C22.9341 15.0016 23.1665 14.6115 23.276 14.1894C23.2918 14.1286 23.3748 14.1234 23.4003 14.1808C23.5806 14.5853 23.9246 14.8951 24.333 15.0878C24.3774 15.1087 24.3838 15.1692 24.3449 15.1992C24.0471 15.4284 23.7826 15.7484 23.6538 16.0997C23.634 16.1533 23.5598 16.1576 23.5336 16.1069Z" fill="#FFF1E3"/>
<path d="M19.7816 4.8721C19.5545 4.43085 19.1547 4.10529 18.6714 4.0016C18.6049 3.98729 18.581 3.9061 18.631 3.85979C19.0314 3.48892 19.3222 3.00079 19.4592 2.4726C19.479 2.39654 19.5828 2.3901 19.6148 2.46192C19.8404 2.96798 20.2709 3.35567 20.7819 3.59685C20.8374 3.62304 20.8454 3.69879 20.7967 3.73623C20.424 4.02304 20.0931 4.42354 19.9319 4.8631C19.9073 4.93023 19.8144 4.9356 19.7816 4.8721Z" fill="#FFF1E3"/>
<path d="M20.5073 8.66746C20.406 8.49639 20.179 8.41196 19.9909 8.47489C19.9722 8.48108 19.9621 8.50127 19.9684 8.51989C19.9746 8.53839 19.9948 8.54833 20.0134 8.54233C20.1324 8.50271 20.2699 8.53327 20.3666 8.61227C20.1766 8.66552 20.0284 8.81289 19.9662 9.01664C19.9604 9.03552 19.971 9.05533 19.9898 9.06114C19.9932 9.06214 19.9967 9.06271 20.0002 9.06271C20.0154 9.06271 20.0295 9.05283 20.0342 9.03752C20.0932 8.84439 20.2382 8.70771 20.4224 8.67096C20.4306 8.68164 20.4392 8.69202 20.4461 8.70371C20.5309 8.84689 20.5015 9.04764 20.3793 9.16064C20.3649 9.17396 20.364 9.19646 20.3774 9.21089C20.3844 9.21846 20.3939 9.22233 20.4035 9.22233C20.4121 9.22233 20.4208 9.21921 20.4276 9.21277C20.5735 9.07796 20.6085 8.83827 20.5073 8.66746Z" fill="#1D1D1D"/>
<path d="M11.8848 8.96444C11.8196 8.751 11.6644 8.59663 11.4653 8.54088C11.5664 8.45819 11.7103 8.42606 11.8353 8.46769C11.8548 8.47388 11.876 8.46363 11.8824 8.44419C11.889 8.42469 11.8784 8.4035 11.8589 8.397C11.6619 8.33113 11.4239 8.41956 11.3181 8.59856C11.2121 8.77763 11.2488 9.02863 11.4016 9.16988C11.4087 9.1765 11.4178 9.17975 11.4268 9.17975C11.4368 9.17975 11.4469 9.17569 11.4542 9.16781C11.4682 9.15269 11.4673 9.12913 11.4521 9.11506C11.3241 8.99675 11.2934 8.78656 11.3822 8.63644C11.3894 8.62425 11.3984 8.61338 11.407 8.60225C11.6 8.64088 11.7519 8.78388 11.8136 8.98619C11.8185 9.00219 11.8333 9.01256 11.8493 9.01256C11.8529 9.01256 11.8565 9.012 11.8601 9.01094C11.8797 9.005 11.8908 8.98419 11.8848 8.96444Z" fill="#1D1D1D"/>
<path d="M14.9612 10.4377C14.9612 10.9237 14.7483 11.3605 14.4115 11.6597C13.3989 11.2092 12.6027 10.324 12.231 9.22584C12.5205 8.96297 12.9053 8.80347 13.327 8.80347C14.2293 8.80353 14.9612 9.53534 14.9612 10.4377Z" fill="#F99BA2"/>
<path d="M19.6228 9.30178C19.2318 10.3897 18.4206 11.2591 17.3991 11.6904C17.0418 11.3905 16.8145 10.9407 16.8145 10.4376C16.8145 9.53528 17.5456 8.80347 18.4486 8.80347C18.9094 8.8034 19.3263 8.9944 19.6228 9.30178Z" fill="#F99BA2"/>
<path d="M15.9086 10.1981C15.9053 10.1981 15.9021 10.1981 15.8988 10.198C15.6582 10.1943 15.3817 10.0501 15.3428 9.74271C15.3381 9.70558 15.3645 9.67171 15.4016 9.66702C15.4405 9.66246 15.4728 9.68871 15.4773 9.72577C15.506 9.95308 15.717 10.0596 15.9009 10.0625C15.9035 10.0626 15.906 10.0626 15.9085 10.0626C16.0705 10.0626 16.2683 9.98264 16.3042 9.75558C16.31 9.71858 16.3443 9.69308 16.3818 9.69921C16.4188 9.70508 16.444 9.73977 16.4382 9.77677C16.392 10.0688 16.1407 10.1981 15.9086 10.1981Z" fill="#1D1D1D"/>
<path d="M18.3746 7.78438C18.3412 7.81231 18.2955 7.82825 18.2514 7.83281C17.949 7.86406 17.6129 7.76444 17.3354 7.65506C17.2785 7.63263 17.2191 7.60556 17.1856 7.55444C17.0634 7.36844 17.4106 7.29575 17.527 7.29169C17.7809 7.28269 18.1816 7.36369 18.3678 7.55438C18.4113 7.59894 18.4376 7.66594 18.417 7.72469C18.4087 7.74856 18.3936 7.76844 18.3746 7.78438Z" fill="#FF5B44"/>
<path d="M13.3011 7.78438C13.3344 7.81231 13.3801 7.82825 13.4242 7.83281C13.7266 7.86406 14.0627 7.76444 14.3402 7.65506C14.3971 7.63263 14.4565 7.60556 14.4901 7.55444C14.6122 7.36844 14.2651 7.29575 14.1486 7.29169C13.8947 7.28269 13.4941 7.36369 13.3078 7.55438C13.2643 7.59894 13.238 7.66594 13.2586 7.72469C13.267 7.74856 13.282 7.76844 13.3011 7.78438Z" fill="#FF5B44"/>
<path d="M13.0926 8.54295C13.2291 8.65207 13.3769 8.7412 13.5348 8.80201C13.6929 8.86133 13.8579 8.89876 14.023 8.90214C14.188 8.90851 14.355 8.88095 14.5163 8.83114C14.6775 8.77983 14.8304 8.69964 14.9731 8.59883L14.9764 8.59645C15.0429 8.54945 15.135 8.56526 15.182 8.63176C15.2213 8.68739 15.2166 8.76089 15.1751 8.81095C15.0373 8.97726 14.8549 9.10539 14.6547 9.19251C14.4545 9.28114 14.2329 9.32245 14.0107 9.31732C13.7886 9.30926 13.5698 9.25483 13.3753 9.15445C13.1805 9.05564 13.0061 8.91689 12.8784 8.7427C12.8303 8.67701 12.8444 8.5847 12.9102 8.53658C12.9651 8.49633 13.0386 8.4997 13.0894 8.54026L13.0926 8.54295Z" fill="#1D1D1D"/>
<path d="M16.7953 8.54295C16.9318 8.65207 17.0796 8.7412 17.2375 8.80201C17.3955 8.86133 17.5606 8.89876 17.7256 8.90214C17.8906 8.90851 18.0576 8.88095 18.219 8.83114C18.3801 8.77983 18.533 8.69964 18.6757 8.59883L18.6791 8.59645C18.7456 8.54945 18.8376 8.56526 18.8846 8.63176C18.924 8.68739 18.9192 8.76089 18.8778 8.81095C18.74 8.97726 18.5576 9.10539 18.3573 9.19251C18.1571 9.28114 17.9355 9.32245 17.7133 9.31732C17.4913 9.30926 17.2725 9.25483 17.0779 9.15445C16.8831 9.05564 16.7086 8.91689 16.581 8.7427C16.5329 8.67701 16.5471 8.5847 16.6128 8.53658C16.6677 8.49633 16.7412 8.4997 16.792 8.54026L16.7953 8.54295Z" fill="#1D1D1D"/>
</g>
<defs>
<clipPath id="clip0_423_4871">
<rect width="32" height="32" fill="white"/>
</clipPath>
</defs>
</svg>
